<?xml version="1.0" encoding="UTF-8" standalone="no"?>
<!-- Created with Inkscape (http://www.inkscape.org/) -->

<svg
   version="1.1"
   id="svg2"
   width="666.66669"
   height="666.66669"
   viewBox="0 0 666.66669 666.66669"
   sodipodi:docname="8431448_3902759.ai"
   xmlns:inkscape="http://www.inkscape.org/namespaces/inkscape"
   xmlns:sodipodi="http://sodipodi.sourceforge.net/DTD/sodipodi-0.dtd"
   xmlns="http://www.w3.org/2000/svg"
   xmlns:svg="http://www.w3.org/2000/svg">
  <defs
     id="defs6">
    <clipPath
       clipPathUnits="userSpaceOnUse"
       id="clipPath18">
      <path
         d="M 0,500 H 500 V 0 H 0 Z"
         id="path16" />
    </clipPath>
  </defs>
  <sodipodi:namedview
     id="namedview4"
     pagecolor="#ffffff"
     bordercolor="#000000"
     borderopacity="0.25"
     inkscape:showpageshadow="2"
     inkscape:pageopacity="0.0"
     inkscape:pagecheckerboard="0"
     inkscape:deskcolor="#d1d1d1" />
  <g
     id="g8"
     inkscape:groupmode="layer"
     inkscape:label="8431448_3902759"
     transform="matrix(1.3333333,0,0,-1.3333333,0,666.66667)">
    <path
       d="M 0,0 H 500 V 500 H 0 Z"
       style="fill:#ffffff;fill-opacity:1;fill-rule:nonzero;stroke:none"
       id="path10" />
    <g
       id="g12">
      <g
         id="g14"
         clip-path="url(#clipPath18)">
        <g
           id="g20"
           transform="translate(78.2521,165.4948)">
          <path
             d="m 0,0 c -1.207,-2.95 -2.449,-5.888 -3.444,-8.913 -14.042,-42.652 25.68,-80.598 63.301,-91.999 21.076,-6.388 43.185,-5.504 64.056,1.107 20.121,6.373 40.678,14.019 62.149,12.722 31.418,-1.896 50.628,-27.26 79.113,-35.268 9.805,-2.755 20.462,-3.238 30.083,0.104 21.643,7.517 37.212,33.893 42.439,55.121 6.873,27.918 -3.028,55.989 -15.118,80.952 -17.779,36.705 -23.948,74.463 3.451,108.512 28.85,35.854 44.666,84.239 6.351,120.513 -28.373,26.862 -73.016,33.919 -110.302,26.741 -8.131,-1.565 -16.134,-3.865 -23.775,-7.069 -20.261,-8.492 -36.79,-23.868 -48.171,-42.518 -13.01,-21.319 -16.227,-46.886 -29.303,-68.07 C 99.326,117.098 57.154,127.625 28.018,105.517 14.02,94.896 4.676,78.485 2.205,61.13 -0.722,40.566 8.229,20.11 0,0"
             style="fill:#b8effc;fill-opacity:1;fill-rule:nonzero;stroke:none"
             id="path22" />
        </g>
        <g
           id="g24"
           transform="translate(124.1769,433.0246)">
          <path
             d="m 0,0 c -31.005,-14.818 -51.099,-51.42 -38.284,-86.204 14.196,-38.535 56.312,-31.317 80.021,-6.69 11.894,12.354 23.499,27.787 29.46,43.997 4.141,11.262 4.909,24.334 -0.712,34.935 C 62.757,0.609 44.824,7.115 28.334,6.809 18.351,6.624 8.742,4.178 0,0"
             style="fill:#b8effc;fill-opacity:1;fill-rule:nonzero;stroke:none"
             id="path26" />
        </g>
        <g
           id="g28"
           transform="translate(443.0543,210.113)">
          <path
             d="m 0,0 c 14.538,15.421 17.954,40.945 2.845,58.104 -16.739,19.007 -39.359,5.486 -47.519,-13.954 -4.094,-9.753 -7.336,-21.212 -7.158,-31.862 0.123,-7.399 2.589,-15.09 8.181,-19.937 7.686,-6.663 19.45,-6.416 28.867,-2.572 C -9.082,-7.893 -4.1,-4.349 0,0"
             style="fill:#b8effc;fill-opacity:1;fill-rule:nonzero;stroke:none"
             id="path30" />
        </g>
        <g
           id="g32"
           transform="translate(70.1847,134.4538)">
          <path
             d="m 0,0 h 359.727 v 19.613 c 0,25.094 -20.342,45.437 -45.436,45.437 -4.639,0 -9.114,-0.699 -13.329,-1.991 -13.322,24.012 -38.921,40.272 -68.328,40.272 -6.844,0 -13.479,-0.887 -19.805,-2.54 -3.963,26.208 -26.583,46.296 -53.897,46.296 -29.384,0 -53.326,-23.251 -54.46,-52.358 -9.245,4.129 -19.478,6.443 -30.258,6.443 -41.041,0 -74.311,-33.27 -74.311,-74.311 0,-1.282 0.033,-2.557 0.097,-3.824 z"
             style="fill:#ffc8cb;fill-opacity:1;fill-rule:nonzero;stroke:none"
             id="path34" />
        </g>
        <path
           d="M 438.441,130.877 H 61.559 v 3.577 h 376.882 z"
           style="fill:#ffe0ef;fill-opacity:1;fill-rule:nonzero;stroke:none"
           id="path36" />
        <g
           id="g38"
           transform="translate(110.152,218.4138)">
          <path
             d="m 0,0 c 0,0 -20.234,-29.045 -57.822,-15.41 0,0 22.412,30.853 57.822,15.41"
             style="fill:#50c08c;fill-opacity:1;fill-rule:nonzero;stroke:none"
             id="path40" />
        </g>
        <g
           id="g42"
           transform="translate(53.4035,255.6765)">
          <path
             d="m 0,0 -6.542,-5.801 c 5.96,-8.771 14.383,-17.72 26.112,-24.091 l 7.208,6.608 -0.309,-9.876 c 3.476,-1.422 7.201,-2.621 11.189,-3.546 l 5.374,3.771 -0.999,-4.662 c 5.223,-0.901 10.867,-1.345 16.967,-1.225 0,0 -4.778,17.718 -18.03,34.306 l -7.775,-2.095 4.146,6.36 C 33.58,3.895 29.247,7.858 24.279,11.332 l -4.627,-3.902 0.961,6.301 c -10.644,6.501 -23.926,10.696 -40.361,10.007 0,0 2.443,-11.861 10.47,-25.254 z"
             style="fill:#81dbaf;fill-opacity:1;fill-rule:nonzero;stroke:none"
             id="path44" />
        </g>
        <g
           id="g46"
           transform="translate(33.6554,279.4147)">
          <path
             d="m 0,0 c 7.094,-4.504 13.961,-9.335 20.736,-14.286 3.404,-2.454 6.733,-5.006 10.086,-7.528 3.33,-2.551 6.63,-5.142 9.928,-7.733 3.274,-2.623 6.535,-5.264 9.777,-7.925 3.209,-2.704 6.456,-5.359 9.608,-8.13 6.363,-5.469 12.589,-11.103 18.613,-16.959 -6.765,4.986 -13.364,10.153 -19.973,15.305 l -9.881,7.763 -9.85,7.799 -9.818,7.839 -9.79,7.877 C 12.916,-10.713 6.42,-5.418 0,0"
             style="fill:#50c08c;fill-opacity:1;fill-rule:nonzero;stroke:none"
             id="path48" />
        </g>
        <g
           id="g50"
           transform="translate(114.3556,221.985)">
          <path
             d="M 0,0 C 0,0 -30.296,18.307 -19.129,56.7 -19.129,56.7 13.113,36.337 0,0"
             style="fill:#50c08c;fill-opacity:1;fill-rule:nonzero;stroke:none"
             id="path52" />
        </g>
        <g
           id="g54"
           transform="translate(115.84,219.9968)">
          <path
             d="m 0,0 c 0,0 2.546,-35.307 -35.249,-48.356 0,0 -1.991,38.083 35.249,48.356"
             style="fill:#81dbaf;fill-opacity:1;fill-rule:nonzero;stroke:none"
             id="path56" />
        </g>
        <g
           id="g58"
           transform="translate(389.8483,218.4138)">
          <path
             d="M 0,0 C 0,0 20.234,-29.045 57.821,-15.41 57.821,-15.41 35.41,15.443 0,0"
             style="fill:#50c08c;fill-opacity:1;fill-rule:nonzero;stroke:none"
             id="path60" />
        </g>
        <g
           id="g62"
           transform="translate(446.5963,255.6765)">
          <path
             d="m 0,0 6.542,-5.801 c -5.96,-8.771 -14.383,-17.72 -26.112,-24.091 l -7.208,6.608 0.309,-9.876 c -3.476,-1.422 -7.201,-2.621 -11.189,-3.546 l -5.374,3.771 1,-4.662 c -5.224,-0.901 -10.868,-1.345 -16.967,-1.225 0,0 4.777,17.718 18.028,34.306 l 7.776,-2.095 -4.146,6.36 c 3.761,4.146 8.095,8.109 13.062,11.583 l 4.627,-3.902 -0.961,6.301 c 10.644,6.501 23.926,10.696 40.361,10.007 0,0 -2.442,-11.861 -10.47,-25.254 z"
             style="fill:#81dbaf;fill-opacity:1;fill-rule:nonzero;stroke:none"
             id="path64" />
        </g>
        <g
           id="g66"
           transform="translate(466.3444,279.4147)">
          <path
             d="m 0,0 c -7.094,-4.504 -13.961,-9.335 -20.735,-14.286 -3.405,-2.454 -6.734,-5.006 -10.086,-7.528 -3.331,-2.551 -6.631,-5.142 -9.929,-7.733 -3.274,-2.623 -6.534,-5.264 -9.777,-7.925 -3.208,-2.704 -6.456,-5.359 -9.608,-8.13 -6.363,-5.469 -12.589,-11.103 -18.612,-16.959 6.765,4.986 13.363,10.153 19.972,15.305 l 9.881,7.763 9.85,7.799 9.818,7.839 9.79,7.877 C -12.915,-10.713 -6.42,-5.418 0,0"
             style="fill:#50c08c;fill-opacity:1;fill-rule:nonzero;stroke:none"
             id="path68" />
        </g>
        <g
           id="g70"
           transform="translate(385.6442,221.985)">
          <path
             d="M 0,0 C 0,0 30.297,18.307 19.13,56.7 19.13,56.7 -13.113,36.337 0,0"
             style="fill:#50c08c;fill-opacity:1;fill-rule:nonzero;stroke:none"
             id="path72" />
        </g>
        <g
           id="g74"
           transform="translate(384.1598,219.9968)">
          <path
             d="m 0,0 c 0,0 -2.546,-35.307 35.249,-48.356 0,0 1.991,38.083 -35.249,48.356"
             style="fill:#81dbaf;fill-opacity:1;fill-rule:nonzero;stroke:none"
             id="path76" />
        </g>
        <g
           id="g78"
           transform="translate(370.9791,190.8874)">
          <path
             d="m 0,0 h -241.958 c -12.987,0 -23.515,10.527 -23.515,23.515 v 175.138 c 0,12.987 10.528,23.515 23.515,23.515 H 0 c 12.986,0 23.515,-10.528 23.515,-23.515 V 23.515 C 23.515,10.527 12.986,0 0,0"
             style="fill:#007bf4;fill-opacity:1;fill-rule:nonzero;stroke:none"
             id="path80" />
        </g>
        <g
           id="g82"
           transform="translate(129.0211,196.3972)">
          <path
             d="m 0,0 c -9.928,0 -18.005,8.077 -18.005,18.005 v 175.139 c 0,9.927 8.077,18.004 18.005,18.004 h 241.958 c 9.928,0 18.005,-8.077 18.005,-18.004 V 18.005 C 259.963,8.077 251.886,0 241.958,0 Z"
             style="fill:#f7f7f7;fill-opacity:1;fill-rule:nonzero;stroke:none"
             id="path84" />
        </g>
        <g
           id="g86"
           transform="translate(388.984,362.423)">
          <path
             d="m 0,0 v 27.118 c 0,9.927 -8.077,18.005 -18.005,18.005 h -241.958 c -9.928,0 -18.005,-8.078 -18.005,-18.005 V 0 Z"
             style="fill:#0056cc;fill-opacity:1;fill-rule:nonzero;stroke:none"
             id="path88" />
        </g>
        <g
           id="g90"
           transform="translate(154.7106,398.9162)">
          <path
             d="m 0,0 c 0,3.274 -2.654,5.928 -5.928,5.928 -3.274,0 -5.928,-2.654 -5.928,-5.928 0,-3.274 2.654,-5.928 5.928,-5.928 C -2.654,-5.928 0,-3.274 0,0"
             style="fill:#001b4f;fill-opacity:1;fill-rule:nonzero;stroke:none"
             id="path92" />
        </g>
        <g
           id="g94"
           transform="translate(180.0148,398.9162)">
          <path
             d="m 0,0 c 0,3.274 -2.654,5.928 -5.928,5.928 -3.274,0 -5.928,-2.654 -5.928,-5.928 0,-3.274 2.654,-5.928 5.928,-5.928 C -2.654,-5.928 0,-3.274 0,0"
             style="fill:#001b4f;fill-opacity:1;fill-rule:nonzero;stroke:none"
             id="path96" />
        </g>
        <g
           id="g98"
           transform="translate(205.3195,398.9162)">
          <path
             d="m 0,0 c 0,3.274 -2.654,5.928 -5.928,5.928 -3.274,0 -5.928,-2.654 -5.928,-5.928 0,-3.274 2.654,-5.928 5.928,-5.928 C -2.654,-5.928 0,-3.274 0,0"
             style="fill:#001b4f;fill-opacity:1;fill-rule:nonzero;stroke:none"
             id="path100" />
        </g>
        <g
           id="g102"
           transform="translate(230.6237,398.9162)">
          <path
             d="m 0,0 c 0,3.274 -2.654,5.928 -5.928,5.928 -3.274,0 -5.928,-2.654 -5.928,-5.928 0,-3.274 2.654,-5.928 5.928,-5.928 C -2.654,-5.928 0,-3.274 0,0"
             style="fill:#001b4f;fill-opacity:1;fill-rule:nonzero;stroke:none"
             id="path104" />
        </g>
        <g
           id="g106"
           transform="translate(255.9284,398.9162)">
          <path
             d="m 0,0 c 0,3.274 -2.654,5.928 -5.928,5.928 -3.274,0 -5.928,-2.654 -5.928,-5.928 0,-3.274 2.654,-5.928 5.928,-5.928 C -2.654,-5.928 0,-3.274 0,0"
             style="fill:#001b4f;fill-opacity:1;fill-rule:nonzero;stroke:none"
             id="path108" />
        </g>
        <g
           id="g110"
           transform="translate(281.2321,398.9162)">
          <path
             d="m 0,0 c 0,3.274 -2.653,5.928 -5.928,5.928 -3.274,0 -5.927,-2.654 -5.927,-5.928 0,-3.274 2.653,-5.928 5.927,-5.928 C -2.653,-5.928 0,-3.274 0,0"
             style="fill:#001b4f;fill-opacity:1;fill-rule:nonzero;stroke:none"
             id="path112" />
        </g>
        <g
           id="g114"
           transform="translate(306.5367,398.9162)">
          <path
             d="m 0,0 c 0,3.274 -2.654,5.928 -5.928,5.928 -3.274,0 -5.928,-2.654 -5.928,-5.928 0,-3.274 2.654,-5.928 5.928,-5.928 C -2.654,-5.928 0,-3.274 0,0"
             style="fill:#001b4f;fill-opacity:1;fill-rule:nonzero;stroke:none"
             id="path116" />
        </g>
        <g
           id="g118"
           transform="translate(331.8414,398.9162)">
          <path
             d="m 0,0 c 0,3.274 -2.654,5.928 -5.929,5.928 -3.273,0 -5.927,-2.654 -5.927,-5.928 0,-3.274 2.654,-5.928 5.927,-5.928 C -2.654,-5.928 0,-3.274 0,0"
             style="fill:#001b4f;fill-opacity:1;fill-rule:nonzero;stroke:none"
             id="path120" />
        </g>
        <g
           id="g122"
           transform="translate(357.1451,398.9162)">
          <path
             d="m 0,0 c 0,3.274 -2.653,5.928 -5.928,5.928 -3.274,0 -5.927,-2.654 -5.927,-5.928 0,-3.274 2.653,-5.928 5.927,-5.928 C -2.653,-5.928 0,-3.274 0,0"
             style="fill:#001b4f;fill-opacity:1;fill-rule:nonzero;stroke:none"
             id="path124" />
        </g>
        <g
           id="g126"
           transform="translate(148.7824,398.9162)">
          <path
             d="m 0,0 v 0 c -2.06,0 -3.73,1.67 -3.73,3.73 v 11.405 c 0,2.06 1.67,3.731 3.73,3.731 2.061,0 3.73,-1.671 3.73,-3.731 V 3.73 C 3.73,1.67 2.061,0 0,0"
             style="fill:#009ffc;fill-opacity:1;fill-rule:nonzero;stroke:none"
             id="path128" />
        </g>
        <g
           id="g130"
           transform="translate(174.0871,398.9162)">
          <path
             d="m 0,0 v 0 c -2.061,0 -3.73,1.67 -3.73,3.73 v 11.405 c 0,2.06 1.669,3.731 3.73,3.731 2.06,0 3.73,-1.671 3.73,-3.731 V 3.73 C 3.73,1.67 2.06,0 0,0"
             style="fill:#009ffc;fill-opacity:1;fill-rule:nonzero;stroke:none"
             id="path132" />
        </g>
        <g
           id="g134"
           transform="translate(199.3913,398.9162)">
          <path
             d="m 0,0 v 0 c -2.06,0 -3.73,1.67 -3.73,3.73 v 11.405 c 0,2.06 1.67,3.731 3.73,3.731 2.06,0 3.73,-1.671 3.73,-3.731 V 3.73 C 3.73,1.67 2.06,0 0,0"
             style="fill:#009ffc;fill-opacity:1;fill-rule:nonzero;stroke:none"
             id="path136" />
        </g>
        <g
           id="g138"
           transform="translate(224.6954,398.9162)">
          <path
             d="m 0,0 v 0 c -2.06,0 -3.73,1.67 -3.73,3.73 v 11.405 c 0,2.06 1.67,3.731 3.73,3.731 2.061,0 3.73,-1.671 3.73,-3.731 V 3.73 C 3.73,1.67 2.061,0 0,0"
             style="fill:#009ffc;fill-opacity:1;fill-rule:nonzero;stroke:none"
             id="path140" />
        </g>
        <g
           id="g142"
           transform="translate(250.0001,398.9162)">
          <path
             d="m 0,0 v 0 c -2.061,0 -3.73,1.67 -3.73,3.73 v 11.405 c 0,2.06 1.669,3.731 3.73,3.731 2.06,0 3.73,-1.671 3.73,-3.731 V 3.73 C 3.73,1.67 2.06,0 0,0"
             style="fill:#009ffc;fill-opacity:1;fill-rule:nonzero;stroke:none"
             id="path144" />
        </g>
        <g
           id="g146"
           transform="translate(275.3043,398.9162)">
          <path
             d="m 0,0 v 0 c -2.061,0 -3.73,1.67 -3.73,3.73 v 11.405 c 0,2.06 1.669,3.731 3.73,3.731 2.061,0 3.73,-1.671 3.73,-3.731 V 3.73 C 3.73,1.67 2.061,0 0,0"
             style="fill:#009ffc;fill-opacity:1;fill-rule:nonzero;stroke:none"
             id="path148" />
        </g>
        <g
           id="g150"
           transform="translate(300.609,398.9162)">
          <path
             d="m 0,0 v 0 c -2.061,0 -3.73,1.67 -3.73,3.73 v 11.405 c 0,2.06 1.669,3.731 3.73,3.731 2.06,0 3.73,-1.671 3.73,-3.731 V 3.73 C 3.73,1.67 2.06,0 0,0"
             style="fill:#009ffc;fill-opacity:1;fill-rule:nonzero;stroke:none"
             id="path152" />
        </g>
        <g
           id="g154"
           transform="translate(325.9127,398.9162)">
          <path
             d="m 0,0 v 0 c -2.06,0 -3.73,1.67 -3.73,3.73 v 11.405 c 0,2.06 1.67,3.731 3.73,3.731 2.061,0 3.73,-1.671 3.73,-3.731 V 3.73 C 3.73,1.67 2.061,0 0,0"
             style="fill:#009ffc;fill-opacity:1;fill-rule:nonzero;stroke:none"
             id="path156" />
        </g>
        <g
           id="g158"
           transform="translate(351.2174,398.9162)">
          <path
             d="m 0,0 v 0 c -2.061,0 -3.73,1.67 -3.73,3.73 v 11.405 c 0,2.06 1.669,3.731 3.73,3.731 2.061,0 3.73,-1.671 3.73,-3.731 V 3.73 C 3.73,1.67 2.061,0 0,0"
             style="fill:#009ffc;fill-opacity:1;fill-rule:nonzero;stroke:none"
             id="path160" />
        </g>
        <path
           d="m 151.644,284.365 h -25.8 v 25.8 h 25.8 z"
           style="fill:#aadeff;fill-opacity:1;fill-rule:nonzero;stroke:none"
           id="path162" />
        <path
           d="m 151.644,250.643 h -25.8 v 25.8 h 25.8 z"
           style="fill:#aadeff;fill-opacity:1;fill-rule:nonzero;stroke:none"
           id="path164" />
        <path
           d="m 151.644,216.922 h -25.8 v 25.8 h 25.8 z"
           style="fill:#aadeff;fill-opacity:1;fill-rule:nonzero;stroke:none"
           id="path166" />
        <path
           d="m 188.729,284.365 h -25.8 v 25.8 h 25.8 z"
           style="fill:#aadeff;fill-opacity:1;fill-rule:nonzero;stroke:none"
           id="path168" />
        <path
           d="m 188.729,250.643 h -25.8 v 25.8 h 25.8 z"
           style="fill:#aadeff;fill-opacity:1;fill-rule:nonzero;stroke:none"
           id="path170" />
        <path
           d="m 188.729,216.922 h -25.8 v 25.8 h 25.8 z"
           style="fill:#aadeff;fill-opacity:1;fill-rule:nonzero;stroke:none"
           id="path172" />
        <path
           d="m 225.815,318.087 h -25.8 v 25.8 h 25.8 z"
           style="fill:#ff779f;fill-opacity:1;fill-rule:nonzero;stroke:none"
           id="path174" />
        <path
           d="m 225.815,284.365 h -25.8 v 25.8 h 25.8 z"
           style="fill:#aadeff;fill-opacity:1;fill-rule:nonzero;stroke:none"
           id="path176" />
        <path
           d="m 225.815,250.643 h -25.8 v 25.8 h 25.8 z"
           style="fill:#aadeff;fill-opacity:1;fill-rule:nonzero;stroke:none"
           id="path178" />
        <path
           d="m 225.815,216.922 h -25.8 v 25.8 h 25.8 z"
           style="fill:#ffbb00;fill-opacity:1;fill-rule:nonzero;stroke:none"
           id="path180" />
        <path
           d="m 262.9,318.087 h -25.8 v 25.8 h 25.8 z"
           style="fill:#aadeff;fill-opacity:1;fill-rule:nonzero;stroke:none"
           id="path182" />
        <path
           d="m 262.9,284.365 h -25.8 v 25.8 h 25.8 z"
           style="fill:#aadeff;fill-opacity:1;fill-rule:nonzero;stroke:none"
           id="path184" />
        <path
           d="m 262.9,250.643 h -25.8 v 25.8 h 25.8 z"
           style="fill:#aadeff;fill-opacity:1;fill-rule:nonzero;stroke:none"
           id="path186" />
        <path
           d="m 262.9,216.922 h -25.8 v 25.8 h 25.8 z"
           style="fill:#aadeff;fill-opacity:1;fill-rule:nonzero;stroke:none"
           id="path188" />
        <path
           d="m 299.986,318.087 h -25.801 v 25.8 h 25.801 z"
           style="fill:#aadeff;fill-opacity:1;fill-rule:nonzero;stroke:none"
           id="path190" />
        <path
           d="m 299.986,284.365 h -25.801 v 25.8 h 25.801 z"
           style="fill:#ffbb00;fill-opacity:1;fill-rule:nonzero;stroke:none"
           id="path192" />
        <path
           d="m 299.986,250.643 h -25.801 v 25.8 h 25.801 z"
           style="fill:#aadeff;fill-opacity:1;fill-rule:nonzero;stroke:none"
           id="path194" />
        <path
           d="m 299.986,216.922 h -25.801 v 25.8 h 25.801 z"
           style="fill:#00bff0;fill-opacity:1;fill-rule:nonzero;stroke:none"
           id="path196" />
        <path
           d="m 337.071,318.087 h -25.8 v 25.8 h 25.8 z"
           style="fill:#aadeff;fill-opacity:1;fill-rule:nonzero;stroke:none"
           id="path198" />
        <path
           d="m 337.071,284.365 h -25.8 v 25.8 h 25.8 z"
           style="fill:#aadeff;fill-opacity:1;fill-rule:nonzero;stroke:none"
           id="path200" />
        <path
           d="m 337.071,250.643 h -25.8 v 25.8 h 25.8 z"
           style="fill:#aadeff;fill-opacity:1;fill-rule:nonzero;stroke:none"
           id="path202" />
        <path
           d="m 337.071,216.922 h -25.8 v 25.8 h 25.8 z"
           style="fill:#aadeff;fill-opacity:1;fill-rule:nonzero;stroke:none"
           id="path204" />
        <path
           d="m 374.157,318.087 h -25.801 v 25.8 h 25.801 z"
           style="fill:#0056cc;fill-opacity:1;fill-rule:nonzero;stroke:none"
           id="path206" />
        <path
           d="m 374.157,284.365 h -25.801 v 25.8 h 25.801 z"
           style="fill:#0056cc;fill-opacity:1;fill-rule:nonzero;stroke:none"
           id="path208" />
        <path
           d="m 374.157,250.643 h -25.801 v 25.8 h 25.801 z"
           style="fill:#0056cc;fill-opacity:1;fill-rule:nonzero;stroke:none"
           id="path210" />
        <path
           d="m 374.157,216.922 h -25.801 v 25.8 h 25.801 z"
           style="fill:#0056cc;fill-opacity:1;fill-rule:nonzero;stroke:none"
           id="path212" />
        <g
           id="g214"
           transform="translate(217.3966,380.2961)">
          <path
             d="m 0,0 v -8.513 h -2.359 l -3.236,3.867 V -8.513 H -8.392 V 0 h 2.36 l 3.235,-3.867 V 0 Z"
             style="fill:#ffffff;fill-opacity:1;fill-rule:nonzero;stroke:none"
             id="path216" />
        </g>
        <g
           id="g218"
           transform="translate(227.9611,376.0397)">
          <path
             d="m 0,0 c 0,1.326 -0.852,2.128 -1.91,2.128 -1.058,0 -1.909,-0.802 -1.909,-2.128 0,-1.326 0.851,-2.128 1.909,-2.128 C -0.852,-2.128 0,-1.326 0,0 m -6.714,0 c 0,2.578 2.031,4.451 4.804,4.451 2.773,0 4.804,-1.873 4.804,-4.451 0,-2.578 -2.031,-4.451 -4.804,-4.451 -2.773,0 -4.804,1.873 -4.804,4.451"
             style="fill:#ffffff;fill-opacity:1;fill-rule:nonzero;stroke:none"
             id="path220" />
        </g>
        <g
           id="g222"
           transform="translate(243.4992,380.2961)">
          <path
             d="M 0,0 -3.6,-8.513 H -6.421 L -10.021,0 h 3.089 L -4.901,-4.974 -2.821,0 Z"
             style="fill:#ffffff;fill-opacity:1;fill-rule:nonzero;stroke:none"
             id="path224" />
        </g>
        <g
           id="g226"
           transform="translate(253.6637,373.9479)">
          <path
             d="m 0,0 v -2.165 h -7.079 v 8.513 h 6.921 V 4.184 H -4.257 V 3.187 h 3.6 V 1.119 h -3.6 V 0 Z"
             style="fill:#ffffff;fill-opacity:1;fill-rule:nonzero;stroke:none"
             id="path228" />
        </g>
        <g
           id="g230"
           transform="translate(265.1764,371.7834)">
          <path
             d="M 0,0 -0.024,3.879 -1.873,0.766 h -1.265 l -1.848,2.98 V 0 h -2.615 v 8.513 h 2.36 l 2.772,-4.536 2.7,4.536 h 2.36 L 2.614,0 Z"
             style="fill:#ffffff;fill-opacity:1;fill-rule:nonzero;stroke:none"
             id="path232" />
        </g>
        <g
           id="g234"
           transform="translate(277.4801,374.4587)">
          <path
             d="m 0,0 c 0,0.438 -0.316,0.669 -0.949,0.669 h -1.727 v -1.337 h 1.727 C -0.316,-0.668 0,-0.437 0,0 M -2.676,3.831 V 2.566 h 1.338 c 0.645,0 0.937,0.219 0.937,0.633 0,0.413 -0.292,0.632 -0.937,0.632 z m 5.57,-4.159 c 0,-1.484 -1.252,-2.347 -3.6,-2.347 h -4.791 v 8.512 h 4.548 c 2.347,0 3.442,-0.936 3.442,-2.225 0,-0.79 -0.401,-1.447 -1.18,-1.836 0.998,-0.365 1.581,-1.095 1.581,-2.104"
             style="fill:#ffffff;fill-opacity:1;fill-rule:nonzero;stroke:none"
             id="path236" />
        </g>
        <g
           id="g238"
           transform="translate(291.2682,373.9479)">
          <path
             d="m 0,0 v -2.165 h -7.078 v 8.513 h 6.92 V 4.184 H -4.257 V 3.187 h 3.6 V 1.119 h -3.6 l 0,-1.119 z"
             style="fill:#ffffff;fill-opacity:1;fill-rule:nonzero;stroke:none"
             id="path240" />
        </g>
        <g
           id="g242"
           transform="translate(299.0963,378.0827)">
          <path
             d="M 0,0 H -1.046 V -1.994 H 0 c 0.79,0 1.167,0.377 1.167,0.997 C 1.167,-0.377 0.79,0 0,0 m -0.268,-4.159 h -0.778 v -2.14 h -2.87 v 8.512 h 4.099 c 2.371,0 3.879,-1.24 3.879,-3.21 0,-1.228 -0.584,-2.152 -1.606,-2.675 L 4.244,-6.299 H 1.18 Z"
             style="fill:#ffffff;fill-opacity:1;fill-rule:nonzero;stroke:none"
             id="path244" />
        </g>
        <g
           id="g246"
           transform="translate(215.4474,354.362)">
          <path
             d="m 0,0 c -10.696,0 -19.397,-8.702 -19.397,-19.398 0,-10.696 8.701,-19.398 19.397,-19.398 10.696,0 19.398,8.702 19.398,19.398 C 19.398,-8.702 10.696,0 0,0 m 0,-39.974 c -11.345,0 -20.575,9.23 -20.575,20.576 0,11.346 9.23,20.576 20.575,20.576 11.346,0 20.576,-9.23 20.576,-20.576 0,-11.346 -9.23,-20.576 -20.576,-20.576"
             style="fill:#0076ff;fill-opacity:1;fill-rule:nonzero;stroke:none"
             id="path248" />
        </g>
        <g
           id="g250"
           transform="translate(215.4474,348.6086)">
          <path
             d="m 0,0 c -7.523,0 -13.645,-6.121 -13.645,-13.645 0,-7.523 6.122,-13.644 13.645,-13.644 7.524,0 13.646,6.121 13.646,13.644 C 13.646,-6.121 7.524,0 0,0 m 0,-28.467 c -8.173,0 -14.822,6.65 -14.822,14.822 0,8.173 6.649,14.823 14.822,14.823 8.174,0 14.823,-6.65 14.823,-14.823 0,-8.172 -6.649,-14.822 -14.823,-14.822"
             style="fill:#0076ff;fill-opacity:1;fill-rule:nonzero;stroke:none"
             id="path252" />
        </g>
        <g
           id="g254"
           transform="translate(215.4474,343.7858)">
          <path
             d="m 0,0 c -4.864,0 -8.821,-3.958 -8.821,-8.822 0,-4.865 3.957,-8.822 8.821,-8.822 4.864,0 8.822,3.957 8.822,8.822 C 8.822,-3.958 4.864,0 0,0 m 0,-18.822 c -5.514,0 -9.999,4.486 -9.999,10 0,5.514 4.485,10 9.999,10 5.514,0 10,-4.486 10,-10 0,-5.514 -4.486,-10 -10,-10"
             style="fill:#0076ff;fill-opacity:1;fill-rule:nonzero;stroke:none"
             id="path256" />
        </g>
        <g
           id="g258"
           transform="translate(218.1535,73.0729)">
          <path
             d="m 0,0 c 0,-6.229 -28.593,-11.278 -63.865,-11.278 -35.272,0 -63.865,5.049 -63.865,11.278 0,6.229 28.593,11.279 63.865,11.279 C -28.593,11.279 0,6.229 0,0"
             style="fill:#77d9e9;fill-opacity:1;fill-rule:nonzero;stroke:none"
             id="path260" />
        </g>
        <g
           id="g262"
           transform="translate(216.5246,322.6833)">
          <path
             d="M 0,0 C 0,-0.381 -0.148,-0.763 -0.443,-1.052 -1.815,-2.38 -4.472,-4.343 -7.941,-3.888 v -0.006 c 0,0 -2.129,-2.38 -3.894,-4.195 -0.382,-0.394 -0.745,-0.812 -1.083,-1.243 l -12.617,-16.214 -9.454,-12.149 -0.197,-0.025 c -0.067,0.652 -0.234,1.298 -0.461,1.913 -0.382,1.034 -0.806,1.993 -0.486,3.1 0.092,0.314 0.209,0.603 0.326,0.886 l 0.516,-0.098 c 1.366,0.787 2.492,1.857 3.353,2.866 1.126,1.317 1.778,2.971 1.87,4.681 0.025,0.455 0.012,0.905 -0.043,1.36 -0.289,2.491 -0.861,5.044 -1.421,7.16 l 19.936,18.78 c 0.283,0.271 0.56,0.548 0.819,0.843 l 7.972,9.03 c 0.535,0.609 1.451,0.683 2.079,0.172 0.363,-0.295 0.547,-0.732 0.547,-1.168 0,-0.302 -0.086,-0.603 -0.277,-0.868 L -4.22,5.678 -5.635,3.709 -5.899,3.34 c -0.572,-0.806 -0.455,-1.907 0.283,-2.565 0.369,-0.332 0.83,-0.498 1.291,-0.498 0.4,0 0.8,0.123 1.145,0.375 l 0.781,0.572 c 0.387,0.289 0.879,0.363 1.322,0.234 V 1.452 C -0.855,1.39 -0.64,1.261 -0.461,1.089 -0.154,0.793 0,0.394 0,0"
             style="fill:#f28546;fill-opacity:1;fill-rule:nonzero;stroke:none"
             id="path264" />
        </g>
        <g
           id="g266"
           transform="translate(215.4479,324.1413)">
          <path
             d="M 0,0 C -0.443,0.129 -0.935,0.055 -1.323,-0.234 L -2.104,-0.806 C -2.362,2.061 -4.558,2.251 -4.558,2.251 L -3.144,4.22 C -3.144,4.22 -0.006,3.974 0,0"
             style="fill:#de7038;fill-opacity:1;fill-rule:nonzero;stroke:none"
             id="path268" />
        </g>
        <g
           id="g270"
           transform="translate(213.3444,323.3351)">
          <path
             d="m 0,0 c -0.345,-0.252 -0.745,-0.375 -1.145,-0.375 -0.461,0 -0.922,0.166 -1.291,0.498 -0.738,0.658 -0.855,1.759 -0.283,2.565 l 0.264,0.37 c 0,0 2.196,-0.191 2.455,-3.058"
             style="fill:#de7038;fill-opacity:1;fill-rule:nonzero;stroke:none"
             id="path272" />
        </g>
        <g
           id="g274"
           transform="translate(184.4328,234.1774)">
          <path
             d="m 0,0 c -0.351,1.482 -0.67,3.008 -0.972,4.552 -0.676,3.488 -1.236,7.037 -1.679,10.267 -0.093,0.627 -0.173,1.242 -0.252,1.839 h 0.006 c 0,0 4.687,4.46 13.969,3.611 L 12.856,4.27 c 0,0 1.44,-5.87 2.547,-8.859 0,0 1.882,-7.966 2.215,-14.382 0,0 1.107,-18.59 6.083,-28.881 0,0 1.249,-2.663 -1.107,-5.972 l -4.976,-6.699 c -0.4,-0.536 -1.163,-0.622 -1.674,-0.191 -0.264,0.228 -0.406,0.554 -0.406,0.88 0,0.228 0.068,0.455 0.203,0.651 l 1.766,2.554 -1.323,-1.243 c -0.166,-0.16 -0.387,-0.24 -0.602,-0.24 -0.228,0 -0.45,0.087 -0.622,0.258 -0.338,0.333 -0.344,0.874 -0.024,1.218 l 2.774,2.996 c 0.461,0.493 0.756,1.119 0.843,1.79 0.116,0.905 0.006,1.828 -0.326,2.676 l -0.727,1.852 -1.229,-4.583 c -0.197,-0.75 -0.88,-1.255 -1.625,-1.255 -0.135,0 -0.264,0.018 -0.399,0.05 -0.874,0.214 -1.428,1.063 -1.268,1.943 0.683,3.734 0.763,8.846 0.763,8.846 0,4.128 -0.701,7.48 -1.039,8.851 -0.099,0.401 -0.228,0.794 -0.382,1.182 l -0.683,1.673 -1.746,4.294 -4.817,11.841 v 0.006 L 1.864,-6.588 C 1.741,-6.287 1.63,-5.985 1.538,-5.678 0.978,-3.918 0.467,-1.999 0,0"
             style="fill:#f28546;fill-opacity:1;fill-rule:nonzero;stroke:none"
             id="path276" />
        </g>
        <g
           id="g278"
           transform="translate(162.7799,188.1472)">
          <path
             d="m 0,0 3.014,-12.396 c 0.277,-1.143 0.376,-2.319 0.296,-3.487 L 2.178,-32.535 c -5.74,-11.22 -13.33,-22.717 -13.33,-22.717 -8.077,-14.21 -14.905,-33.931 -17.249,-41.035 -4.158,1.242 -14.05,5.732 -14.05,5.732 3.691,10.869 19.759,45.773 23.203,53.228 0.437,0.935 0.732,1.931 0.893,2.953 l 3.505,22.933 c 0.204,1.34 0.13,2.712 -0.159,4.041 -3.125,14.32 4.761,24.605 5.062,24.993 0.007,0 0.007,0.006 0.007,0.006 1.777,0.664 5.443,1.851 10.629,2.614 3.26,0.479 7.123,0.787 11.491,0.695 1.279,-0.031 2.559,-0.154 3.826,-0.363 2.005,-0.332 5.721,-0.867 9.731,-1.009 1.87,-0.061 3.808,-0.043 5.666,0.117 l 0.141,0.056 1.747,-4.294 c 0.504,-19.487 -6.803,-54.402 -6.803,-54.402 -3.912,-23.621 -4.497,-47.661 -4.577,-56.476 -7.431,-1.772 -14.234,-1.083 -14.234,-1.083 -1.028,14.179 0,52.305 0,52.305 0.677,10.15 0.529,18.306 0.061,24.581 C 6.92,-8.649 5.13,-3.438 5.13,-3.438 3.008,-2.59 1.329,-1.391 0,0"
             style="fill:#00848a;fill-opacity:1;fill-rule:nonzero;stroke:none"
             id="path280" />
        </g>
        <g
           id="g282"
           transform="translate(195.2223,257.0236)">
          <path
             d="M 0,0 0.283,-2.577 C -9,-1.729 -13.687,-6.188 -13.687,-6.188 h -0.006 c -0.135,1.083 -0.265,2.122 -0.381,3.094 0,0 4.828,3.66 14.068,3.094 z"
             style="fill:#ffffff;fill-opacity:1;fill-rule:nonzero;stroke:none"
             id="path284" />
        </g>
        <g
           id="g286"
           transform="translate(167.8488,267.881)">
          <path
             d="m 0,0 c 1.488,0.504 2.873,1.359 3.746,2.645 0.424,0.627 0.726,1.409 1.323,1.9 0.91,0.751 2.196,0.745 3.063,1.643 0.504,0.529 0.806,1.218 0.996,1.925 0.154,0.554 0.247,1.138 0.179,1.704 -0.056,0.462 -0.215,0.917 -0.148,1.378 0.068,0.474 0.419,0.708 0.843,0.862 l 0.025,-0.431 c 0.682,0.031 3.334,0.086 6.311,-0.824 C 14.813,10.217 13.305,9.19 12.333,8.132 10.07,5.665 9.762,0.049 13.392,-1.439 c 1.549,-0.634 3.334,-0.056 4.816,-0.973 1.359,-0.848 1.415,-2.318 2.325,-3.414 1.735,-2.097 4.374,-1.531 6.275,0.037 l 0.566,-5.068 h -0.007 c -9.239,0.565 -14.068,-3.095 -14.068,-3.095 0.117,-0.971 0.246,-2.011 0.382,-3.094 0.079,-0.597 0.159,-1.211 0.252,-1.839 -2.59,-2.134 -5.992,-3.746 -7.154,-6.791 -0.954,-2.497 0.233,-5.585 3.18,-5.813 2.122,-0.16 3.869,1.108 5.653,2.337 0.302,-1.544 0.621,-3.069 0.972,-4.552 -1.04,-0.473 -2.048,-1.1 -2.701,-2.423 -2.374,-4.854 -0.11,-9.867 -1.457,-14.776 -1.095,-3.992 -5.475,-3.531 -8.76,-4.374 -1.605,-0.412 -3.758,-0.541 -5.235,-1.322 -1.359,-0.72 -2.245,-1.734 -2.811,-2.922 -5.185,-0.763 -8.852,-1.95 -10.629,-2.614 0,0 0,-0.006 -0.007,-0.006 -0.793,-0.296 -1.205,-0.486 -1.205,-0.486 2.836,3.986 4.712,7.745 5.924,11.146 0.301,0.843 0.566,1.697 0.787,2.559 1.778,0.141 3.678,-0.228 5.29,-0.72 2.953,-0.904 4.699,-0.571 6.73,1.889 1.63,1.987 1.501,5.382 0.824,7.775 -0.831,2.972 -3.303,5.271 -3.531,8.391 -0.338,4.594 3.125,9.761 -0.787,13.785 -2.227,2.294 -6.336,2.301 -9.092,1.292 -1.347,-0.492 -2.713,-1.151 -3.919,-1.944 -1.267,5.622 -1.814,10.451 -2.048,13.877 1.354,0.511 2.694,0.529 4.134,0.129 0.172,-0.043 0.345,-0.092 0.523,-0.154 3.488,-1.168 5.868,-4.933 8.433,-7.418 1.864,-1.802 5.253,-4.066 7.954,-2.669 2.602,1.34 1.852,5.991 -0.099,7.615 -1.07,0.892 -2.638,1.162 -3.869,1.79 -2.159,1.095 -3.081,2.78 -3.137,4.81 0.345,0.043 0.689,0.105 1.027,0.179 0.363,0.08 0.72,0.178 1.077,0.295"
             style="fill:#ff779f;fill-opacity:1;fill-rule:nonzero;stroke:none"
             id="path288" />
        </g>
        <g
           id="g290"
           transform="translate(195.0436,77.5886)">
          <path
             d="m 0,0 c 0.086,-0.56 -0.049,-1.445 -1.556,-1.907 0,0 -3.432,-1.759 -11.361,-1.365 -0.64,0.03 -1.274,-0.069 -1.877,-0.278 -1.107,-0.388 -3.094,-0.966 -5.038,-0.966 h -5.321 c 0,0 -0.375,3.168 0.271,6.416 0.215,1.078 0.295,2.172 0.295,3.273 v 0.603 c 0,0.75 0.603,1.353 1.347,1.353 h 1.181 1.317 c 0.559,0 1.095,-0.221 1.507,-0.615 0.683,-0.652 2.11,-1.464 4.521,-0.387 0,0 0.689,0.522 1.735,0.738 0.824,0.166 1.876,0.141 2.983,-0.499 l 2.085,-2.109 c 0.48,-0.492 1.053,-0.88 1.686,-1.151 L -0.51,0.658 C -0.24,0.541 -0.043,0.295 0,0"
             style="fill:#ffffff;fill-opacity:1;fill-rule:nonzero;stroke:none"
             id="path292" />
        </g>
        <g
           id="g294"
           transform="translate(194.1828,266.3307)">
          <path
             d="m 0,0 0.474,-4.238 c -1.901,-1.569 -4.54,-2.135 -6.275,-0.037 -0.91,1.095 -0.966,2.565 -2.325,3.414 -1.482,0.916 -3.267,0.338 -4.816,0.972 -3.63,1.488 -3.322,7.104 -1.058,9.571 0.971,1.058 2.479,2.086 4.004,2.67 C -5.789,11.079 -0.917,7.886 0,0"
             style="fill:#ff4d8f;fill-opacity:1;fill-rule:nonzero;stroke:none"
             id="path296" />
        </g>
        <g
           id="g298"
           transform="translate(189.5075,219.697)">
          <path
             d="M 0,0 4.817,-11.841 4.675,-11.896 C 2.817,-12.057 0.88,-12.075 -0.99,-12.014 Z"
             style="fill:#d52465;fill-opacity:1;fill-rule:nonzero;stroke:none"
             id="path300" />
        </g>
        <g
           id="g302"
           transform="translate(189.5075,219.7038)">
          <path
             d="m 0,0 v -0.007 l -0.99,-12.014 c -4.011,0.142 -7.726,0.677 -9.732,1.009 -1.267,0.209 -2.547,0.332 -3.826,0.364 -4.368,0.091 -8.23,-0.216 -11.491,-0.696 0.566,1.188 1.452,2.202 2.811,2.922 1.477,0.781 3.63,0.91 5.235,1.322 3.285,0.843 7.665,0.382 8.76,4.374 1.347,4.91 -0.916,9.922 1.458,14.776 0.652,1.323 1.661,1.95 2.7,2.424 0.468,-1.999 0.978,-3.918 1.538,-5.678 0.092,-0.308 0.203,-0.609 0.326,-0.91 z"
             style="fill:#ff4d8f;fill-opacity:1;fill-rule:nonzero;stroke:none"
             id="path304" />
        </g>
        <g
           id="g306"
           transform="translate(186.4137,299.6711)">
          <path
             d="M 0,0 C 0.252,-2.178 -0.4,-4.38 -1.827,-6.041 -2.688,-7.049 -3.814,-8.12 -5.18,-8.907 l -0.516,0.098 c 0.289,0.707 0.584,1.378 0.498,2.233 -0.105,0.972 -0.252,1.157 0.468,1.931 0.799,0.862 1.624,1.637 1.876,2.831 0.129,0.621 0.203,1.42 0.024,2.042 -0.16,0.541 -0.597,0.892 -0.775,1.402 -0.301,0.849 0.431,1.396 0.701,2.276 0.597,1.938 -1.144,3.402 -0.621,5.266 0.252,0.904 0.621,2.005 0.523,2.965 l 0.067,0.006 c 0,0 0.751,-2.085 1.514,-4.983 C -0.861,5.044 -0.29,2.491 0,0"
             style="fill:#f28546;fill-opacity:1;fill-rule:nonzero;stroke:none"
             id="path308" />
        </g>
        <g
           id="g310"
           transform="translate(184.6911,92.6843)">
          <path
             d="m 0,0 c -0.012,-2.258 0,-3.513 0,-3.513 l -2.688,-0.296 -9.018,-1.002 -2.073,-0.227 c -0.184,0.904 -0.338,2.257 -0.455,3.955 0,0 6.803,-0.689 14.234,1.083"
             style="fill:#00b8b8;fill-opacity:1;fill-rule:nonzero;stroke:none"
             id="path312" />
        </g>
        <g
           id="g314"
           transform="translate(182.0031,84.7175)">
          <path
             d="M 0,0 0.062,-0.264 C -0.984,-0.479 -1.673,-1.002 -1.673,-1.002 -4.084,-2.079 -5.512,-1.267 -6.194,-0.615 -6.606,-0.221 -7.142,0 -7.702,0 H -9.018 V 3.156 L 0,4.158 Z"
             style="fill:#f28546;fill-opacity:1;fill-rule:nonzero;stroke:none"
             id="path316" />
        </g>
        <g
           id="g318"
           transform="translate(181.7814,248.9963)">
          <path
             d="m 0,0 c 0.443,-3.23 1.003,-6.779 1.679,-10.267 -1.783,-1.23 -3.531,-2.497 -5.653,-2.337 -2.946,0.228 -4.133,3.315 -3.18,5.812 C -5.991,-3.747 -2.59,-2.134 0,0"
             style="fill:#ff4d8f;fill-opacity:1;fill-rule:nonzero;stroke:none"
             id="path320" />
        </g>
        <g
           id="g322"
           transform="translate(172.7511,260.8068)">
          <path
             d="m 0,0 c 1.95,-1.624 2.701,-6.274 0.099,-7.615 -2.701,-1.397 -6.09,0.867 -7.954,2.669 -2.565,2.486 -4.946,6.25 -8.434,7.419 -0.178,0.061 -0.35,0.11 -0.523,0.153 -0.769,1.631 -1.66,3.236 -2.27,4.897 0.566,-0.037 1.132,-0.019 1.692,0.049 0.818,0.093 1.76,0.585 2.584,0.455 0.873,-0.135 1.796,-0.805 2.676,-1.051 C -10.469,6.502 -8.716,6.367 -7.006,6.6 -6.951,4.57 -6.028,2.885 -3.869,1.79 -2.639,1.163 -1.07,0.892 0,0"
             style="fill:#ff4d8f;fill-opacity:1;fill-rule:nonzero;stroke:none"
             id="path324" />
        </g>
        <g
           id="g326"
           transform="translate(171.1828,227.903)">
          <path
             d="m 0,0 c 0.677,-2.393 0.806,-5.788 -0.824,-7.775 -2.03,-2.46 -3.777,-2.793 -6.73,-1.889 -1.612,0.492 -3.512,0.861 -5.29,0.72 0.437,1.685 0.719,3.402 0.855,5.131 0.781,-0.45 7.867,1.795 7.867,1.795 -3.703,2.141 -10.223,13.097 -10.223,13.097 -1.286,3.672 -2.258,7.191 -2.984,10.445 1.206,0.793 2.572,1.452 3.919,1.944 2.756,1.009 6.865,1.002 9.092,-1.292 3.912,-4.024 0.449,-9.191 0.787,-13.785 C -3.303,5.271 -0.831,2.972 0,0"
             style="fill:#ff4d8f;fill-opacity:1;fill-rule:nonzero;stroke:none"
             id="path328" />
        </g>
        <g
           id="g330"
           transform="translate(170.5182,168.487)">
          <path
             d="m 0,0 -0.062,-0.006 c -1.082,-3.703 -3.137,-8.262 -5.499,-12.869 l 1.132,16.652 c 0.08,1.168 -0.018,2.344 -0.295,3.488 L -7.738,19.66 c 1.328,-1.39 3.008,-2.59 5.13,-3.438 0,0 1.79,-5.211 2.608,-16.222"
             style="fill:#004d48;fill-opacity:1;fill-rule:nonzero;stroke:none"
             id="path332" />
        </g>
        <g
           id="g334"
           transform="translate(156.8375,238.9821)">
          <path
             d="m 0,0 c 0,0 6.521,-10.956 10.224,-13.097 0,0 -7.087,-2.245 -7.868,-1.796 0.369,4.589 -0.301,9.251 -1.907,13.631 C 0.295,-0.837 0.142,-0.419 0,0"
             style="fill:#d52465;fill-opacity:1;fill-rule:nonzero;stroke:none"
             id="path336" />
        </g>
        <g
           id="g338"
           transform="translate(155.9396,263.4333)">
          <path
             d="M 0,0 C -1.439,0.4 -2.78,0.381 -4.134,-0.129 -4.355,3.039 -4.306,5.014 -4.293,5.333 -3.642,5.075 -2.959,4.939 -2.27,4.896 -1.661,3.236 -0.769,1.63 0,0"
             style="fill:#ff4d8f;fill-opacity:1;fill-rule:nonzero;stroke:none"
             id="path340" />
        </g>
        <g
           id="g342"
           transform="translate(134.7418,77.8776)">
          <path
             d="m 0,0 c 1.107,-0.523 4.245,-2.258 3.857,-5.174 0,0 -0.751,-0.516 -2.282,-0.707 -1.501,-0.197 -3.746,-0.067 -6.766,1.175 0,0 -2.492,1.809 -3.9,4.792 0,0 -2.123,3.925 -8.324,1.962 0,0 -1.328,1.618 0.518,4.288 0.128,0.19 0.251,0.381 0.362,0.584 0.332,0.628 1.095,2.11 1.717,3.802 0.381,1.04 1.439,1.679 2.54,1.525 0.105,-0.012 0.215,-0.03 0.326,-0.049 2.055,-0.307 5.032,-1.101 7.019,-3.088 0,0 1.414,-1.255 1.414,-4.706 0,0 0.284,-3.537 2.799,-4.176 C -0.474,0.166 -0.228,0.104 0,0"
             style="fill:#ffffff;fill-opacity:1;fill-rule:nonzero;stroke:none"
             id="path344" />
        </g>
        <g
           id="g346"
           transform="translate(136.3165,71.9968)">
          <path
             d="m 0,0 0.006,-0.074 c -3.235,-1.869 -8.575,-1.261 -8.575,-1.261 -6.533,0.314 -6.969,4.473 -6.969,4.473 -0.861,2.595 -3.451,4.791 -3.451,4.791 6.2,1.963 8.323,-1.962 8.323,-1.962 1.409,-2.984 3.9,-4.792 3.9,-4.792 C -3.746,-0.067 -1.5,-0.197 0,0"
             style="fill:#949494;fill-opacity:1;fill-rule:nonzero;stroke:none"
             id="path348" />
        </g>
        <g
           id="g350"
           transform="translate(134.379,91.86)">
          <path
             d="m 0,0 c -0.566,-1.711 -0.867,-2.688 -0.867,-2.688 l -2.289,0.977 -6.981,2.978 -4.626,1.974 c 0.098,0.554 0.344,1.403 0.713,2.491 0,0 9.892,-4.49 14.05,-5.732"
             style="fill:#00b8b8;fill-opacity:1;fill-rule:nonzero;stroke:none"
             id="path352" />
        </g>
        <g
           id="g354"
           transform="translate(131.2233,90.1491)">
          <path
             d="m 0,0 -1.415,-3.161 c -1.986,1.986 -4.964,2.78 -7.019,3.088 l 1.453,3.051 z"
             style="fill:#f28546;fill-opacity:1;fill-rule:nonzero;stroke:none"
             id="path356" />
        </g>
        <g
           id="g358"
           transform="translate(215.4479,324.1349)">
          <path
             d="M 0,0 C 0.574,-0.093 1.073,-0.591 1.208,-1.205 1.273,-1.512 1.246,-1.845 1.126,-2.146 1.015,-2.457 0.76,-2.702 0.567,-2.895 c -0.821,-0.824 -1.79,-1.512 -2.857,-2.014 -1.07,-0.487 -2.253,-0.766 -3.432,-0.733 -0.59,0.014 -1.17,0.101 -1.735,0.246 -0.559,0.163 -1.103,0.366 -1.604,0.647 1.099,-0.334 2.227,-0.463 3.332,-0.413 1.104,0.065 2.183,0.347 3.183,0.812 1.004,0.459 1.934,1.085 2.789,1.807 0.225,0.189 0.404,0.34 0.518,0.564 0.118,0.216 0.17,0.472 0.151,0.729 C 0.89,-0.729 0.527,-0.226 0,0"
             style="fill:#ac4502;fill-opacity:1;fill-rule:nonzero;stroke:none"
             id="path360" />
        </g>
        <g
           id="g362"
           transform="translate(157.7418,202.1354)">
          <path
             d="m 0,0 c 0.062,-1.323 0.22,-2.637 0.49,-3.926 0.249,-1.293 0.606,-2.562 1.072,-3.785 0.913,-2.445 2.269,-4.747 4.162,-6.527 1.859,-1.817 4.249,-3.028 6.775,-3.677 1.262,-0.336 2.566,-0.529 3.878,-0.618 1.313,-0.116 2.636,-0.09 3.959,-0.038 -1.311,-0.191 -2.64,-0.279 -3.972,-0.264 -1.332,0.029 -2.667,0.172 -3.977,0.46 -2.619,0.57 -5.117,1.833 -7.087,3.691 -0.494,0.464 -0.911,0.997 -1.355,1.504 -0.211,0.263 -0.396,0.546 -0.594,0.819 l -0.293,0.411 -0.257,0.434 C 2.09,-10.373 1.536,-9.139 1.118,-7.868 0.27,-5.331 -0.12,-2.649 0,0"
             style="fill:#003530;fill-opacity:1;fill-rule:nonzero;stroke:none"
             id="path364" />
        </g>
        <g
           id="g366"
           transform="translate(210.8898,326.3928)">
          <path
             d="M 0,0 C 0.751,0.146 1.545,-0.272 2.015,-0.892 2.237,-1.214 2.403,-1.57 2.472,-1.944 2.517,-2.127 2.515,-2.319 2.528,-2.503 2.516,-2.691 2.497,-2.876 2.455,-3.058 2.361,-2.889 2.3,-2.722 2.231,-2.561 2.152,-2.403 2.093,-2.243 2.016,-2.094 1.869,-1.793 1.708,-1.516 1.521,-1.259 1.14,-0.753 0.657,-0.345 0,0"
             style="fill:#ac4502;fill-opacity:1;fill-rule:nonzero;stroke:none"
             id="path368" />
        </g>
        <g
           id="g370"
           transform="translate(200.7584,189.8571)">
          <path
             d="m 0,0 c 0.434,-0.918 0.831,-1.851 1.248,-2.775 l 0.594,-1.4 C 2.035,-4.634 2.261,-5.112 2.38,-5.633 2.505,-6.146 2.558,-6.68 2.528,-7.211 2.508,-7.735 2.382,-8.302 2.122,-8.785 1.996,-9.031 1.835,-9.26 1.652,-9.466 l -0.517,-0.564 -1.027,-1.12 -1.038,-1.111 -0.252,-0.271 c -0.056,-0.063 -0.097,-0.137 -0.122,-0.217 -0.05,-0.161 -0.021,-0.342 0.066,-0.483 0.178,-0.307 0.637,-0.376 0.902,-0.132 l 1.128,1.013 1.135,1.012 c 0.387,0.336 0.738,0.664 1.046,1.058 0.315,0.383 0.582,0.806 0.798,1.259 0.218,0.449 0.365,0.936 0.541,1.413 -0.183,-0.992 -0.501,-1.995 -1.097,-2.852 -0.289,-0.427 -0.664,-0.813 -1.022,-1.161 l -1.077,-1.073 c -0.36,-0.36 -0.715,-0.71 -1.088,-1.067 -0.243,-0.23 -0.588,-0.341 -0.919,-0.301 -0.336,0.037 -0.644,0.231 -0.832,0.508 -0.193,0.282 -0.247,0.648 -0.151,0.973 0.048,0.162 0.131,0.315 0.242,0.443 l 0.262,0.287 1.027,1.121 1.038,1.11 0.514,0.551 c 0.156,0.171 0.289,0.359 0.402,0.56 0.457,0.8 0.46,1.833 0.309,2.779 -0.081,0.476 -0.265,0.931 -0.438,1.416 l -0.514,1.43 C 0.646,-1.923 0.305,-0.969 0,0"
             style="fill:#ac4502;fill-opacity:1;fill-rule:nonzero;stroke:none"
             id="path372" />
        </g>
        <g
           id="g374"
           transform="translate(183.5836,299.8986)">
          <path
             d="m 0,0 c -0.16,0.542 -0.597,0.892 -0.775,1.402 -0.301,0.849 0.431,1.397 0.701,2.277 0.597,1.937 -1.144,3.401 -0.621,5.265 0.252,0.904 0.621,2.006 0.523,2.965 0,0.019 -0.006,0.043 -0.006,0.062 -0.105,0.812 -0.652,1.051 -1.077,1.685 -0.51,0.769 -0.393,1.753 -0.658,2.7 -0.32,1.157 -0.972,2.147 -1.95,2.849 -0.996,0.719 -2.202,1.094 -3.395,1.23 -1.132,0.129 -2.387,-0.535 -3.408,-0.357 -0.566,0.099 -1.145,0.339 -1.729,0.572 -0.553,0.222 -1.119,0.437 -1.698,0.536 -1.23,0.202 -2.515,0.319 -3.752,0.128 -0.461,-0.067 -0.923,-0.184 -1.365,-0.35 -2.449,-0.917 -3.913,-2.688 -5.432,-4.724 -0.867,-1.163 -2.43,-1.741 -3.728,-2.264 -1.513,-0.615 -2.713,-1.304 -3.672,-2.676 -0.652,-0.929 -1.102,-1.981 -1.427,-3.057 -0.351,-1.157 -0.505,-1.685 -1.034,-2.079 -0.799,-0.597 -1.87,-0.775 -2.712,-1.335 -0.96,-0.64 -1.778,-1.47 -2.461,-2.393 -1.046,-1.421 -2.018,-3.236 -2.418,-4.964 -0.363,-1.569 -0.067,-3.076 -0.141,-4.651 -0.098,-1.968 -1.046,-3.98 -0.935,-5.899 0.148,-2.46 0.658,-5.056 2.337,-6.957 0.038,-0.049 0.074,-0.092 0.117,-0.135 0.985,-1.052 2.381,-1.673 3.279,-2.811 1.101,-1.391 1.077,-3.599 2.055,-5.162 0.812,-1.304 1.986,-2.405 3.407,-2.977 0.013,-0.006 0.025,-0.012 0.038,-0.012 0.651,-0.258 1.334,-0.394 2.023,-0.437 0.566,-0.036 1.132,-0.018 1.692,0.049 0.818,0.093 1.759,0.585 2.583,0.456 0.874,-0.136 1.797,-0.806 2.676,-1.052 1.661,-0.474 3.414,-0.609 5.124,-0.375 0.345,0.043 0.689,0.104 1.027,0.178 0.363,0.08 0.72,0.178 1.077,0.295 1.489,0.505 2.873,1.36 3.746,2.645 0.425,0.628 0.726,1.409 1.323,1.901 0.91,0.75 2.196,0.744 3.063,1.642 0.504,0.53 0.806,1.218 0.997,1.926 0.153,0.553 0.246,1.138 0.178,1.704 -0.055,0.461 -0.215,0.916 -0.148,1.378 0.068,0.473 0.419,0.707 0.843,0.861 0.431,0.16 0.929,0.233 1.286,0.399 1.126,0.518 1.888,1.667 2.134,2.886 0.117,0.572 0.136,1.156 0.068,1.74 -0.068,0.653 -0.234,1.298 -0.462,1.914 -0.381,1.033 -0.805,1.993 -0.485,3.1 0.092,0.314 0.209,0.603 0.326,0.886 0.289,0.707 0.584,1.378 0.498,2.233 -0.105,0.971 -0.252,1.156 0.468,1.931 0.799,0.861 1.624,1.637 1.876,2.83 C 0.105,-1.421 0.179,-0.621 0,0"
             style="fill:#072d32;fill-opacity:1;fill-rule:nonzero;stroke:none"
             id="path376" />
        </g>
        <g
           id="g378"
           transform="translate(142.8024,279.8068)">
          <path
             d="m 0,0 c 0.008,0.008 0.017,0.025 0.017,0.034 0.27,0.718 0.65,1.411 1.14,2.053 0.195,0.262 0.406,0.524 0.609,0.768 0.616,0.77 1.258,1.555 1.613,2.519 0.6,1.647 0.516,3.463 0.44,5.212 -0.102,2.121 -0.203,4.309 0.912,6.202 0.98,1.672 2.628,2.509 4.225,3.32 1.427,0.726 2.906,1.47 3.877,2.813 0.904,1.251 1.057,2.83 1.2,4.369 0.068,0.701 0.144,1.436 0.287,2.103 0.508,2.34 1.572,4.461 3.262,6.489 1.867,2.239 3.633,4.03 5.407,5.466 0.033,0.026 0.059,0.05 0.093,0.076 L 22.786,41.382 C 21.045,39.954 19.305,38.188 17.463,35.983 15.757,33.93 14.684,31.792 14.168,29.427 14.025,28.751 13.949,28.016 13.881,27.306 13.737,25.794 13.585,24.231 12.707,23.006 11.752,21.705 10.367,20.995 8.888,20.243 7.274,19.423 5.602,18.579 4.596,16.864 3.464,14.929 3.565,12.715 3.667,10.578 3.743,8.837 3.827,7.046 3.236,5.433 2.889,4.495 2.256,3.709 1.647,2.957 1.436,2.704 1.225,2.442 1.031,2.18 0.541,1.538 0.161,0.836 -0.11,0.127 Z m 10.949,-11.473 c 0,0.008 -0.008,0.016 -0.008,0.025 -0.896,2.425 -0.972,4.393 -0.245,6.379 0.27,0.743 0.718,1.402 1.149,2.045 0.355,0.523 0.727,1.064 0.988,1.647 0.98,2.163 0.719,4.503 0.474,6.767 -0.169,1.572 -0.347,3.202 -0.119,4.774 0.355,2.467 1.268,4.368 2.704,5.66 0.693,0.617 1.597,1.014 2.467,1.403 0.997,0.448 2.036,0.904 2.737,1.681 1.884,2.07 1.884,5.449 1.876,8.728 0,1.85 0,3.591 0.338,5.018 0.938,3.996 2.416,6.32 5.12,8.027 0.017,0.008 0.025,0.016 0.042,0.025 l -0.178,0.067 C 25.591,39.05 24.096,36.701 23.158,32.688 22.82,31.243 22.82,29.495 22.82,27.636 22.828,24.392 22.828,21.037 20.986,19.01 20.302,18.258 19.28,17.81 18.3,17.371 17.413,16.974 16.5,16.568 15.791,15.943 14.32,14.625 13.391,12.69 13.036,10.189 12.808,8.592 12.985,6.953 13.155,5.374 13.408,3.024 13.653,0.811 12.69,-1.318 12.437,-1.884 12.073,-2.425 11.718,-2.94 11.279,-3.582 10.823,-4.25 10.552,-5.019 9.817,-7.029 9.885,-9.015 10.78,-11.465 Z m 14.186,-0.423 c -0.009,0 -0.026,0.017 -0.034,0.025 -1.538,1.657 -2.526,4.309 -2.796,7.461 -0.229,2.78 0.118,5.804 0.946,8.102 0.955,2.67 2.813,4.216 4.604,5.711 2.383,1.986 4.63,3.862 4.377,8.06 -0.085,1.538 -0.304,2.983 -0.524,4.385 -0.473,3.143 -0.93,6.109 0.169,9.623 1.225,3.921 2.839,6.388 5.078,7.757 0.008,0.008 0.025,0.016 0.033,0.016 l -0.143,0.102 c -2.264,-1.403 -3.887,-3.887 -5.112,-7.832 -1.115,-3.549 -0.659,-6.531 -0.177,-9.691 0.219,-1.394 0.439,-2.839 0.524,-4.368 0.245,-4.123 -1.977,-5.973 -4.318,-7.934 -1.816,-1.512 -3.683,-3.075 -4.655,-5.778 -0.836,-2.315 -1.191,-5.365 -0.955,-8.161 0.271,-3.177 1.268,-5.855 2.814,-7.537 z"
             style="fill:#005053;fill-opacity:1;fill-rule:nonzero;stroke:none"
             id="path380" />
        </g>
        <g
           id="g382"
           transform="translate(190.9899,297.1369)">
          <path
             d="m 0,0 -9.455,-12.149 -0.196,-0.025 c -0.068,0.653 -0.234,1.298 -0.462,1.913 -0.381,1.034 -0.805,1.993 -0.486,3.1 0.093,0.314 0.209,0.603 0.327,0.887 l 0.516,-0.099 c 1.366,0.788 2.491,1.858 3.353,2.867 1.125,1.316 1.778,2.971 1.87,4.681 z"
             style="fill:#de7038;fill-opacity:1;fill-rule:nonzero;stroke:none"
             id="path384" />
        </g>
        <g
           id="g386"
           transform="translate(183.4791,311.8137)">
          <path
             d="m 0,0 c 0.763,-1.803 1.372,-3.669 1.905,-5.555 0.537,-1.885 0.954,-3.808 1.233,-5.757 0.145,-0.958 0.217,-2.009 0.044,-3.002 -0.167,-0.998 -0.513,-1.969 -1.047,-2.823 -0.529,-0.866 -1.229,-1.584 -1.952,-2.249 -0.745,-0.647 -1.546,-1.234 -2.428,-1.664 0.81,0.55 1.558,1.174 2.219,1.882 0.67,0.697 1.309,1.433 1.751,2.268 0.919,1.675 1.158,3.613 0.804,5.504 C 2.27,-9.475 1.874,-7.57 1.448,-5.671 1.235,-4.72 1.003,-3.774 0.754,-2.831 0.524,-1.882 0.258,-0.944 0,0"
             style="fill:#ac4502;fill-opacity:1;fill-rule:nonzero;stroke:none"
             id="path388" />
        </g>
        <g
           id="g390"
           transform="translate(182.0255,246.6149)">
          <path
             d="m 0,0 c -0.731,3.126 -1.186,6.284 -1.573,9.45 -0.36,3.169 -0.65,6.347 -0.662,9.557 0.734,-3.126 1.188,-6.283 1.573,-9.45 C -0.304,6.388 -0.014,3.21 0,0"
             style="fill:#d02362;fill-opacity:1;fill-rule:nonzero;stroke:none"
             id="path392" />
        </g>
        <g
           id="g394"
           transform="translate(305.7975,322.4431)">
          <path
             d="m 0,0 v -88.315 c 0,-3.078 -2.507,-5.576 -5.583,-5.576 h -79.096 c -3.076,0 -5.574,2.498 -5.574,5.576 V 0 c 0,3.076 2.498,5.574 5.574,5.574 H -5.583 C -2.507,5.574 0,3.076 0,0"
             style="fill:#0056cc;fill-opacity:1;fill-rule:nonzero;stroke:none"
             id="path396" />
        </g>
        <g
           id="g398"
           transform="translate(234.2433,300.509)">
          <path
             d="M 0,0 0.667,1.497 C 1.302,1.077 2.205,0.79 3.035,0.79 c 0.841,0 1.169,0.235 1.169,0.584 0,1.138 -4.081,0.308 -4.081,2.974 0,1.281 1.046,2.327 3.179,2.327 0.932,0 1.897,-0.215 2.604,-0.625 L 5.281,4.542 C 4.594,4.912 3.917,5.096 3.291,5.096 2.44,5.096 2.133,4.809 2.133,4.45 2.133,3.353 6.203,4.173 6.203,1.528 6.203,0.277 5.158,-0.79 3.025,-0.79 1.846,-0.79 0.677,-0.472 0,0"
             style="fill:#ffffff;fill-opacity:1;fill-rule:nonzero;stroke:none"
             id="path400" />
        </g>
        <g
           id="g402"
           transform="translate(242.5265,303.0622)">
          <path
             d="M 0,0 V 3.979 H 2.03 V 0.062 c 0,-1.231 0.513,-1.723 1.365,-1.723 0.839,0 1.353,0.492 1.353,1.723 V 3.979 H 6.747 V 0 C 6.747,-2.143 5.496,-3.343 3.373,-3.343 1.251,-3.343 0,-2.143 0,0"
             style="fill:#ffffff;fill-opacity:1;fill-rule:nonzero;stroke:none"
             id="path404" />
        </g>
        <g
           id="g406"
           transform="translate(258.6852,307.0407)">
          <path
             d="M 0,0 V -7.178 H -1.672 L -4.84,-3.353 V -7.178 H -6.829 V 0 h 1.671 l 3.169,-3.825 V 0 Z"
             style="fill:#ffffff;fill-opacity:1;fill-rule:nonzero;stroke:none"
             id="path408" />
        </g>
        <g
           id="g410"
           transform="translate(264.6403,301.4831)">
          <path
             d="M 0,0 C 1.22,0 2.04,0.728 2.04,1.969 2.04,3.209 1.22,3.938 0,3.938 H -1.282 V 0 Z m -3.313,5.558 h 3.395 c 2.379,0 4.009,-1.385 4.009,-3.589 0,-2.205 -1.63,-3.589 -4.009,-3.589 h -3.395 z"
             style="fill:#ffffff;fill-opacity:1;fill-rule:nonzero;stroke:none"
             id="path412" />
        </g>
        <g
           id="g414"
           transform="translate(275.1168,302.7546)">
          <path
             d="M 0,0 -0.922,2.297 -1.846,0 Z m 0.596,-1.497 h -3.035 l -0.565,-1.395 h -2.071 l 3.169,7.178 H 0.093 L 3.271,-2.892 H 1.159 Z"
             style="fill:#ffffff;fill-opacity:1;fill-rule:nonzero;stroke:none"
             id="path416" />
        </g>
        <g
           id="g418"
           transform="translate(283.5641,302.4367)">
          <path
             d="m 0,0 v -2.574 h -2.029 v 2.605 l -2.739,4.573 h 2.143 l 1.703,-2.851 1.701,2.851 h 1.969 z"
             style="fill:#ffffff;fill-opacity:1;fill-rule:nonzero;stroke:none"
             id="path420" />
        </g>
        <g
           id="g422"
           transform="translate(241.2814,298.0705)">
          <path
             d="m 0,0 v -6.75 h -0.694 v 6.133 H -2.285 V 0 Z"
             style="fill:#ffffff;fill-opacity:1;fill-rule:nonzero;stroke:none"
             id="path424" />
        </g>
        <g
           id="g426"
           transform="translate(248.6271,293.0944)">
          <path
             d="M 0,0 H -1.35 V -1.774 H -2.044 V 0 h -3.81 v 0.501 l 3.579,4.475 h 0.771 L -4.957,0.617 h 2.932 V 2.18 H -1.35 V 0.617 H 0 Z"
             style="fill:#ffffff;fill-opacity:1;fill-rule:nonzero;stroke:none"
             id="path428" />
        </g>
        <g
           id="g430"
           transform="translate(249.3263,291.8024)">
          <path
             d="m 0,0 c 0,0.299 0.231,0.521 0.512,0.521 0.279,0 0.52,-0.222 0.52,-0.521 0,-0.299 -0.241,-0.531 -0.52,-0.531 C 0.231,-0.531 0,-0.299 0,0 m 0,4.108 c 0,0.299 0.231,0.521 0.512,0.521 0.279,0 0.52,-0.222 0.52,-0.521 0,-0.299 -0.241,-0.53 -0.52,-0.53 C 0.231,3.578 0,3.809 0,4.108"
             style="fill:#ffffff;fill-opacity:1;fill-rule:nonzero;stroke:none"
             id="path432" />
        </g>
        <g
           id="g434"
           transform="translate(255.8258,293.2585)">
          <path
             d="m 0,0 c 0,-1.128 -0.82,-1.996 -2.45,-1.996 -0.974,0 -1.909,0.337 -2.43,0.868 l 0.337,0.549 c 0.435,-0.453 1.216,-0.781 2.093,-0.781 1.119,0 1.736,0.521 1.736,1.36 0,0.81 -0.569,1.34 -1.823,1.34 h -0.482 v 0.512 l 1.871,2.343 h -3.453 v 0.617 h 4.34 V 4.32 L -2.17,1.919 C -0.724,1.842 0,1.08 0,0"
             style="fill:#ffffff;fill-opacity:1;fill-rule:nonzero;stroke:none"
             id="path436" />
        </g>
        <g
           id="g438"
           transform="translate(261.4723,294.695)">
          <path
             d="m 0,0 c 0,1.804 -0.811,2.797 -1.986,2.797 -1.177,0 -1.988,-0.993 -1.988,-2.797 0,-1.803 0.811,-2.796 1.988,-2.796 C -0.811,-2.796 0,-1.803 0,0 m -4.678,0 c 0,2.151 1.129,3.434 2.692,3.434 1.561,0 2.7,-1.283 2.7,-3.434 0,-2.15 -1.139,-3.433 -2.7,-3.433 -1.563,0 -2.692,1.283 -2.692,3.433"
             style="fill:#ffffff;fill-opacity:1;fill-rule:nonzero;stroke:none"
             id="path440" />
        </g>
        <g
           id="g442"
           transform="translate(270.8688,295.756)">
          <path
             d="m 0,0 c 0,1.08 -0.714,1.697 -2.064,1.697 h -1.793 v -3.375 h 1.793 C -0.714,-1.678 0,-1.061 0,0 m 0.713,0 c 0,-1.437 -1.041,-2.305 -2.758,-2.305 h -1.812 v -2.131 h -0.714 v 6.75 h 2.526 C -0.328,2.314 0.713,1.447 0.713,0"
             style="fill:#ffffff;fill-opacity:1;fill-rule:nonzero;stroke:none"
             id="path444" />
        </g>
        <g
           id="g446"
           transform="translate(280.1305,298.0705)">
          <path
             d="m 0,0 v -6.75 h -0.685 v 5.4 l -2.652,-4.542 h -0.337 l -2.652,4.513 V -6.75 H -7.011 V 0 h 0.588 L -3.491,-5.005 -0.588,0 Z"
             style="fill:#ffffff;fill-opacity:1;fill-rule:nonzero;stroke:none"
             id="path448" />
        </g>
        <g
           id="g450"
           transform="translate(283.8844,240.1735)">
          <path
             d="m 0,0 h -46.427 c -4.121,0 -7.462,3.341 -7.462,7.462 0,4.121 3.341,7.462 7.462,7.462 H 0 c 4.121,0 7.462,-3.341 7.462,-7.462 C 7.462,3.341 4.121,0 0,0"
             style="fill:#ff6548;fill-opacity:1;fill-rule:nonzero;stroke:none"
             id="path452" />
        </g>
        <g
           id="g454"
           transform="translate(242.7589,247.0143)">
          <path
             d="M 0,0 C 0,0.559 -0.411,0.804 -1.166,0.804 H -2.681 V -0.81 h 1.515 C -0.411,-0.81 0,-0.564 0,0 M -2.681,2.736 V 1.178 h 1.369 c 0.686,0 1.084,0.263 1.084,0.779 0,0.515 -0.398,0.779 -1.084,0.779 z m 3.135,-2.772 c 0,-0.731 -0.54,-1.148 -1.613,-1.148 H -3.135 V 3.11 h 1.853 c 0.957,0 1.509,-0.404 1.509,-1.104 0,-0.49 -0.264,-0.816 -0.657,-0.975 0.552,-0.123 0.884,-0.485 0.884,-1.067"
             style="fill:#ffffff;fill-opacity:1;fill-rule:nonzero;stroke:none"
             id="path456" />
        </g>
        <g
           id="g458"
           transform="translate(248.6476,247.9772)">
          <path
             d="m 0,0 c 0,1.025 -0.768,1.779 -1.798,1.779 -1.036,0 -1.809,-0.754 -1.809,-1.779 0,-1.024 0.773,-1.778 1.809,-1.778 C -0.768,-1.778 0,-1.024 0,0 m -4.055,0 c 0,1.252 0.957,2.184 2.257,2.184 1.288,0 2.251,-0.926 2.251,-2.184 0,-1.257 -0.963,-2.184 -2.251,-2.184 -1.3,0 -2.257,0.933 -2.257,2.184"
             style="fill:#ffffff;fill-opacity:1;fill-rule:nonzero;stroke:none"
             id="path460" />
        </g>
        <g
           id="g462"
           transform="translate(254.5172,247.9772)">
          <path
             d="m 0,0 c 0,1.025 -0.768,1.779 -1.798,1.779 -1.036,0 -1.81,-0.754 -1.81,-1.779 0,-1.024 0.774,-1.778 1.81,-1.778 C -0.768,-1.778 0,-1.024 0,0 m -4.055,0 c 0,1.252 0.957,2.184 2.257,2.184 1.288,0 2.251,-0.926 2.251,-2.184 0,-1.257 -0.963,-2.184 -2.251,-2.184 -1.3,0 -2.257,0.933 -2.257,2.184"
             style="fill:#ffffff;fill-opacity:1;fill-rule:nonzero;stroke:none"
             id="path464" />
        </g>
        <g
           id="g466"
           transform="translate(258.0436,247.8493)">
          <path
             d="m 0,0 -0.877,-0.89 v -1.129 h -0.454 v 4.294 h 0.454 V -0.319 L 1.644,2.275 H 2.165 L 0.307,0.331 2.294,-2.019 H 1.755 Z"
             style="fill:#ffffff;fill-opacity:1;fill-rule:nonzero;stroke:none"
             id="path468" />
        </g>
        <g
           id="g470"
           transform="translate(267.7135,250.1247)">
          <path
             d="m 0,0 v -4.294 h -0.375 l -2.76,3.484 V -4.294 H -3.589 V 0 h 0.374 l 2.767,-3.484 V 0 Z"
             style="fill:#ffffff;fill-opacity:1;fill-rule:nonzero;stroke:none"
             id="path472" />
        </g>
        <g
           id="g474"
           transform="translate(273.5094,247.9772)">
          <path
             d="m 0,0 c 0,1.025 -0.768,1.779 -1.798,1.779 -1.036,0 -1.809,-0.754 -1.809,-1.779 0,-1.024 0.773,-1.778 1.809,-1.778 C -0.768,-1.778 0,-1.024 0,0 m -4.055,0 c 0,1.252 0.957,2.184 2.257,2.184 1.288,0 2.251,-0.926 2.251,-2.184 0,-1.257 -0.963,-2.184 -2.251,-2.184 -1.3,0 -2.257,0.933 -2.257,2.184"
             style="fill:#ffffff;fill-opacity:1;fill-rule:nonzero;stroke:none"
             id="path476" />
        </g>
        <g
           id="g478"
           transform="translate(281.4703,250.1247)">
          <path
             d="m 0,0 -1.447,-4.294 h -0.479 l -1.258,3.662 -1.263,-3.662 H -4.919 L -6.367,0 H -5.9 L -4.661,-3.692 -3.38,0 h 0.424 L -1.692,-3.711 -0.436,0 Z"
             style="fill:#ffffff;fill-opacity:1;fill-rule:nonzero;stroke:none"
             id="path480" />
        </g>
        <g
           id="g482"
           transform="translate(243.7238,263.4059)">
          <path
             d="m 0,0 h -14.136 c -2.489,0 -4.507,2.018 -4.507,4.507 v 14.136 c 0,2.49 2.018,4.508 4.507,4.508 H 0 c 2.49,0 4.508,-2.018 4.508,-4.508 V 4.507 C 4.508,2.018 2.49,0 0,0"
             style="fill:#0076ff;fill-opacity:1;fill-rule:nonzero;stroke:none"
             id="path484" />
        </g>
        <g
           id="g486"
           transform="translate(236.6559,275.3464)">
          <path
             d="m 0,0 c -1.543,0 -2.794,1.251 -2.794,2.794 0,1.543 1.251,2.794 2.794,2.794 1.543,0 2.794,-1.251 2.794,-2.794 C 2.794,1.251 1.543,0 0,0 M 0.215,8.554 C -2.612,8.657 -5.138,6.589 -5.667,3.81 -5.838,2.914 -5.77,2.061 -5.553,1.27 -4.699,-1.229 -3.06,-4.422 0,-9.288 2.794,-4.37 5.109,-1.245 5.553,1.27 c 0.134,0.486 0.211,0.996 0.211,1.524 0,3.111 -2.466,5.646 -5.549,5.76"
             style="fill:#ff6548;fill-opacity:1;fill-rule:nonzero;stroke:none"
             id="path488" />
        </g>
        <g
           id="g490"
           transform="translate(294.9352,278.9001)">
          <path
             d="m 0,0 h -36.289 c -0.733,0 -1.327,0.594 -1.327,1.327 0,0.732 0.594,1.326 1.327,1.326 H 0 C 0.732,2.653 1.326,2.059 1.326,1.327 1.326,0.594 0.732,0 0,0"
             style="fill:#ffffff;fill-opacity:1;fill-rule:nonzero;stroke:none"
             id="path492" />
        </g>
        <g
           id="g494"
           transform="translate(294.9352,273.655)">
          <path
             d="m 0,0 h -36.289 c -0.733,0 -1.327,0.594 -1.327,1.326 0,0.733 0.594,1.327 1.327,1.327 H 0 C 0.732,2.653 1.326,2.059 1.326,1.326 1.326,0.594 0.732,0 0,0"
             style="fill:#ffffff;fill-opacity:1;fill-rule:nonzero;stroke:none"
             id="path496" />
        </g>
        <g
           id="g498"
           transform="translate(284.6246,268.4094)">
          <path
             d="m 0,0 h -25.979 c -0.733,0 -1.327,0.594 -1.327,1.327 0,0.732 0.594,1.326 1.327,1.326 H 0 C 0.733,2.653 1.327,2.059 1.327,1.327 1.327,0.594 0.733,0 0,0"
             style="fill:#ffffff;fill-opacity:1;fill-rule:nonzero;stroke:none"
             id="path500" />
        </g>
        <g
           id="g502"
           transform="translate(305.7975,322.4431)">
          <path
             d="M 0,0 V -6.649 H -90.253 V 0 c 0,3.076 2.498,5.574 5.574,5.574 H -5.583 C -2.507,5.574 0,3.076 0,0"
             style="fill:#ff779f;fill-opacity:1;fill-rule:nonzero;stroke:none"
             id="path504" />
        </g>
        <g
           id="g506"
           transform="translate(238.112,319.4875)">
          <path
             d="m 0,0 h -14.799 c -1.241,0 -2.246,1.005 -2.246,2.246 0,1.24 1.005,2.245 2.246,2.245 H 0 C 1.24,4.491 2.246,3.486 2.246,2.246 2.246,1.005 1.24,0 0,0"
             style="fill:#ffffff;fill-opacity:1;fill-rule:nonzero;stroke:none"
             id="path508" />
        </g>
        <g
           id="g510"
           transform="translate(416.5074,84.7175)">
          <path
             d="m 0,0 c 0,-6.229 -28.594,-11.278 -63.866,-11.278 -35.272,0 -63.865,5.049 -63.865,11.278 0,6.229 28.593,11.279 63.865,11.279 C -28.594,11.279 0,6.229 0,0"
             style="fill:#77d9e9;fill-opacity:1;fill-rule:nonzero;stroke:none"
             id="path512" />
        </g>
        <g
           id="g514"
           transform="translate(372.4537,216.9069)">
          <path
             d="M 0,0 C 0.806,-3.396 1.242,-7.179 0.634,-10.648 -7.203,-14.303 -6.841,0 -6.841,0 -3.968,-1.102 0,0 0,0"
             style="fill:#003fa4;fill-opacity:1;fill-rule:nonzero;stroke:none"
             id="path516" />
        </g>
        <g
           id="g518"
           transform="translate(351.0719,215.2888)">
          <path
             d="m 0,0 c 0,0 2.202,-13.97 -8.126,-14.579 0,0 -10.082,-0.621 -8.126,14.05 0,0 7.474,-2.128 16.252,0.529"
             style="fill:#003fa4;fill-opacity:1;fill-rule:nonzero;stroke:none"
             id="path520" />
        </g>
        <g
           id="g522"
           transform="translate(357.1676,203.2809)">
          <path
             d="m 0,0 -1.71,-26.192 -3.697,12.248 v 0.006 c 0.184,1.87 0.363,3.395 0.486,4.348 0.086,0.714 0.375,1.378 0.806,1.956 C -2.307,-5.21 -0.979,-2.583 0,0"
             style="fill:#003fa4;fill-opacity:1;fill-rule:nonzero;stroke:none"
             id="path524" />
        </g>
        <g
           id="g526"
           transform="translate(371.7643,233.2751)">
          <path
             d="m 0,0 c 3.273,4.447 4.497,13.49 4.497,13.49 0.388,3.088 1.883,6.127 3.358,8.495 0.499,0.787 0.998,1.507 1.447,2.122 L 5.37,36.81 l 1.723,2.116 3.175,3.894 9.669,-14.253 c 1.649,-2.436 1.938,-5.548 0.756,-8.249 C 18.547,15.44 14.942,7.529 11.891,2.227 10.661,0.086 9.08,-1.827 7.234,-3.463 6.822,-3.832 6.49,-4.281 6.25,-4.779 5.808,-5.684 4.934,-7.283 3.58,-8.667 l -6.717,2.86 -0.006,0.006 -3.531,-0.375 c -0.136,0.006 -0.27,0.013 -0.406,0.019 -0.528,0.092 -0.972,0.486 -1.113,1.021 -0.209,0.756 0.24,1.537 0.997,1.74 l 2.448,0.671 1.218,0.332 c 0.854,0.08 1.63,0.468 2.331,1.071 h 0.006 C -0.769,-0.953 -0.368,-0.511 0,0"
             style="fill:#ffb47e;fill-opacity:1;fill-rule:nonzero;stroke:none"
             id="path528" />
        </g>
        <g
           id="g530"
           transform="translate(342.9459,200.7097)">
          <path
             d="M 0,0 C 10.328,0.609 8.126,14.579 8.126,14.579 -0.652,11.922 -8.126,14.05 -8.126,14.05 -10.082,-0.621 0,0 0,0 m 13.17,26.291 c 3.101,0.16 6.047,0.222 8.568,0.117 0.08,-0.018 0.166,-0.024 0.253,-0.024 0.055,0 0.105,0 0.154,0.006 l 3.531,0.375 0.006,-0.006 c 0.067,-0.136 1.15,-2.245 2.263,-5.346 0.554,-1.538 1.119,-3.315 1.563,-5.216 0,0 -3.968,-1.101 -6.841,0 0,0 -0.362,-14.302 7.475,-10.648 C 30.03,4.922 29.89,4.3 29.705,3.691 29.538,3.144 29.521,2.565 29.612,2 c 0.892,-5.53 5.475,-33.673 8.428,-47.059 0.258,-1.174 0.431,-2.362 0.523,-3.561 l 3.857,-51.044 c 0,0 -0.326,-0.092 -0.88,-0.228 -2.356,-0.578 -8.883,-1.888 -12.549,0.228 l -13.134,64.478 c -0.19,0.942 -0.429,1.876 -0.707,2.799 l -2.638,8.766 1.71,26.192 C 13.243,-0.012 11.915,-2.639 10.106,-5.062 9.676,-5.641 9.387,-6.305 9.301,-7.019 9.178,-7.972 8.999,-9.497 8.814,-11.367 v -0.006 c -0.362,-3.648 -0.75,-8.612 -0.75,-13.22 l -2.516,-50.632 0.689,-26.457 c 0,0 -0.264,-0.08 -0.725,-0.203 -2.4,-0.634 -10.138,-2.461 -13.891,-0.559 -0.412,0.203 -0.781,0.461 -1.082,0.762 l -2.424,61.551 c -0.061,1.526 -0.24,3.032 -0.541,4.527 -1.421,7.019 -5.739,29.829 -5.998,48.854 -0.049,3.261 0.031,6.41 0.259,9.351 l 0.024,0.203 0.573,-0.062 c 0.867,-0.093 1.74,0.073 2.503,0.48 0,0 0.006,0 0.012,0.006 0.222,0.031 2.793,0.424 6.607,0.929 5.677,0.75 14.111,1.74 21.616,2.134"
             style="fill:#0076ff;fill-opacity:1;fill-rule:nonzero;stroke:none"
             id="path532" />
        </g>
        <g
           id="g534"
           transform="translate(384.486,100.8122)">
          <path
             d="m 0,0 c 0,0 0.522,-4.195 0.431,-8.44 -0.037,-1.495 -1.016,-2.792 -2.449,-3.199 -1.243,-0.356 -2.854,-0.628 -4.54,-0.399 -0.676,0.092 -1.322,0.35 -1.87,0.763 -1.126,0.848 -3.543,2.478 -5.431,2.478 0,0 -5.715,-0.19 -8.188,4.134 -0.233,0.418 -0.399,0.88 -0.498,1.353 -0.061,0.327 -0.129,0.739 -0.142,1.132 -0.018,0.689 0.388,1.317 1.028,1.569 1.464,0.596 5.007,1.722 9.11,0.842 C -8.883,-1.883 -2.356,-0.572 0,0.006 Z"
             style="fill:#003474;fill-opacity:1;fill-rule:nonzero;stroke:none"
             id="path536" />
        </g>
        <g
           id="g538"
           transform="translate(377.1344,270.0851)">
          <path
             d="m 0,0 3.932,-12.703 c -0.45,-0.615 -0.948,-1.335 -1.447,-2.122 l -0.134,0.062 -6.454,9.731 z"
             style="fill:#ff8a3e;fill-opacity:1;fill-rule:nonzero;stroke:none"
             id="path540" />
        </g>
        <g
           id="g542"
           transform="translate(368.6276,227.4684)">
          <path
             d="M 0,0 6.717,-2.86 C 5.579,-4.029 4.103,-5.032 2.264,-5.346 1.15,-2.245 0.067,-0.136 0,0"
             style="fill:#ff8a3e;fill-opacity:1;fill-rule:nonzero;stroke:none"
             id="path544" />
        </g>
        <g
           id="g546"
           transform="translate(349.5094,308.968)">
          <path
             d="m 0,0 c 1.002,0.086 1.87,0.412 2.559,0.781 0.154,0.086 0.307,0.178 0.449,0.283 0,0 1.359,-3.826 1.888,-5.216 l 0.006,-0.08 C 4.558,-4.25 4.207,-4.3 3.869,-4.374 l -9.559,-2.073 -5.488,-1.187 -0.061,0.277 c -0.049,0.351 -0.105,0.689 -0.172,1.003 h 0.006 l 1.526,9.264 -0.142,-0.376 c -0.443,-1.205 -1.42,-2.14 -2.651,-2.528 l -3.02,-0.947 -1.366,-0.425 c -4.503,-0.892 -4.546,2.627 -4.546,2.627 l 0.584,7.277 0.56,7.037 0.074,0.917 c 0.16,2.029 0.547,4.035 1.138,5.985 l 0.751,2.46 0.012,0.025 c 0.301,-0.074 0.671,-0.092 1.101,-0.025 0,0 3.002,1.255 3.002,-0.356 l -1.784,-4.602 c -0.216,-0.559 -0.16,-1.193 0.153,-1.704 l 0.72,-1.18 c 0.259,-0.419 0.406,-0.905 0.425,-1.397 l 0.067,-1.864 c 0.013,-0.424 0.185,-0.812 0.455,-1.101 0.278,-0.295 0.653,-0.486 1.071,-0.529 0.837,-0.086 1.612,0.455 1.821,1.267 l 0.074,0.296 c 0.141,0.541 0.664,0.892 1.218,0.805 1.039,-0.166 2.54,-0.762 2.571,-2.86 h 0.006 C -7.345,11.337 -6.772,9.787 -6.49,9 -6.379,8.698 -6.33,8.378 -6.317,8.058 -6.256,6.083 -5.825,4.454 -5.377,3.272 -5.137,2.639 -4.786,2.073 -4.331,1.593 -3.537,0.726 -2.448,0.147 -1.236,0.012 -0.806,-0.037 -0.394,-0.037 0,0"
             style="fill:#ffb47e;fill-opacity:1;fill-rule:nonzero;stroke:none"
             id="path548" />
        </g>
        <g
           id="g550"
           transform="translate(348.4576,98.8249)">
          <path
             d="m 0,0 c 3.008,-5.167 1.679,-12.801 1.211,-14.991 -0.092,-0.424 -0.325,-0.812 -0.683,-1.071 -2.128,-1.555 -5.677,-1.537 -7.762,-1.359 -0.929,0.08 -1.815,0.339 -2.67,0.69 -3.752,1.562 -8.938,0.904 -8.938,0.904 -9.959,-1.348 -15.114,1.587 -16.811,2.842 -0.456,0.344 -0.714,0.91 -0.61,1.469 0.45,2.344 3.556,2.825 3.556,2.825 10.162,1.328 18.816,8.131 18.816,8.131 C -10.138,-2.461 -2.399,-0.634 0,0"
             style="fill:#003474;fill-opacity:1;fill-rule:nonzero;stroke:none"
             id="path552" />
        </g>
        <g
           id="g554"
           transform="translate(339.6305,311.8776)">
          <path
             d="m 0,0 -1.526,-9.264 h -0.006 c -1.028,4.89 -4.281,5.413 -4.281,5.413 l 3.02,0.947 c 1.231,0.388 2.208,1.323 2.651,2.529 z"
             style="fill:#ff8a3e;fill-opacity:1;fill-rule:nonzero;stroke:none"
             id="path556" />
        </g>
        <g
           id="g558"
           transform="translate(336.0504,229.1052)">
          <path
             d="m 0,0 c 0.375,-0.277 0.627,-0.708 0.67,-1.206 0.006,-0.049 0.006,-0.099 0.006,-0.148 0,-0.849 -0.646,-1.581 -1.513,-1.667 l -1.372,-0.135 c -0.584,1.046 -1.015,2.14 -1.273,3.297 l 2.343,0.184 C -0.714,0.362 -0.314,0.233 0,0"
             style="fill:#ffb47e;fill-opacity:1;fill-rule:nonzero;stroke:none"
             id="path560" />
        </g>
        <g
           id="g562"
           transform="translate(324.8053,223.5134)">
          <path
             d="m 0,0 -0.024,-0.203 -3.845,-7.492 c -1.279,1.303 -2.319,3.05 -3.002,4.38 -0.597,1.156 -0.899,2.435 -0.899,3.739 v 2.658 c 0,0.498 -0.048,0.996 -0.141,1.488 l -4.509,19.536 c -1.242,5.377 -0.615,11.012 1.772,15.982 l 1.913,3.993 c 1.403,-0.425 3.322,-0.886 5.826,-1.237 0.565,-0.086 1.162,-0.16 1.79,-0.228 L 1.15,29.766 0.129,25.983 c -0.295,-1.088 -0.455,-2.202 -0.474,-3.328 -0.024,-1.55 -0.03,-3.936 0.105,-6.422 0.203,-4.004 0.757,-8.254 2.14,-9.639 0,0 0.622,-1.082 3.114,-1.082 l 2.749,0.22 C 8.021,4.576 8.452,3.481 9.036,2.436 L 7.166,2.251 C 6.638,2.195 6.12,2.042 5.646,1.79 L 3.088,0.424 C 3.082,0.418 3.075,0.418 3.075,0.418 2.313,0.012 1.439,-0.154 0.572,-0.062 Z"
             style="fill:#ffb47e;fill-opacity:1;fill-rule:nonzero;stroke:none"
             id="path564" />
        </g>
        <g
           id="g566"
           transform="translate(329.3268,265.7668)">
          <path
             d="m 0,0 v -0.019 l -3.371,-12.468 -2.27,12.85 C -3.986,0.185 -2.11,0.055 0,0"
             style="fill:#ff8a3e;fill-opacity:1;fill-rule:nonzero;stroke:none"
             id="path568" />
        </g>
        <g
           id="g570"
           transform="translate(329.0494,324.5432)">
          <path
             d="m 0,0 -0.56,-7.037 -2.669,0.664 z"
             style="fill:#ff8a3e;fill-opacity:1;fill-rule:nonzero;stroke:none"
             id="path572" />
        </g>
        <g
           id="g574"
           transform="translate(320.9362,215.8181)">
          <path
             d="M 0,0 3.845,7.492 C 3.617,4.552 3.537,1.402 3.586,-1.858 H 3.574 C 2.264,-1.858 1.052,-1.083 0,0"
             style="fill:#ff8a3e;fill-opacity:1;fill-rule:nonzero;stroke:none"
             id="path576" />
        </g>
        <g
           id="g578"
           transform="translate(363.5709,228.1393)">
          <path
             d="M 0,0 C -0.209,0.756 0.24,1.537 0.997,1.74 L 3.445,2.411 C -1.956,2.773 -6.668,2.848 -10.673,2.756 -21.591,2.503 -27.281,1.033 -27.521,0.966 c 0.375,-0.278 0.627,-0.708 0.67,-1.206 0.006,-0.049 0.006,-0.099 0.006,-0.148 0,-0.849 -0.645,-1.581 -1.512,-1.667 L -29.729,-2.19 -31.6,-2.375 c -0.528,-0.056 -1.046,-0.209 -1.519,-0.461 l -2.559,-1.366 c 0.222,0.031 2.793,0.425 6.607,0.93 5.677,0.75 14.111,1.74 21.616,2.133 3.101,0.16 6.047,0.222 8.568,0.118 C 0.585,-0.93 0.142,-0.535 0,0"
             style="fill:#dc1414;fill-opacity:1;fill-rule:nonzero;stroke:none"
             id="path580" />
        </g>
        <g
           id="g582"
           transform="translate(382.2155,278.051)">
          <path
             d="m 0,0 -0.787,1.477 c -0.11,-0.142 -1.827,-2.344 -3.832,-4.854 -2.221,-2.787 -4.811,-5.948 -5.937,-7.074 h -0.006 c -0.091,-0.88 -0.214,-1.747 -0.375,-2.614 l -0.479,-2.676 2.232,2.743 4.104,5.032 1.722,2.116 3.174,3.894 C 0.265,-1.402 0.339,-0.627 0,0"
             style="fill:#dc1414;fill-opacity:1;fill-rule:nonzero;stroke:none"
             id="path584" />
        </g>
        <g
           id="g586"
           transform="translate(361.8795,241.364)">
          <path
             d="m 0,0 c -1.482,4.115 0.688,9.443 1.68,13.478 1.562,6.36 2.915,13.65 -1.908,18.94 -4.035,4.417 -9.27,7.406 -14.001,11.042 -3.751,2.885 -5.788,8.686 -5.209,13.336 0.19,1.556 0.744,2.977 1.377,4.361 l -5.487,-1.187 -5.517,-1.193 c -2.117,-0.462 -4.041,-1.563 -5.505,-3.162 l -2.264,-2.461 c -0.406,-0.443 -0.788,-0.898 -1.145,-1.371 1.796,-1.963 4.503,-3.575 5.961,-4.479 6.637,-4.096 14.837,-5.954 20.368,-11.823 5.88,-6.243 6.791,-15.064 4.016,-22.864 -2.301,-6.471 -4.847,-16.35 -1.347,-23.086 4.004,0.092 8.716,0.018 14.118,-0.344 l 1.217,0.332 v 3.382 C 3.476,-5.831 1.273,-3.519 0,0 m 18.048,40.999 c -0.744,0.382 -1.526,0.689 -2.344,0.904 -1.593,0.412 -3.278,0.333 -4.921,0.493 -0.258,0.024 -0.516,0.055 -0.775,0.098 -4.263,0.664 -7.32,1.981 -10.07,5.327 -3.242,3.955 -3.623,9.276 -1.26,13.293 l -1.84,1.169 c -1.064,0.676 -2.275,1.046 -3.506,1.095 -1.268,-1.71 -2.073,-3.961 -2.356,-6.023 -0.726,-5.271 1.329,-10.573 5.118,-14.123 3.887,-3.642 8.335,-3.783 13.047,-5.53 0.436,-0.16 0.885,-0.332 1.335,-0.523 1.249,-0.516 2.509,-1.15 3.525,-1.962 0.688,-0.553 1.248,-1.199 1.716,-1.907 2.005,2.51 3.721,4.712 3.832,4.854 z m -41.725,-8.673 c -1.162,0.492 -2.381,0.799 -3.629,1.039 -2.504,0.48 -5.105,0.671 -7.529,1.446 -3.002,0.966 -6.472,3.076 -8.495,5.924 l -4.367,-10.371 c 0,0 5.142,-1.957 11.583,-3.218 1.747,0.751 3.629,1.354 5.216,1.625 0.725,0.123 1.439,0.153 2.134,0.092 3.894,-0.345 6.982,-3.513 6.84,-7.567 -0.172,-4.97 -2.7,-7.424 -6.44,-10.242 -1.919,-1.445 -3.691,-2.965 -5.056,-4.718 -0.117,-0.756 -0.216,-1.513 -0.296,-2.27 -0.436,-4.152 -0.541,-16.239 -1.458,-15.323 0,0 0.622,-1.082 3.113,-1.082 l 2.749,0.221 c -0.423,1.84 -0.43,3.839 0.032,6.084 0.805,3.906 2.922,6.718 5.486,9.67 2.461,2.83 5.703,4.792 7.481,8.23 1.857,3.58 1.833,8.784 0.203,12.463 -1.434,3.235 -4.239,6.607 -7.567,7.997"
             style="fill:#ff4b4b;fill-opacity:1;fill-rule:nonzero;stroke:none"
             id="path588" />
        </g>
        <g
           id="g590"
           transform="translate(329.8619,288.6682)">
          <path
             d="M 0,0 C -1.458,0.904 -4.165,2.516 -5.961,4.479 -6.994,3.131 -7.855,1.655 -8.514,0.086 l -2.799,-6.655 c 2.024,-2.848 5.494,-4.958 8.496,-5.924 2.423,-0.775 5.025,-0.966 7.529,-1.446 1.248,-0.24 2.467,-0.547 3.629,-1.04 3.328,-1.39 6.133,-4.761 7.566,-7.996 1.63,-3.679 1.655,-8.883 -0.203,-12.463 -1.777,-3.438 -5.019,-5.4 -7.48,-8.23 -2.565,-2.953 -4.681,-5.764 -5.487,-9.67 -0.462,-2.245 -0.455,-4.245 -0.031,-6.084 l 2.344,0.184 c 0.425,0.037 0.824,-0.092 1.138,-0.325 0.24,0.067 5.93,1.537 16.848,1.79 -3.5,6.735 -0.953,16.614 1.348,23.085 2.774,7.801 1.864,16.622 -4.017,22.865 C 14.837,-5.954 6.637,-4.097 0,0 m 42.025,-4.81 c 0.259,-0.043 0.518,-0.074 0.776,-0.099 1.642,-0.159 3.328,-0.08 4.921,-0.492 0.818,-0.215 1.599,-0.522 2.343,-0.904 l -4.669,8.809 c -1.137,2.141 -2.853,3.918 -4.958,5.13 L 30.695,13.81 C 28.333,9.793 28.714,4.472 31.956,0.517 34.706,-2.83 37.763,-4.146 42.025,-4.81 m 3.994,-7.277 c -1.016,0.812 -2.277,1.445 -3.526,1.962 -0.449,0.191 -0.898,0.363 -1.335,0.523 -4.712,1.747 -9.159,1.888 -13.047,5.53 -3.789,3.55 -5.843,8.852 -5.118,14.123 0.283,2.061 1.089,4.313 2.357,6.023 -0.265,0.018 -0.536,0.018 -0.8,-0.007 C 24.205,16.049 23.854,16 23.517,15.926 l -9.56,-2.073 c -0.634,-1.384 -1.187,-2.805 -1.378,-4.361 -0.578,-4.651 1.458,-10.451 5.21,-13.336 4.731,-3.636 9.966,-6.625 14.001,-11.042 4.822,-5.29 3.47,-12.58 1.907,-18.94 -0.991,-4.035 -3.162,-9.363 -1.679,-13.478 1.273,-3.519 3.475,-5.831 6.354,-7.099 v 11.208 c 0,1.686 0.148,3.365 0.449,5.026 l 2.117,11.811 0.479,2.675 c 0.16,0.868 0.283,1.735 0.375,2.615 h 0.006 c 1.126,1.126 3.716,4.287 5.936,7.074 -0.467,0.707 -1.027,1.353 -1.715,1.907 M 10.094,-26.008 c 0.141,4.054 -2.947,7.222 -6.84,7.567 -0.695,0.061 -1.409,0.03 -2.135,-0.093 -1.587,-0.271 -3.469,-0.873 -5.216,-1.624 2.03,-0.406 4.189,-0.732 6.361,-0.91 -0.462,-1.151 -0.77,-1.858 -0.77,-1.858 -0.325,0 -0.645,0 -0.966,0.006 0,0 0.118,-6.33 -1.764,-16.996 -0.062,-0.351 -0.118,-0.702 -0.166,-1.052 1.365,1.753 3.136,3.273 5.055,4.718 3.741,2.817 6.269,5.272 6.441,10.242"
             style="fill:#ff6548;fill-opacity:1;fill-rule:nonzero;stroke:none"
             id="path592" />
        </g>
        <g
           id="g594"
           transform="translate(325.7653,268.5104)">
          <path
             d="m 0,0 c -6.44,1.261 -11.583,3.217 -11.583,3.217 l -0.708,-1.685 c -0.295,-0.701 0.031,-1.508 0.738,-1.797 0.474,-0.19 1.089,-0.418 1.858,-0.646 v -0.006 c 1.403,-0.424 3.322,-0.885 5.826,-1.236 0.565,-0.086 1.162,-0.16 1.79,-0.228 1.654,-0.178 3.53,-0.307 5.641,-0.363 0.343,-0.006 0.701,-0.012 1.063,-0.018 0.32,-0.006 0.641,-0.006 0.966,-0.006 0,0 0.307,0.707 0.769,1.857 C 4.188,-0.732 2.029,-0.406 0,0"
             style="fill:#dc1414;fill-opacity:1;fill-rule:nonzero;stroke:none"
             id="path596" />
        </g>
        <g
           id="g598"
           transform="translate(337.6188,316.6999)">
          <path
             d="M 0,0 C 0.928,-0.034 1.835,0.174 2.526,0.664 3.199,1.181 3.645,1.955 3.855,2.791 4.026,3.604 4.108,4.547 3.755,5.299 3.423,6.072 2.614,6.584 1.729,6.84 2.193,6.834 2.66,6.726 3.103,6.523 3.537,6.309 3.933,5.965 4.18,5.521 4.441,5.086 4.551,4.58 4.584,4.094 4.602,3.85 4.567,3.61 4.56,3.367 4.556,3.129 4.514,2.868 4.45,2.635 4.203,1.698 3.651,0.789 2.79,0.265 1.918,-0.244 0.881,-0.268 0,0"
             style="fill:#de661b;fill-opacity:1;fill-rule:nonzero;stroke:none"
             id="path600" />
        </g>
        <g
           id="g602"
           transform="translate(382.9606,259.7385)">
          <path
             d="m 0,0 c -0.576,-0.819 -1.125,-1.645 -1.678,-2.464 -0.511,-0.848 -1.076,-1.659 -1.596,-2.493 -1.031,-1.683 -1.955,-3.412 -2.795,-5.228 0.379,1.974 1.237,3.833 2.269,5.547 0.543,0.847 1.137,1.655 1.737,2.456 C -1.437,-1.399 -0.754,-0.661 0,0"
             style="fill:#de661b;fill-opacity:1;fill-rule:nonzero;stroke:none"
             id="path604" />
        </g>
        <g
           id="g606"
           transform="translate(359.8307,219.2995)">
          <path
             d="m 0,0 c 0.21,-2.627 0.053,-5.278 -0.308,-7.895 -0.357,-2.619 -1.005,-5.199 -1.88,-7.701 -0.91,-2.486 -2.083,-4.892 -3.602,-7.067 -0.364,-0.548 -0.824,-1.064 -1.145,-1.587 -0.329,-0.547 -0.484,-1.144 -0.547,-1.806 -0.197,-1.299 -0.372,-2.601 -0.588,-3.901 0.077,1.313 0.193,2.624 0.288,3.937 0.026,0.648 0.177,1.362 0.509,1.958 0.158,0.307 0.367,0.585 0.547,0.848 0.186,0.269 0.369,0.538 0.542,0.815 1.413,2.19 2.567,4.547 3.418,7.012 0.909,2.447 1.54,4.991 1.994,7.567 0.23,1.287 0.414,2.585 0.535,3.889 C -0.095,-2.627 -0.021,-1.315 0,0"
             style="fill:#002b6a;fill-opacity:1;fill-rule:nonzero;stroke:none"
             id="path608" />
        </g>
        <g
           id="g610"
           transform="translate(375.3444,230.5505)">
          <path
             d="m 0,0 c -0.853,0.176 -1.624,0.458 -2.404,0.71 -0.782,0.263 -1.523,0.517 -2.368,0.689 h -10e-4 l -0.006,0.003 0.006,0.003 c 0.408,0.17 0.863,0.191 1.296,0.157 0.438,-0.029 0.859,-0.139 1.269,-0.27 0.406,-0.141 0.8,-0.312 1.171,-0.527 C -0.666,0.553 -0.31,0.311 0,0"
             style="fill:#de661b;fill-opacity:1;fill-rule:nonzero;stroke:none"
             id="path612" />
        </g>
        <g
           id="g614"
           transform="translate(333.8414,225.9489)">
          <path
             d="M 0,0 C -0.456,-0.114 -0.916,-0.19 -1.374,-0.286 -1.843,-0.364 -2.275,-0.437 -2.686,-0.604 -2.89,-0.685 -3.084,-0.782 -3.274,-0.89 L -3.881,-1.237 -5.106,-1.91 c -0.416,-0.207 -0.809,-0.453 -1.292,-0.62 -0.472,-0.156 -0.966,-0.244 -1.458,-0.23 -0.501,0.005 -0.958,0.12 -1.415,0.198 -0.457,0.103 -0.916,0.184 -1.371,0.304 0.47,0.019 0.936,-0.003 1.405,-0.004 0.468,-0.009 0.935,-0.054 1.366,-0.017 0.438,0.041 0.87,0.13 1.272,0.296 0.394,0.149 0.796,0.4 1.208,0.618 l 1.239,0.641 0.625,0.309 c 0.219,0.111 0.454,0.2 0.691,0.266 0.473,0.144 0.975,0.156 1.432,0.161 C -0.936,0.008 -0.47,0.023 0,0"
             style="fill:#de661b;fill-opacity:1;fill-rule:nonzero;stroke:none"
             id="path616" />
        </g>
        <g
           id="g618"
           transform="translate(355.9186,335.923)">
          <path
             d="m 0,0 c -0.793,0.258 -1.396,0.911 -1.55,1.729 -1.014,5.579 -5.955,7.006 -8.009,7.356 -0.56,0.099 -0.904,0.118 -0.904,0.118 -3.882,0.553 -6.809,0.344 -9.006,-0.246 -3.586,-0.948 -5.247,-2.904 -5.985,-4.22 -0.425,-0.776 -0.541,-1.323 -0.541,-1.323 0,0 -1.329,-4.761 1.1,-5.407 0.302,-0.074 0.671,-0.092 1.102,-0.025 0,0 3.002,1.255 3.002,-0.357 l -1.784,-4.601 c -0.216,-0.559 -0.16,-1.193 0.153,-1.704 l 0.72,-1.18 c 0.259,-0.419 0.406,-0.905 0.425,-1.397 l 0.067,-1.864 c 0.013,-0.424 0.185,-0.812 0.455,-1.101 0.277,-0.295 0.652,-0.486 1.07,-0.529 0.837,-0.086 1.613,0.455 1.822,1.267 l 0.074,0.296 c 0.141,0.541 0.664,0.892 1.218,0.805 1.039,-0.166 2.54,-0.763 2.571,-2.86 h 0.006 c 0.24,-0.375 0.812,-1.925 1.095,-2.713 0.111,-0.301 0.16,-0.621 0.172,-0.941 0.062,-1.975 0.493,-3.604 0.941,-4.786 0.24,-0.633 0.591,-1.199 1.046,-1.679 0.794,-0.867 1.883,-1.446 3.094,-1.581 0.431,-0.049 0.843,-0.049 1.237,-0.012 1.002,0.086 1.87,0.412 2.558,0.781 0.155,0.086 0.308,0.178 0.45,0.283 0.799,0.572 1.383,1.403 1.63,2.368 0.338,1.347 1.064,3.211 1.611,4.528 0.333,0.806 0.732,1.58 1.262,2.276 0.35,0.461 0.676,0.996 0.977,1.55 0.727,1.329 1.286,2.786 1.606,3.678 0.203,0.573 0.344,1.169 0.419,1.772 C 5.008,-2.725 1.901,-0.627 0,0"
             style="fill:#003474;fill-opacity:1;fill-rule:nonzero;stroke:none"
             id="path620" />
        </g>
        <g
           id="g622"
           transform="translate(345.2418,310.5002)">
          <path
             d="m 0,0 c 0,0.008 0,0.017 0.009,0.025 2.356,4.706 2.483,10.257 0.371,15.622 -0.524,1.301 -1.09,2.332 -2.171,3.143 -0.194,0.135 -0.414,0.253 -0.634,0.363 -0.405,0.203 -0.819,0.406 -1.039,0.811 -0.363,0.642 -0.304,1.622 -0.254,2.56 0.034,0.659 0.069,1.276 -0.025,1.783 -0.397,1.968 -1.757,4.444 -3.911,5.534 -1.909,0.963 -4.259,1.165 -6.608,0.574 -0.109,-0.025 -0.253,-0.076 -0.456,-0.152 l -0.008,-0.025 -0.101,-0.186 c 0.025,0.017 0.051,0.025 0.076,0.033 0.244,0.094 0.405,0.144 0.523,0.178 2.324,0.583 4.63,0.389 6.506,-0.557 2.112,-1.074 3.439,-3.498 3.827,-5.433 0.093,-0.481 0.059,-1.09 0.026,-1.74 -0.06,-0.964 -0.11,-1.961 0.27,-2.645 0.245,-0.439 0.684,-0.659 1.107,-0.879 0.22,-0.11 0.43,-0.211 0.608,-0.346 1.065,-0.786 1.597,-1.757 2.12,-3.075 C 2.332,10.273 2.205,4.79 -0.118,0.126 Z m 4.368,-1.521 c 2.214,3.532 3.397,8.668 2.932,12.808 -0.355,3.151 -1.073,6.734 -3.751,9.395 -0.212,0.22 -0.414,0.406 -0.601,0.583 -0.861,0.82 -1.385,1.31 -1.622,2.636 -0.042,0.237 -0.084,0.474 -0.126,0.702 -0.372,2.162 -0.761,4.393 -2.493,5.905 -1.875,1.656 -4.08,2.873 -6.725,3.726 -0.219,0.076 -0.422,0.135 -0.617,0.186 l -0.303,-0.085 c 0.042,-0.008 0.084,-0.017 0.126,-0.033 0.237,-0.051 0.482,-0.127 0.744,-0.212 2.628,-0.844 4.807,-2.053 6.674,-3.7 1.69,-1.479 2.07,-3.684 2.442,-5.813 C 1.09,24.34 1.132,24.112 1.175,23.876 1.42,22.499 1.96,21.992 2.848,21.155 3.033,20.978 3.228,20.792 3.447,20.572 4.926,19.103 6.522,16.838 7.147,11.271 7.612,7.147 6.421,2.019 4.199,-1.487 4.19,-1.504 4.174,-1.521 4.165,-1.538 Z M 12.834,10.4 v 0.009 c 0.093,2.695 -0.263,5.305 -1.048,7.587 -0.448,1.317 -1.36,2.627 -2.695,3.878 -0.229,0.219 -0.482,0.414 -0.718,0.591 -0.499,0.38 -0.972,0.743 -1.259,1.327 -0.507,1.013 -0.71,2.111 -0.904,3.167 -0.271,1.479 -0.549,3 -1.622,4.352 -0.904,1.132 -2.154,2.332 -3.287,3.16 L 0.946,34.53 c 0.042,-0.026 0.085,-0.051 0.127,-0.085 1.394,-0.997 2.661,-2.323 3.397,-3.236 1.047,-1.318 1.326,-2.821 1.588,-4.275 0.203,-1.073 0.405,-2.18 0.913,-3.21 0.303,-0.617 0.794,-0.989 1.309,-1.377 0.237,-0.186 0.482,-0.372 0.709,-0.583 1.319,-1.242 2.214,-2.527 2.654,-3.819 0.794,-2.298 1.148,-4.96 1.039,-7.689 0,-0.05 -0.009,-0.101 -0.009,-0.152 v -0.008 z"
             style="fill:#0054be;fill-opacity:1;fill-rule:nonzero;stroke:none"
             id="path624" />
        </g>
        <g
           id="g626"
           transform="translate(372.3551,278.5432)">
          <path
             d="m 0,0 c 0.021,-2.048 -0.083,-4.089 -0.217,-6.127 -0.123,-2.039 -0.337,-4.07 -0.567,-6.099 -0.252,-2.027 -0.532,-4.051 -0.901,-6.062 -0.363,-2.01 -0.771,-4.015 -1.312,-5.99 0.068,1.023 0.204,2.033 0.282,3.052 l 0.331,3.039 c 0.202,2.027 0.457,4.047 0.689,6.07 0.253,2.021 0.489,4.043 0.779,6.061 l 0.425,3.03 C -0.32,-2.019 -0.187,-1.008 0,0"
             style="fill:#9b0101;fill-opacity:1;fill-rule:nonzero;stroke:none"
             id="path628" />
        </g>
        <g
           id="g630"
           transform="translate(331.3561,265.7424)">
          <path
             d="M 0,0 C 0.408,2.212 1.079,4.33 1.813,6.426 2.574,8.512 3.399,10.575 4.49,12.542 4.085,10.33 3.413,8.211 2.678,6.117 1.914,4.031 1.09,1.968 0,0"
             style="fill:#9b0101;fill-opacity:1;fill-rule:nonzero;stroke:none"
             id="path632" />
        </g>
      </g>
    </g>
  </g>
</svg>
