<?xml version="1.0" encoding="UTF-8" standalone="no"?>
<!-- Created with Inkscape (http://www.inkscape.org/) -->

<svg
   version="1.1"
   id="svg2"
   width="666.66669"
   height="666.66669"
   viewBox="0 0 666.66669 666.66669"
   sodipodi:docname="16736629_5803446.ai"
   xmlns:inkscape="http://www.inkscape.org/namespaces/inkscape"
   xmlns:sodipodi="http://sodipodi.sourceforge.net/DTD/sodipodi-0.dtd"
   xmlns="http://www.w3.org/2000/svg"
   xmlns:svg="http://www.w3.org/2000/svg">
  <defs
     id="defs6">
    <clipPath
       clipPathUnits="userSpaceOnUse"
       id="clipPath16">
      <path
         d="M 0,500 H 500 V 0 H 0 Z"
         id="path14" />
    </clipPath>
    <clipPath
       clipPathUnits="userSpaceOnUse"
       id="clipPath40">
      <path
         d="M 0,500 H 500 V 0 H 0 Z"
         id="path38" />
    </clipPath>
    <clipPath
       clipPathUnits="userSpaceOnUse"
       id="clipPath60">
      <path
         d="M 0,500 H 500 V 0 H 0 Z"
         id="path58" />
    </clipPath>
    <clipPath
       clipPathUnits="userSpaceOnUse"
       id="clipPath100">
      <path
         d="M 0,500 H 500 V 0 H 0 Z"
         id="path98" />
    </clipPath>
    <clipPath
       clipPathUnits="userSpaceOnUse"
       id="clipPath112">
      <path
         d="M 0,500 H 500 V 0 H 0 Z"
         id="path110" />
    </clipPath>
    <clipPath
       clipPathUnits="userSpaceOnUse"
       id="clipPath172">
      <path
         d="M 0,500 H 500 V 0 H 0 Z"
         id="path170" />
    </clipPath>
    <clipPath
       clipPathUnits="userSpaceOnUse"
       id="clipPath212">
      <path
         d="M 0,500 H 500 V 0 H 0 Z"
         id="path210" />
    </clipPath>
    <clipPath
       clipPathUnits="userSpaceOnUse"
       id="clipPath228">
      <path
         d="m 231.071,208.397 h 31.951 v -2.836 h -31.951 z"
         id="path226" />
    </clipPath>
    <clipPath
       clipPathUnits="userSpaceOnUse"
       id="clipPath268">
      <path
         d="m 280.693,208.397 h 31.951 v -2.836 h -31.951 z"
         id="path266" />
    </clipPath>
    <clipPath
       clipPathUnits="userSpaceOnUse"
       id="clipPath436">
      <path
         d="m 264.548,396.761 h 21.836 v -67.933 h -21.836 z"
         id="path434" />
    </clipPath>
    <clipPath
       clipPathUnits="userSpaceOnUse"
       id="clipPath456">
      <path
         d="m 232.694,364.422 h 39.632 v -42.327 h -39.632 z"
         id="path454" />
    </clipPath>
    <clipPath
       clipPathUnits="userSpaceOnUse"
       id="clipPath488">
      <path
         d="m 221.526,405.46 h 44.742 v -22.091 h -44.742 z"
         id="path486" />
    </clipPath>
    <clipPath
       clipPathUnits="userSpaceOnUse"
       id="clipPath544">
      <path
         d="m 239.25,356.25 h 23.81 v -8.602 h -23.81 z"
         id="path542" />
    </clipPath>
  </defs>
  <sodipodi:namedview
     id="namedview4"
     pagecolor="#ffffff"
     bordercolor="#000000"
     borderopacity="0.25"
     inkscape:showpageshadow="2"
     inkscape:pageopacity="0.0"
     inkscape:pagecheckerboard="0"
     inkscape:deskcolor="#d1d1d1" />
  <g
     id="g8"
     inkscape:groupmode="layer"
     inkscape:label="16736629_5803446"
     transform="matrix(1.3333333,0,0,-1.3333333,0,666.66667)">
    <g
       id="g10">
      <g
         id="g12"
         clip-path="url(#clipPath16)">
        <g
           id="g18"
           transform="translate(447.8375,332.8332)">
          <path
             d="m 0,0 c 0.695,5.049 -6.431,9.203 -11.785,9.634 -2.553,0.206 -5.205,-0.184 -7.624,0.658 -5.241,1.828 -7.335,8.599 -12.449,10.755 -3.824,1.613 -8.225,0.178 -11.931,-1.688 -3.707,-1.865 -7.37,-4.213 -11.511,-4.478 -3.601,-0.231 -7.513,1.105 -10.665,-0.654 -2.348,-1.311 -3.578,-4.018 -5.743,-5.614 -2.117,-1.562 -4.879,-1.892 -7.507,-2.035 -2.627,-0.143 -5.348,-0.17 -7.739,-1.265 -2.393,-1.096 -4.372,-3.626 -3.875,-6.209 z"
             style="fill:#ececec;fill-opacity:1;fill-rule:nonzero;stroke:none"
             id="path20" />
        </g>
        <g
           id="g22"
           transform="translate(228.0846,379.1823)">
          <path
             d="m 0,0 c 0.695,5.049 -6.431,9.203 -11.785,9.634 -2.553,0.206 -5.206,-0.184 -7.625,0.658 -5.24,1.827 -7.334,8.599 -12.448,10.755 -3.824,1.613 -8.225,0.178 -11.932,-1.688 -3.706,-1.865 -7.369,-4.213 -11.51,-4.478 -3.602,-0.231 -7.513,1.105 -10.665,-0.654 -2.348,-1.311 -3.578,-4.018 -5.743,-5.614 -2.117,-1.562 -4.879,-1.893 -7.507,-2.035 -2.627,-0.143 -5.347,-0.17 -7.74,-1.266 -2.392,-1.095 -4.371,-3.625 -3.875,-6.208 z"
             style="fill:#ececec;fill-opacity:1;fill-rule:nonzero;stroke:none"
             id="path24" />
        </g>
        <g
           id="g26"
           transform="translate(130.1959,221.0544)">
          <path
             d="m 0,0 c 0.695,5.05 -6.431,9.203 -11.785,9.635 -2.554,0.205 -5.206,-0.185 -7.625,0.658 -5.241,1.826 -7.335,8.598 -12.448,10.755 -3.824,1.612 -8.225,0.177 -11.932,-1.689 -3.707,-1.865 -7.369,-4.213 -11.51,-4.478 -3.602,-0.231 -7.513,1.105 -10.665,-0.654 -2.348,-1.311 -3.578,-4.017 -5.743,-5.614 -2.118,-1.561 -4.88,-1.892 -7.507,-2.035 -2.627,-0.143 -5.348,-0.17 -7.74,-1.266 -2.392,-1.094 -4.371,-3.625 -3.875,-6.208 z"
             style="fill:#ececec;fill-opacity:1;fill-rule:nonzero;stroke:none"
             id="path28" />
        </g>
        <g
           id="g30"
           transform="translate(312.1617,289.3049)">
          <path
             d="m 0,0 c 0.425,3.085 -3.93,5.623 -7.202,5.887 -1.56,0.126 -3.181,-0.113 -4.659,0.402 -3.202,1.116 -4.482,5.254 -7.607,6.572 -2.336,0.986 -5.026,0.108 -7.291,-1.032 -2.264,-1.14 -4.503,-2.574 -7.033,-2.736 -2.201,-0.141 -4.591,0.675 -6.517,-0.4 -1.435,-0.801 -2.186,-2.455 -3.509,-3.43 -1.294,-0.954 -2.982,-1.157 -4.587,-1.244 -1.606,-0.087 -3.268,-0.103 -4.73,-0.773 -1.462,-0.669 -2.671,-2.215 -2.368,-3.794 z"
             style="fill:#ececec;fill-opacity:1;fill-rule:nonzero;stroke:none"
             id="path32" />
        </g>
      </g>
    </g>
    <g
       id="g34">
      <g
         id="g36"
         clip-path="url(#clipPath40)">
        <g
           id="g42"
           transform="translate(342.5094,411.9221)">
          <path
             d="m 0,0 -1.274,2.1 c -10.745,17.705 -30.169,28.378 -50.649,27.082 -2.633,-0.166 -5.254,-0.522 -7.841,-1.076 -18.62,-3.986 -34.822,-18.067 -41.538,-36.101 -3.95,-10.606 -5.053,-22.818 -12.549,-31.236 -9.754,-10.957 -26.315,-11.301 -40.876,-10.847 -14.56,0.454 -31.132,0.067 -40.839,-10.933 -6.079,-6.888 -8.012,-16.685 -7.521,-25.91 1.297,-24.426 18.317,-46.265 39.962,-57.121 21.645,-10.855 47.129,-11.827 70.818,-7.052 33.186,6.69 64.745,25.061 83.714,53.436 C 10.377,-69.284 15.178,-30.625 0,0"
             style="fill:#f5f5f5;fill-opacity:1;fill-rule:nonzero;stroke:none"
             id="path44" />
        </g>
        <g
           id="g46"
           transform="translate(423.1783,347.9733)">
          <path
             d="m 0,0 c 0,-10.573 -8.572,-19.145 -19.146,-19.145 -10.573,0 -19.145,8.572 -19.145,19.145 0,10.574 8.572,19.146 19.145,19.146 C -8.572,19.146 0,10.574 0,0"
             style="fill:#f5f5f5;fill-opacity:1;fill-rule:nonzero;stroke:none"
             id="path48" />
        </g>
        <g
           id="g50"
           transform="translate(101.3434,237.3591)">
          <path
             d="m 0,0 c 0,-10.574 -8.571,-19.146 -19.145,-19.146 -10.574,0 -19.146,8.572 -19.146,19.146 0,10.573 8.572,19.145 19.146,19.145 C -8.571,19.145 0,10.573 0,0"
             style="fill:#f5f5f5;fill-opacity:1;fill-rule:nonzero;stroke:none"
             id="path52" />
        </g>
      </g>
    </g>
    <g
       id="g54">
      <g
         id="g56"
         clip-path="url(#clipPath60)">
        <g
           id="g62"
           transform="translate(490.7848,11.8112)">
          <path
             d="m 0,0 c 0,-0.144 -107.77,-0.261 -240.68,-0.261 -132.956,0 -240.703,0.117 -240.703,0.261 0,0.144 107.747,0.261 240.703,0.261 C -107.77,0.261 0,0.144 0,0"
             style="fill:#1a2e35;fill-opacity:1;fill-rule:nonzero;stroke:none"
             id="path64" />
        </g>
      </g>
    </g>
    <g
       id="g66"
       transform="translate(319.0543,87.0544)">
      <path
         d="m 0,0 75.602,-75.005 14.762,0.04 L 95.614,0 Z"
         style="fill:#e1e1e1;fill-opacity:1;fill-rule:nonzero;stroke:none"
         id="path68" />
    </g>
    <g
       id="g70"
       transform="translate(380.5299,79.9509)">
      <path
         d="m 0,0 -76.179,-67.901 53.212,0.08 44.845,37.72 z"
         style="fill:#e1e1e1;fill-opacity:1;fill-rule:nonzero;stroke:none"
         id="path72" />
    </g>
    <g
       id="g74"
       transform="translate(373.3649,273.986)">
      <path
         d="M 0,0 93.904,-87.041 95.56,3.245 Z"
         style="fill:#e1e1e1;fill-opacity:1;fill-rule:nonzero;stroke:none"
         id="path76" />
    </g>
    <g
       id="g78"
       transform="translate(436.6324,270.2297)">
      <path
         d="m 0,0 -253.977,-258.14 h 50.047 L 22.887,-29.341 Z"
         style="fill:#e1e1e1;fill-opacity:1;fill-rule:nonzero;stroke:none"
         id="path80" />
    </g>
    <g
       id="g82"
       transform="translate(107.0704,174.6393)">
      <path
         d="M 0,0 90.896,-90.177 95.614,0 Z"
         style="fill:#e1e1e1;fill-opacity:1;fill-rule:nonzero;stroke:none"
         id="path84" />
    </g>
    <g
       id="g86"
       transform="translate(170.174,168.739)">
      <path
         d="m 0,0 -163.201,-156.649 h 52.586 L 21.877,-30.102 Z"
         style="fill:#e1e1e1;fill-opacity:1;fill-rule:nonzero;stroke:none"
         id="path88" />
    </g>
    <g
       id="g90"
       transform="translate(186.3161,205.5983)">
      <path
         d="M 0,0 129.767,-128.74 V 0 Z"
         style="fill:#083AA9;fill-opacity:1;fill-rule:nonzero;stroke:none"
         id="path92" />
    </g>
    <g
       id="g94">
      <g
         id="g96"
         clip-path="url(#clipPath100)">
        <g
           id="g102"
           transform="translate(271.9391,202.695)">
          <path
             d="m 0,0 c -2.938,-2.35 -189.741,-190.605 -189.741,-190.605 h 80.478 L 37.596,-42.882 Z"
             style="fill:#083AA9;fill-opacity:1;fill-rule:nonzero;stroke:none"
             id="path104" />
        </g>
      </g>
    </g>
    <g
       id="g106">
      <g
         id="g108"
         clip-path="url(#clipPath112)">
        <g
           id="g114"
           transform="translate(106.8204,424.4035)">
          <path
             d="m 0,0 c 0,-7.088 -5.746,-12.833 -12.833,-12.833 -7.088,0 -12.834,5.745 -12.834,12.833 0,7.088 5.746,12.833 12.834,12.833 C -5.746,12.833 0,7.088 0,0"
             style="fill:#083AA9;fill-opacity:1;fill-rule:nonzero;stroke:none"
             id="path116" />
        </g>
        <g
           id="g118"
           transform="translate(92.1593,395.7072)">
          <path
             d="m 0,0 c -0.075,0 -0.135,2.37 -0.135,5.293 0,2.924 0.06,5.294 0.135,5.294 0.074,0 0.135,-2.37 0.135,-5.294 C 0.135,2.37 0.074,0 0,0"
             style="fill:#083AA9;fill-opacity:1;fill-rule:nonzero;stroke:none"
             id="path120" />
        </g>
        <g
           id="g122"
           transform="translate(84.7638,409.2785)">
          <path
             d="m 0,0 c 0.064,-0.038 -1.143,-2.249 -2.696,-4.938 -1.554,-2.691 -2.866,-4.841 -2.93,-4.804 -0.064,0.037 1.142,2.248 2.696,4.939 C -1.376,-2.114 -0.065,0.037 0,0"
             style="fill:#083AA9;fill-opacity:1;fill-rule:nonzero;stroke:none"
             id="path124" />
        </g>
        <g
           id="g126"
           transform="translate(77.1735,414.0041)">
          <path
             d="m 0,0 c 0.046,-0.058 -1.295,-1.202 -2.997,-2.555 -1.702,-1.353 -3.119,-2.402 -3.166,-2.343 -0.046,0.058 1.296,1.202 2.998,2.555 C -1.464,-0.991 -0.046,0.059 0,0"
             style="fill:#083AA9;fill-opacity:1;fill-rule:nonzero;stroke:none"
             id="path128" />
        </g>
        <g
           id="g130"
           transform="translate(104.9616,400.9221)">
          <path
             d="M 0,0 C -0.038,-0.006 -0.153,0.495 -0.338,1.303 -0.522,2.11 -0.784,3.224 -1.112,4.444 -1.44,5.664 -1.772,6.759 -2.018,7.55 -2.264,8.342 -2.416,8.833 -2.379,8.847 -2.346,8.859 -2.13,8.391 -1.837,7.612 -1.544,6.833 -1.182,5.741 -0.851,4.514 -0.521,3.287 -0.288,2.16 -0.151,1.34 -0.013,0.519 0.035,0.006 0,0"
             style="fill:#083AA9;fill-opacity:1;fill-rule:nonzero;stroke:none"
             id="path132" />
        </g>
        <g
           id="g134"
           transform="translate(117.9787,410.1589)">
          <path
             d="M 0,0 C -0.049,-0.056 -1.748,1.348 -3.793,3.136 -5.839,4.925 -7.458,6.42 -7.409,6.476 -7.36,6.532 -5.662,5.128 -3.615,3.339 -1.57,1.551 0.049,0.056 0,0"
             style="fill:#083AA9;fill-opacity:1;fill-rule:nonzero;stroke:none"
             id="path136" />
        </g>
        <g
           id="g138"
           transform="translate(122.9645,422.8522)">
          <path
             d="m 0,0 c -0.009,-0.039 -0.597,0.064 -1.548,0.222 -0.951,0.159 -2.265,0.362 -3.724,0.53 -1.46,0.167 -2.787,0.267 -3.749,0.328 -0.961,0.061 -1.558,0.093 -1.558,0.133 0,0.035 0.598,0.07 1.566,0.058 0.967,-0.013 2.304,-0.083 3.771,-0.25 C -3.774,0.852 -2.457,0.617 -1.512,0.41 -0.567,0.203 0.008,0.034 0,0"
             style="fill:#083AA9;fill-opacity:1;fill-rule:nonzero;stroke:none"
             id="path140" />
        </g>
        <g
           id="g142"
           transform="translate(122.9806,435.3342)">
          <path
             d="m 0,0 c 0.018,-0.072 -2.761,-0.812 -6.205,-1.65 -3.445,-0.84 -6.252,-1.461 -6.27,-1.389 -0.017,0.073 2.761,0.812 6.206,1.651 C -2.825,-0.549 -0.018,0.073 0,0"
             style="fill:#083AA9;fill-opacity:1;fill-rule:nonzero;stroke:none"
             id="path144" />
        </g>
        <g
           id="g146"
           transform="translate(108.4787,449.8771)">
          <path
             d="M 0,0 C 0.062,-0.041 -1.267,-2.162 -2.968,-4.735 -4.67,-7.311 -6.1,-9.364 -6.163,-9.323 c -0.062,0.041 1.267,2.161 2.969,4.737 C -1.492,-2.013 -0.062,0.042 0,0"
             style="fill:#083AA9;fill-opacity:1;fill-rule:nonzero;stroke:none"
             id="path148" />
        </g>
        <g
           id="g150"
           transform="translate(94.0871,452.9152)">
          <path
             d="m 0,0 c 0.039,-0.002 0.034,-0.675 0.019,-1.762 -0.016,-1.087 -0.038,-2.587 -0.036,-4.244 0.002,-1.658 0.027,-3.159 0.045,-4.245 0.018,-1.087 0.024,-1.76 -0.014,-1.762 -0.036,-0.002 -0.11,0.668 -0.177,1.754 -0.067,1.087 -0.122,2.591 -0.124,4.252 -0.002,1.662 0.05,3.165 0.115,4.252 C -0.108,-0.668 -0.036,0.002 0,0"
             style="fill:#083AA9;fill-opacity:1;fill-rule:nonzero;stroke:none"
             id="path152" />
        </g>
        <g
           id="g154"
           transform="translate(83.1881,439.3415)">
          <path
             d="M 0,0 C -0.063,-0.039 -1.416,2.058 -3.019,4.682 -4.623,7.307 -5.872,9.466 -5.808,9.504 -5.744,9.543 -4.393,7.448 -2.789,4.823 -1.185,2.198 0.064,0.039 0,0"
             style="fill:#083AA9;fill-opacity:1;fill-rule:nonzero;stroke:none"
             id="path156" />
        </g>
        <g
           id="g158"
           transform="translate(76.6779,433.8083)">
          <path
             d="M 0,0 C -0.008,-0.035 -0.53,0.041 -1.365,0.216 -2.199,0.392 -3.344,0.672 -4.592,1.04 -5.841,1.408 -6.955,1.794 -7.75,2.1 -8.547,2.406 -9.027,2.625 -9.014,2.659 -9.001,2.695 -8.498,2.539 -7.687,2.28 -6.877,2.021 -5.759,1.666 -4.516,1.298 -3.273,0.933 -2.141,0.625 -1.32,0.402 -0.5,0.18 0.008,0.038 0,0"
             style="fill:#083AA9;fill-opacity:1;fill-rule:nonzero;stroke:none"
             id="path160" />
        </g>
        <g
           id="g162"
           transform="translate(73.8336,423.9484)">
          <path
             d="m 0,0 c 0.007,-0.074 -1.827,-0.312 -4.096,-0.529 -2.269,-0.219 -4.114,-0.335 -4.121,-0.261 -0.007,0.074 1.826,0.311 4.096,0.529 C -1.853,-0.042 -0.007,0.074 0,0"
             style="fill:#083AA9;fill-opacity:1;fill-rule:nonzero;stroke:none"
             id="path164" />
        </g>
      </g>
    </g>
    <g
       id="g166">
      <g
         id="g168"
         clip-path="url(#clipPath172)">
        <g
           id="g174"
           transform="translate(456.1432,141.903)">
          <path
             d="m 0,0 c 0.523,3.802 -4.842,6.929 -8.873,7.254 -1.923,0.155 -3.919,-0.139 -5.74,0.496 -3.947,1.375 -5.523,6.474 -9.373,8.098 -2.879,1.214 -6.193,0.132 -8.984,-1.272 -2.791,-1.404 -5.549,-3.172 -8.666,-3.372 -2.712,-0.173 -5.657,0.832 -8.03,-0.492 C -51.434,9.725 -52.36,7.687 -53.989,6.485 -55.584,5.31 -57.664,5.061 -59.642,4.953 -61.62,4.845 -63.668,4.825 -65.469,4 -67.271,3.176 -68.761,1.271 -68.387,-0.675 Z"
             style="fill:#ffffff;fill-opacity:1;fill-rule:nonzero;stroke:none"
             id="path176" />
        </g>
        <g
           id="g178"
           transform="translate(456.1432,141.903)">
          <path
             d="m 0,0 c 0.006,-0.006 -0.105,-0.014 -0.33,-0.022 -0.25,-0.007 -0.581,-0.017 -1.002,-0.029 -0.918,-0.017 -2.225,-0.044 -3.897,-0.076 -3.435,-0.053 -8.369,-0.128 -14.485,-0.221 -12.347,-0.148 -29.462,-0.354 -48.67,-0.586 l -0.216,-0.003 -0.042,0.213 c -0.223,1.134 0.183,2.336 0.896,3.245 0.709,0.921 1.734,1.613 2.844,1.986 2.562,0.871 5.205,0.503 7.631,0.955 1.212,0.212 2.387,0.624 3.312,1.375 0.936,0.747 1.633,1.768 2.474,2.684 0.422,0.456 0.878,0.898 1.416,1.241 0.537,0.341 1.132,0.585 1.743,0.719 1.227,0.263 2.45,0.175 3.62,0.087 1.172,-0.09 2.321,-0.208 3.434,-0.084 1.115,0.116 2.193,0.434 3.219,0.846 2.061,0.823 3.922,1.987 5.876,2.879 1.946,0.879 4.02,1.507 6.082,1.354 1.022,-0.084 2.02,-0.369 2.882,-0.865 0.863,-0.491 1.593,-1.138 2.241,-1.812 1.297,-1.356 2.317,-2.823 3.506,-4.005 1.163,-1.2 2.57,-2.049 4.062,-2.258 1.485,-0.236 2.935,-0.108 4.293,-0.207 2.739,-0.22 4.92,-1.309 6.461,-2.418 C -1.104,3.854 -0.28,2.511 -0.054,1.524 0.17,0.534 -0.028,-0.028 0,0 -0.046,0.021 0.089,0.533 -0.155,1.497 -0.409,2.449 -1.234,3.735 -2.77,4.835 c -1.528,1.063 -3.695,2.105 -6.36,2.29 -1.331,0.085 -2.781,-0.06 -4.327,0.171 -1.561,0.201 -3.074,1.102 -4.269,2.323 -1.227,1.207 -2.259,2.673 -3.534,3.987 -0.636,0.654 -1.342,1.269 -2.157,1.728 -0.813,0.463 -1.745,0.723 -2.711,0.799 -1.946,0.137 -3.955,-0.47 -5.858,-1.341 -1.912,-0.878 -3.779,-2.056 -5.888,-2.908 -1.052,-0.426 -2.174,-0.762 -3.347,-0.886 -1.177,-0.134 -2.358,-0.013 -3.524,0.074 -1.163,0.087 -2.344,0.162 -3.471,-0.083 -1.136,-0.235 -2.103,-0.911 -2.893,-1.813 -0.81,-0.878 -1.515,-1.924 -2.528,-2.74 -1.012,-0.825 -2.283,-1.263 -3.543,-1.484 -2.531,-0.461 -5.153,-0.109 -7.55,-0.936 -1.039,-0.35 -1.957,-0.977 -2.605,-1.813 -0.645,-0.826 -0.985,-1.87 -0.797,-2.828 l -0.257,0.21 c 19.141,0.147 36.197,0.278 48.499,0.373 6.14,0.027 11.093,0.05 14.541,0.065 1.697,0.001 3.021,0.001 3.953,0.001 C -0.963,0.021 -0.621,0.019 -0.363,0.016 -0.128,0.012 -0.006,0.007 0,0"
             style="fill:#1a2e35;fill-opacity:1;fill-rule:nonzero;stroke:none"
             id="path180" />
        </g>
        <g
           id="g182"
           transform="translate(241.296,58.2048)">
          <path
             d="m 0,0 c 0.695,5.049 -6.431,9.202 -11.785,9.634 -2.553,0.206 -5.206,-0.185 -7.625,0.658 -5.241,1.827 -7.334,8.598 -12.448,10.755 -3.824,1.612 -8.225,0.178 -11.932,-1.689 -3.706,-1.865 -7.369,-4.212 -11.51,-4.477 -3.602,-0.231 -7.513,1.104 -10.665,-0.654 -2.348,-1.312 -3.578,-4.018 -5.743,-5.615 -2.117,-1.561 -4.879,-1.892 -7.507,-2.035 -2.627,-0.142 -5.347,-0.169 -7.74,-1.265 -2.392,-1.095 -4.371,-3.625 -3.875,-6.208 z"
             style="fill:#ffffff;fill-opacity:1;fill-rule:nonzero;stroke:none"
             id="path184" />
        </g>
        <g
           id="g186"
           transform="translate(241.296,58.2048)">
          <path
             d="m 0,0 c 0,0 -0.145,-0.015 -0.443,-0.023 -0.322,-0.008 -0.765,-0.019 -1.337,-0.033 -1.205,-0.02 -2.947,-0.05 -5.184,-0.089 -4.549,-0.063 -11.109,-0.155 -19.248,-0.268 -16.377,-0.188 -39.106,-0.449 -64.615,-0.743 l -0.215,-0.002 -0.042,0.213 c -0.291,1.477 0.237,3.048 1.172,4.241 0.933,1.209 2.276,2.117 3.739,2.608 3.376,1.15 6.882,0.663 10.122,1.266 1.618,0.282 3.195,0.835 4.437,1.845 1.255,1.003 2.183,2.364 3.294,3.573 0.557,0.603 1.158,1.185 1.864,1.635 0.705,0.447 1.486,0.767 2.289,0.945 1.613,0.347 3.23,0.23 4.783,0.114 1.555,-0.119 3.088,-0.276 4.576,-0.109 1.49,0.154 2.93,0.58 4.297,1.129 2.745,1.098 5.217,2.647 7.806,3.829 2.577,1.167 5.321,1.997 8.041,1.797 1.347,-0.112 2.663,-0.485 3.799,-1.139 1.14,-0.647 2.104,-1.502 2.964,-2.393 1.719,-1.793 3.074,-3.742 4.66,-5.316 1.551,-1.597 3.436,-2.733 5.429,-3.01 1.982,-0.312 3.909,-0.14 5.708,-0.269 1.81,-0.113 3.444,-0.589 4.875,-1.157 C -5.796,8.065 -4.563,7.36 -3.54,6.61 -2.52,5.853 -1.731,5.028 -1.154,4.239 -0.565,3.452 -0.267,2.66 -0.088,2.019 0.052,1.367 0.099,0.854 0.048,0.504 0.021,0.159 0,0 0,0 c 0,0 -0.005,0.188 -0.002,0.522 0.027,0.329 -0.033,0.834 -0.187,1.47 -0.333,1.271 -1.429,2.987 -3.47,4.455 -1.019,0.727 -2.243,1.409 -3.661,1.965 -1.417,0.548 -3.03,1.002 -4.803,1.099 -1.772,0.115 -3.698,-0.074 -5.742,0.232 -2.062,0.269 -4.054,1.457 -5.635,3.075 -1.624,1.599 -2.993,3.546 -4.689,5.298 -0.849,0.872 -1.788,1.695 -2.88,2.31 -1.088,0.62 -2.337,0.969 -3.628,1.071 -2.605,0.185 -5.283,-0.625 -7.818,-1.783 -2.546,-1.168 -5.024,-2.731 -7.818,-3.858 -1.392,-0.562 -2.875,-1.006 -4.424,-1.169 -1.554,-0.176 -3.116,-0.016 -4.666,0.099 -1.546,0.115 -3.121,0.218 -4.635,-0.111 -0.753,-0.167 -1.471,-0.465 -2.123,-0.878 -0.652,-0.416 -1.222,-0.968 -1.762,-1.554 -1.081,-1.173 -2.016,-2.558 -3.349,-3.63 C -72.623,7.53 -74.294,6.951 -75.959,6.66 -79.305,6.049 -82.791,6.519 -86.002,5.413 -87.392,4.944 -88.628,4.102 -89.5,2.978 -90.369,1.866 -90.831,0.455 -90.575,-0.848 l -0.257,0.21 c 25.442,0.21 48.11,0.397 64.444,0.531 8.163,0.047 14.742,0.086 19.304,0.113 2.261,0.006 4.021,0.011 5.24,0.014 C -1.26,0.018 -0.806,0.016 -0.477,0.015 -0.167,0.011 0,0 0,0"
             style="fill:#1a2e35;fill-opacity:1;fill-rule:nonzero;stroke:none"
             id="path188" />
        </g>
        <g
           id="g190"
           transform="translate(148.818,296.6891)">
          <path
             d="m 0,0 c 0.583,4.238 -5.398,7.724 -9.892,8.086 -2.143,0.173 -4.369,-0.154 -6.4,0.553 -4.399,1.533 -6.156,7.217 -10.448,9.027 -3.209,1.354 -6.904,0.149 -10.015,-1.417 -3.111,-1.566 -6.185,-3.536 -9.661,-3.759 -3.023,-0.193 -6.307,0.928 -8.952,-0.549 -1.97,-1.101 -3.003,-3.372 -4.82,-4.712 -1.777,-1.311 -4.096,-1.588 -6.301,-1.708 -2.205,-0.12 -4.488,-0.142 -6.496,-1.062 -2.008,-0.919 -3.669,-3.042 -3.253,-5.211 z"
             style="fill:#ffffff;fill-opacity:1;fill-rule:nonzero;stroke:none"
             id="path192" />
        </g>
        <g
           id="g194"
           transform="translate(148.818,296.6891)">
          <path
             d="m 0,0 c 0.005,-0.006 -0.12,-0.014 -0.37,-0.022 -0.275,-0.008 -0.646,-0.018 -1.119,-0.031 -1.018,-0.018 -2.477,-0.046 -4.347,-0.08 -3.825,-0.056 -9.327,-0.138 -16.151,-0.238 -13.757,-0.162 -32.836,-0.387 -54.248,-0.641 l -0.215,-0.002 -0.042,0.213 c -0.248,1.254 0.201,2.585 0.992,3.593 0.787,1.021 1.923,1.79 3.157,2.204 2.846,0.968 5.792,0.559 8.502,1.064 1.355,0.236 2.67,0.697 3.706,1.539 1.047,0.836 1.825,1.977 2.76,2.994 0.47,0.508 0.976,1 1.573,1.38 0.596,0.377 1.257,0.648 1.934,0.798 1.363,0.292 2.723,0.194 4.027,0.096 1.306,-0.1 2.59,-0.232 3.834,-0.092 1.245,0.128 2.45,0.484 3.596,0.944 2.3,0.92 4.375,2.219 6.552,3.212 2.165,0.98 4.474,1.678 6.766,1.509 1.135,-0.094 2.245,-0.409 3.203,-0.961 0.96,-0.546 1.771,-1.266 2.494,-2.016 1.445,-1.508 2.581,-3.143 3.909,-4.463 1.3,-1.339 2.874,-2.289 4.541,-2.521 1.658,-0.263 3.276,-0.12 4.787,-0.229 3.05,-0.243 5.48,-1.454 7.198,-2.688 C -1.238,4.289 -0.32,2.795 -0.066,1.697 0.051,1.148 0.088,0.718 0.043,0.422 0.019,0.131 0,0 0,0 c 0,0 -0.007,0.161 -0.006,0.44 0.021,0.274 -0.031,0.698 -0.161,1.23 -0.282,1.064 -1.202,2.5 -2.915,3.728 -1.704,1.189 -4.12,2.354 -7.095,2.561 -1.485,0.096 -3.102,-0.064 -4.822,0.193 -1.736,0.225 -3.417,1.226 -4.747,2.587 -1.366,1.343 -2.516,2.977 -3.938,4.445 -0.711,0.73 -1.498,1.418 -2.41,1.931 -0.91,0.518 -1.952,0.809 -3.032,0.894 -2.177,0.154 -4.419,-0.524 -6.544,-1.495 -2.134,-0.98 -4.213,-2.292 -6.562,-3.241 -1.171,-0.473 -2.419,-0.847 -3.724,-0.984 -1.309,-0.149 -2.623,-0.014 -3.924,0.083 -1.297,0.096 -2.616,0.181 -3.878,-0.094 -1.271,-0.262 -2.358,-1.022 -3.24,-2.029 -0.905,-0.981 -1.69,-2.146 -2.815,-3.052 -1.124,-0.914 -2.534,-1.402 -3.937,-1.648 -2.815,-0.513 -5.74,-0.12 -8.422,-1.045 -1.161,-0.391 -2.19,-1.093 -2.917,-2.03 -0.724,-0.926 -1.106,-2.098 -0.894,-3.177 l -0.257,0.21 c 21.345,0.169 40.364,0.32 54.077,0.428 6.848,0.035 12.369,0.063 16.207,0.083 1.894,0.002 3.371,0.003 4.402,0.005 C -1.067,0.02 -0.686,0.017 -0.403,0.015 -0.142,0.012 -0.006,0.006 0,0"
             style="fill:#1a2e35;fill-opacity:1;fill-rule:nonzero;stroke:none"
             id="path196" />
        </g>
        <g
           id="g198"
           transform="translate(421.4352,407.0817)">
          <path
             d="m 0,0 c 0.459,3.331 -4.243,6.072 -7.775,6.356 -1.685,0.136 -3.435,-0.121 -5.032,0.435 -3.457,1.205 -4.839,5.673 -8.213,7.096 -2.522,1.064 -5.426,0.116 -7.872,-1.114 -2.446,-1.231 -4.862,-2.78 -7.594,-2.955 -2.377,-0.152 -4.957,0.729 -7.036,-0.431 -1.55,-0.866 -2.362,-2.651 -3.791,-3.704 -1.396,-1.031 -3.218,-1.249 -4.952,-1.343 -1.734,-0.094 -3.528,-0.112 -5.107,-0.835 -1.578,-0.722 -2.884,-2.392 -2.557,-4.096 z"
             style="fill:#ffffff;fill-opacity:1;fill-rule:nonzero;stroke:none"
             id="path200" />
        </g>
        <g
           id="g202"
           transform="translate(421.4352,407.0817)">
          <path
             d="M 0,0 C 0.006,-0.006 -0.092,-0.014 -0.287,-0.022 -0.51,-0.029 -0.799,-0.038 -1.163,-0.049 -1.975,-0.066 -3.116,-0.09 -4.574,-0.121 -7.592,-0.169 -11.912,-0.238 -17.265,-0.324 -28.094,-0.458 -43.093,-0.643 -59.926,-0.851 l -0.215,-0.003 -0.043,0.214 c -0.198,1.004 0.163,2.067 0.791,2.869 0.625,0.812 1.531,1.422 2.507,1.75 2.256,0.766 4.573,0.443 6.693,0.838 1.059,0.185 2.083,0.545 2.888,1.199 0.815,0.65 1.426,1.544 2.164,2.348 0.712,0.821 1.694,1.51 2.786,1.727 1.081,0.232 2.155,0.154 3.181,0.076 1.027,-0.079 2.032,-0.182 3.003,-0.073 0.974,0.1 1.916,0.378 2.814,0.738 1.803,0.72 3.433,1.74 5.149,2.521 1.706,0.772 3.528,1.323 5.343,1.188 0.898,-0.074 1.777,-0.325 2.536,-0.762 0.76,-0.433 1.399,-1.002 1.97,-1.594 1.137,-1.19 2.029,-2.476 3.069,-3.51 1.018,-1.05 2.244,-1.792 3.547,-1.975 1.298,-0.207 2.569,-0.096 3.76,-0.184 C -5.578,6.322 -3.667,5.365 -2.314,4.39 -0.959,3.383 -0.237,2.204 -0.04,1.337 0.154,0.468 -0.023,-0.028 0,0 -0.041,0.022 0.073,0.467 -0.142,1.31 -0.366,2.143 -1.09,3.266 -2.435,4.226 c -1.337,0.93 -3.236,1.84 -5.566,2 -1.165,0.073 -2.437,-0.055 -3.795,0.147 -1.372,0.176 -2.705,0.969 -3.753,2.04 -1.078,1.059 -1.984,2.343 -3.099,3.492 -0.558,0.573 -1.173,1.11 -1.885,1.51 -0.71,0.403 -1.523,0.629 -2.365,0.695 -1.7,0.119 -3.455,-0.411 -5.121,-1.173 -1.672,-0.77 -3.308,-1.802 -5.16,-2.551 -0.923,-0.373 -1.909,-0.67 -2.94,-0.779 -1.036,-0.117 -2.072,-0.011 -3.094,0.065 -1.019,0.076 -2.051,0.141 -3.033,-0.073 -0.988,-0.205 -1.827,-0.791 -2.519,-1.579 -0.708,-0.768 -1.326,-1.687 -2.217,-2.405 -0.894,-0.727 -2.013,-1.114 -3.12,-1.307 -2.225,-0.405 -4.521,-0.098 -6.612,-0.82 -0.905,-0.305 -1.703,-0.85 -2.267,-1.578 -0.562,-0.719 -0.856,-1.623 -0.693,-2.452 l -0.257,0.21 c 16.766,0.124 31.705,0.234 42.491,0.313 5.376,0.021 9.714,0.037 12.746,0.049 C -3.213,0.028 -2.052,0.027 -1.228,0.026 -0.851,0.022 -0.552,0.019 -0.32,0.016 -0.113,0.012 -0.006,0.006 0,0"
             style="fill:#1a2e35;fill-opacity:1;fill-rule:nonzero;stroke:none"
             id="path204" />
        </g>
      </g>
    </g>
    <g
       id="g206">
      <g
         id="g208"
         clip-path="url(#clipPath212)">
        <g
           id="g214"
           transform="translate(247.089,231.3122)">
          <path
             d="m 0,0 -0.719,-16.445 c 0,0 16.474,-6.254 16.637,-9.306 l -31.936,0.248 0.069,25.671 z"
             style="fill:#375a64;fill-opacity:1;fill-rule:nonzero;stroke:none"
             id="path216" />
        </g>
        <g
           id="g218"
           transform="translate(236.5055,216.3278)">
          <path
             d="m 0,0 c -0.62,-0.164 -1.052,-0.856 -0.914,-1.481 0.139,-0.626 0.839,-1.072 1.461,-0.918 0.622,0.152 1.167,0.966 0.959,1.573 -0.208,0.606 -1.058,1.085 -1.625,0.787"
             style="fill:#e1e1e1;fill-opacity:1;fill-rule:nonzero;stroke:none"
             id="path220" />
        </g>
        <g
           id="g222">
          <g
             id="g224" />
          <g
             id="g236">
            <g
               clip-path="url(#clipPath228)"
               opacity="0.600006"
               id="g234">
              <g
                 transform="translate(231.0709,205.8093)"
                 id="g232">
                <path
                   d="m 0,0 0.108,2.588 30.58,-1.206 c 0,0 1.417,-0.63 1.249,-1.63 z"
                   style="fill:#ffffff;fill-opacity:1;fill-rule:nonzero;stroke:none"
                   id="path230" />
              </g>
            </g>
          </g>
        </g>
        <g
           id="g238"
           transform="translate(246.8888,215.0251)">
          <path
             d="m 0,0 c -0.006,-0.155 -0.787,-0.221 -1.558,-0.716 -0.784,-0.475 -1.185,-1.147 -1.328,-1.085 -0.143,0.031 0.096,0.962 1.041,1.546 C -0.906,0.337 0.035,0.144 0,0"
             style="fill:#1a2e35;fill-opacity:1;fill-rule:nonzero;stroke:none"
             id="path240" />
        </g>
        <g
           id="g242"
           transform="translate(250.2277,213.614)">
          <path
             d="m 0,0 c 0.035,-0.151 -0.643,-0.411 -1.178,-1.067 -0.553,-0.64 -0.693,-1.352 -0.848,-1.344 -0.147,-0.024 -0.247,0.891 0.433,1.693 C -0.92,0.091 -0.002,0.148 0,0"
             style="fill:#1a2e35;fill-opacity:1;fill-rule:nonzero;stroke:none"
             id="path244" />
        </g>
        <g
           id="g246"
           transform="translate(252.0993,209.5895)">
          <path
             d="M 0,0 C -0.142,-0.031 -0.353,0.749 0.054,1.6 0.455,2.454 1.193,2.785 1.259,2.654 1.346,2.525 0.868,2.071 0.545,1.367 0.205,0.672 0.155,0.015 0,0"
             style="fill:#1a2e35;fill-opacity:1;fill-rule:nonzero;stroke:none"
             id="path248" />
        </g>
        <g
           id="g250"
           transform="translate(246.6369,218.7917)">
          <path
             d="M 0,0 C -0.066,-0.142 -0.78,0.079 -1.662,0.025 -2.545,-0.01 -3.233,-0.3 -3.313,-0.165 -3.403,-0.052 -2.729,0.521 -1.689,0.568 -0.65,0.624 0.078,0.122 0,0"
             style="fill:#1a2e35;fill-opacity:1;fill-rule:nonzero;stroke:none"
             id="path252" />
        </g>
        <g
           id="g254"
           transform="translate(296.7115,231.3122)">
          <path
             d="m 0,0 -0.719,-16.445 c 0,0 16.475,-6.254 16.638,-9.306 l -31.938,0.248 0.07,25.671 z"
             style="fill:#375a64;fill-opacity:1;fill-rule:nonzero;stroke:none"
             id="path256" />
        </g>
        <g
           id="g258"
           transform="translate(286.1276,216.3278)">
          <path
             d="m 0,0 c -0.619,-0.164 -1.052,-0.856 -0.913,-1.481 0.139,-0.626 0.838,-1.072 1.46,-0.918 0.622,0.152 1.167,0.966 0.959,1.573 -0.207,0.606 -1.058,1.085 -1.625,0.787"
             style="fill:#e1e1e1;fill-opacity:1;fill-rule:nonzero;stroke:none"
             id="path260" />
        </g>
        <g
           id="g262">
          <g
             id="g264" />
          <g
             id="g276">
            <g
               clip-path="url(#clipPath268)"
               opacity="0.600006"
               id="g274">
              <g
                 transform="translate(280.693,205.8093)"
                 id="g272">
                <path
                   d="m 0,0 0.108,2.588 30.58,-1.206 c 0,0 1.417,-0.63 1.249,-1.63 z"
                   style="fill:#ffffff;fill-opacity:1;fill-rule:nonzero;stroke:none"
                   id="path270" />
              </g>
            </g>
          </g>
        </g>
        <g
           id="g278"
           transform="translate(296.5114,215.0251)">
          <path
             d="m 0,0 c -0.006,-0.155 -0.787,-0.221 -1.558,-0.716 -0.784,-0.475 -1.185,-1.147 -1.328,-1.085 -0.143,0.031 0.096,0.962 1.04,1.546 C -0.906,0.337 0.035,0.144 0,0"
             style="fill:#1a2e35;fill-opacity:1;fill-rule:nonzero;stroke:none"
             id="path280" />
        </g>
        <g
           id="g282"
           transform="translate(299.8502,213.614)">
          <path
             d="m 0,0 c 0.034,-0.151 -0.643,-0.411 -1.178,-1.067 -0.553,-0.64 -0.693,-1.352 -0.848,-1.344 -0.147,-0.024 -0.247,0.891 0.433,1.693 C -0.92,0.091 -0.002,0.148 0,0"
             style="fill:#1a2e35;fill-opacity:1;fill-rule:nonzero;stroke:none"
             id="path284" />
        </g>
        <g
           id="g286"
           transform="translate(301.7213,209.5895)">
          <path
             d="M 0,0 C -0.142,-0.031 -0.353,0.749 0.055,1.6 0.456,2.454 1.193,2.785 1.259,2.654 1.346,2.525 0.869,2.071 0.545,1.367 0.205,0.672 0.155,0.015 0,0"
             style="fill:#1a2e35;fill-opacity:1;fill-rule:nonzero;stroke:none"
             id="path288" />
        </g>
        <g
           id="g290"
           transform="translate(296.2594,218.7917)">
          <path
             d="M 0,0 C -0.066,-0.142 -0.78,0.079 -1.662,0.025 -2.545,-0.01 -3.233,-0.3 -3.313,-0.165 -3.403,-0.052 -2.729,0.521 -1.689,0.568 -0.65,0.624 0.077,0.122 0,0"
             style="fill:#1a2e35;fill-opacity:1;fill-rule:nonzero;stroke:none"
             id="path292" />
        </g>
        <g
           id="g294"
           transform="translate(231.2228,447.2599)">
          <path
             d="m 0,0 c -1.124,3.075 -2.236,6.174 -2.813,9.396 -0.579,3.222 -0.603,6.603 0.426,9.71 0.157,0.471 1.517,3.644 2.012,3.613 0.354,-0.022 -0.448,-2.965 -0.258,-3.264 C 1.174,16.593 1.764,13.093 1.614,9.711 1.464,6.33 0.873,3.271 0,0"
             style="fill:#1a2e35;fill-opacity:1;fill-rule:nonzero;stroke:none"
             id="path296" />
        </g>
        <g
           id="g298"
           transform="translate(232.2746,429.8259)">
          <path
             d="m 0,0 -1.195,29.71 c -0.563,8.191 3.105,15.541 11.309,15.877 l 0.891,-0.016 C 18.58,45.44 24.783,39.515 25.261,31.954 25.712,24.818 26.123,16.893 26.008,13.065 25.774,5.19 17.874,4.103 17.874,4.103 c -0.018,-10e-4 0.337,-5.709 0.397,-8.02 0,0 -0.834,-0.607 -8.171,-0.867 C 2.76,-5.044 0,0 0,0"
             style="fill:#ffc19d;fill-opacity:1;fill-rule:nonzero;stroke:none"
             id="path300" />
        </g>
        <g
           id="g302"
           transform="translate(250.1486,433.9284)">
          <path
             d="m 0,0 c 0,0 -4.97,-0.205 -10.204,3.211 0,0 2.401,-5.773 10.274,-5.2 z"
             style="fill:#ff9c6a;fill-opacity:1;fill-rule:nonzero;stroke:none"
             id="path304" />
        </g>
        <g
           id="g306"
           transform="translate(254.8307,454.6276)">
          <path
             d="m 0,0 c 0.012,-0.595 -0.483,-1.094 -1.104,-1.116 -0.62,-0.023 -1.131,0.44 -1.142,1.034 -0.011,0.595 0.483,1.095 1.103,1.117 C -0.522,1.058 -0.01,0.594 0,0"
             style="fill:#1a2e35;fill-opacity:1;fill-rule:nonzero;stroke:none"
             id="path308" />
        </g>
        <g
           id="g310"
           transform="translate(255.5485,457.4382)">
          <path
             d="m 0,0 c -0.143,-0.144 -0.983,0.501 -2.194,0.519 -1.209,0.036 -2.109,-0.572 -2.237,-0.421 -0.064,0.067 0.083,0.329 0.475,0.604 0.386,0.274 1.04,0.535 1.794,0.519 C -1.408,1.203 -0.778,0.915 -0.419,0.625 -0.052,0.332 0.069,0.064 0,0"
             style="fill:#1a2e35;fill-opacity:1;fill-rule:nonzero;stroke:none"
             id="path312" />
        </g>
        <g
           id="g314"
           transform="translate(244.484,454.4421)">
          <path
             d="m 0,0 c -0.142,-0.144 -0.984,0.501 -2.194,0.52 -1.209,0.034 -2.108,-0.573 -2.237,-0.422 -0.063,0.067 0.082,0.329 0.475,0.604 0.386,0.274 1.04,0.535 1.794,0.519 C -1.408,1.203 -0.779,0.915 -0.419,0.625 -0.053,0.332 0.069,0.065 0,0"
             style="fill:#1a2e35;fill-opacity:1;fill-rule:nonzero;stroke:none"
             id="path316" />
        </g>
        <g
           id="g318"
           transform="translate(248.1696,447.9006)">
          <path
             d="M 0,0 C -0.004,0.069 0.75,0.186 1.972,0.32 2.282,0.347 2.575,0.403 2.631,0.614 2.708,0.835 2.584,1.171 2.441,1.533 2.163,2.286 1.873,3.076 1.568,3.903 0.356,7.276 -0.514,10.047 -0.378,10.095 -0.242,10.143 0.851,7.447 2.062,4.074 2.353,3.242 2.631,2.45 2.896,1.691 3.006,1.337 3.201,0.936 3.035,0.475 2.948,0.246 2.718,0.082 2.519,0.032 2.32,-0.025 2.146,-0.025 1.993,-0.032 0.765,-0.076 0.003,-0.069 0,0"
             style="fill:#1a2e35;fill-opacity:1;fill-rule:nonzero;stroke:none"
             id="path320" />
        </g>
        <g
           id="g322"
           transform="translate(244.5402,457.6662)">
          <path
             d="m 0,0 c -0.148,-0.317 -1.338,-0.053 -2.769,-0.096 -1.431,-0.014 -2.608,-0.325 -2.77,-0.015 -0.071,0.149 0.156,0.439 0.646,0.715 0.485,0.275 1.242,0.511 2.1,0.529 0.857,0.016 1.623,-0.189 2.12,-0.445 C -0.173,0.432 0.065,0.151 0,0"
             style="fill:#1a2e35;fill-opacity:1;fill-rule:nonzero;stroke:none"
             id="path324" />
        </g>
        <g
           id="g326"
           transform="translate(256.024,461.9675)">
          <path
             d="m 0,0 c -0.184,-0.321 -1.192,-0.248 -2.334,-0.482 -1.149,-0.2 -2.065,-0.638 -2.348,-0.405 -0.127,0.115 -0.034,0.417 0.332,0.763 0.361,0.344 1.01,0.702 1.797,0.852 0.788,0.148 1.52,0.052 1.976,-0.137 C -0.114,0.402 0.078,0.154 0,0"
             style="fill:#1a2e35;fill-opacity:1;fill-rule:nonzero;stroke:none"
             id="path328" />
        </g>
        <g
           id="g330"
           transform="translate(231.6183,453.7497)">
          <path
             d="M 0,0 C -0.133,0.061 -5.384,1.695 -5.306,-3.693 -5.228,-9.082 0.166,-7.892 0.172,-7.737 0.18,-7.583 0,0 0,0"
             style="fill:#ffc19d;fill-opacity:1;fill-rule:nonzero;stroke:none"
             id="path332" />
        </g>
        <g
           id="g334"
           transform="translate(230.0255,448.009)">
          <path
             d="m 0,0 c -0.024,0.017 -0.093,-0.067 -0.251,-0.142 -0.153,-0.073 -0.418,-0.126 -0.701,-0.025 -0.572,0.201 -1.065,1.098 -1.105,2.068 -0.021,0.491 0.075,0.959 0.243,1.348 0.159,0.397 0.41,0.676 0.696,0.731 0.284,0.07 0.49,-0.099 0.557,-0.25 0.075,-0.149 0.042,-0.257 0.071,-0.266 0.015,-0.013 0.115,0.092 0.068,0.314 C -0.446,3.885 -0.511,4.011 -0.639,4.112 -0.77,4.216 -0.961,4.267 -1.16,4.242 -1.575,4.208 -1.944,3.82 -2.129,3.393 -2.336,2.963 -2.456,2.437 -2.433,1.886 c 0.051,-1.085 0.621,-2.093 1.404,-2.307 0.38,-0.094 0.695,0.025 0.856,0.155 C -0.008,-0.13 0.019,-0.01 0,0"
             style="fill:#ff9c6a;fill-opacity:1;fill-rule:nonzero;stroke:none"
             id="path336" />
        </g>
        <g
           id="g338"
           transform="translate(253.8502,470.4948)">
          <path
             d="m 0,0 c 0.86,0.501 -1.822,3.264 -3.987,4.186 -3.273,1.394 -8.239,2.183 -11.205,1.267 -3.571,-1.103 -6.516,-2.962 -8.245,-6.276 -1.728,-3.314 -2.318,-7.142 -2.125,-10.874 0.058,-1.139 0.204,-2.324 0.835,-3.274 0.78,-1.174 2.242,-1.89 2.217,-3.535 -0.01,-0.601 0.176,-1.203 0.598,-1.631 1.01,-1.026 2.193,-0.012 2.724,0.988 1.135,2.138 1.208,4.66 1.256,7.08 0.034,1.72 0.063,3.477 -0.461,5.116 -0.284,0.891 -0.727,1.73 -0.962,2.637 -0.234,0.906 -0.231,1.941 0.319,2.698 0.09,0.123 0.239,0.28 0.428,0.452 1.494,1.374 3.621,1.824 5.548,1.192 3.06,-1.003 8.278,-2.484 9.607,-1.423 1.912,1.526 2.355,2.502 2.355,2.502 z"
             style="fill:#1a2e35;fill-opacity:1;fill-rule:nonzero;stroke:none"
             id="path340" />
        </g>
        <g
           id="g342"
           transform="translate(248.9528,444.6262)">
          <path
             d="M 0,0 C 0.021,-0.087 -0.275,-0.262 -0.815,-0.33 -1.351,-0.399 -2.127,-0.319 -2.883,0.04 -3.639,0.4 -4.191,0.952 -4.474,1.411 -4.763,1.873 -4.814,2.213 -4.733,2.251 -4.553,2.346 -3.9,1.284 -2.579,0.679 -1.276,0.036 -0.041,0.199 0,0"
             style="fill:#1a2e35;fill-opacity:1;fill-rule:nonzero;stroke:none"
             id="path344" />
        </g>
        <g
           id="g346"
           transform="translate(323.9596,457.7375)">
          <path
             d="M 0,0 C 0,0 -0.207,1.259 -0.83,1.259 -1.452,1.259 -2.386,0.919 -2.801,0 -3.216,-0.919 0,0 0,0"
             style="fill:#ffc19d;fill-opacity:1;fill-rule:nonzero;stroke:none"
             id="path348" />
        </g>
        <g
           id="g350"
           transform="translate(308.0992,437.6926)">
          <path
             d="m 0,0 0.622,9.932 1.971,10.226 c 0,0 1.556,1.664 2.386,1.277 0.83,-0.387 0.518,-1.753 0.518,-1.753 0,0 2.179,2.353 3.009,1.811 0.829,-0.541 0.518,-1.811 0.518,-1.811 0,0 1.971,2.611 2.905,1.892 0.933,-0.719 0,-1.892 0,-1.892 0,0 1.236,-11.458 0.613,-15.551 C 11.92,0.038 8.434,-1.482 8.434,-1.482 l -1.656,-6.444 -8.127,4.423 z"
             style="fill:#ffc19d;fill-opacity:1;fill-rule:nonzero;stroke:none"
             id="path352" />
        </g>
        <g
           id="g354"
           transform="translate(313.0739,450.6867)">
          <path
             d="M 0,0 -44.141,0.49 V 4.022 L 0,5.26 Z"
             style="fill:#083AA9;fill-opacity:1;fill-rule:nonzero;stroke:none"
             id="path356" />
        </g>
        <g
           id="g358"
           transform="translate(359.6832,447.1867)">
          <path
             d="m 0,0 -62.37,2.635 c -0.779,2.119 -0.81,4.413 -0.047,6.892 L -0.438,12.26 C 2.416,9.296 2.447,3.05 0,0"
             style="fill:#083AA9;fill-opacity:1;fill-rule:nonzero;stroke:none"
             id="path360" />
        </g>
        <g
           id="g362"
           transform="translate(359.0748,458.8762)">
          <path
             d="m 0,0 c 0,0 -1.88,-1.759 -1.807,-5.59 0.074,-3.83 1.96,-5.441 1.96,-5.441 0,0 2.046,2.162 1.748,6.001 C 1.611,-1.277 0,0 0,0"
             style="fill:#e1e1e1;fill-opacity:1;fill-rule:nonzero;stroke:none"
             id="path364" />
        </g>
        <g
           id="g366"
           transform="translate(356.5817,447.1867)">
          <path
             d="m 0,0 c -0.045,-0.039 -0.594,0.475 -1.212,1.514 -0.612,1.025 -1.265,2.644 -1.229,4.527 0.028,1.842 0.497,3.501 1.093,4.557 0.586,1.068 1.175,1.557 1.214,1.516 0.068,-0.055 -0.409,-0.62 -0.884,-1.679 C -1.504,9.384 -1.892,7.807 -1.921,6.03 -1.954,4.273 -1.398,2.724 -0.888,1.687 -0.374,0.641 0.066,0.051 0,0"
             style="fill:#1a2e35;fill-opacity:1;fill-rule:nonzero;stroke:none"
             id="path368" />
        </g>
        <g
           id="g370"
           transform="translate(359.361,459.3063)">
          <path
             d="m 0,0 c 0.067,-0.053 -0.39,-0.637 -0.887,-1.699 -0.498,-1.051 -0.992,-2.625 -0.95,-4.4 0.029,-1.778 0.582,-3.332 1.116,-4.364 0.495,-1.083 1.13,-1.45 1.108,-1.505 -0.011,-0.029 -0.21,0.005 -0.495,0.211 -0.288,0.203 -0.621,0.594 -0.933,1.113 -0.641,1.025 -1.286,2.652 -1.316,4.534 -0.045,1.882 0.54,3.533 1.143,4.58 C -0.61,-0.469 -0.042,0.04 0,0"
             style="fill:#1a2e35;fill-opacity:1;fill-rule:nonzero;stroke:none"
             id="path372" />
        </g>
        <g
           id="g374"
           transform="translate(360.1744,456.1057)">
          <path
             d="m 0,0 c -0.081,0.199 -0.178,0.397 -0.332,0.547 -0.154,0.15 -0.376,0.245 -0.586,0.2 -0.209,-0.044 -0.374,-0.224 -0.434,-0.428 -0.059,-0.205 -0.023,-0.429 0.068,-0.623 0.225,-0.451 0.596,-0.87 0.584,-1.32 -0.013,-0.45 -0.127,-0.898 -0.09,-1.347 0.014,-0.164 0.051,-0.332 0.145,-0.467 0.095,-0.135 0.259,-0.23 0.422,-0.208 0.267,0.037 0.4,0.339 0.461,0.601 C 0.475,-2.038 0.391,-0.958 0,0"
             style="fill:#ffffff;fill-opacity:1;fill-rule:nonzero;stroke:none"
             id="path376" />
        </g>
        <g
           id="g378"
           transform="translate(297.3024,449.5988)">
          <path
             d="M 0,0 C -0.114,-0.065 -0.896,1.489 -0.852,3.582 -0.825,5.675 0.01,7.202 0.121,7.133 0.268,7.076 -0.311,5.545 -0.331,3.573 -0.377,1.602 0.148,0.052 0,0"
             style="fill:#1a2e35;fill-opacity:1;fill-rule:nonzero;stroke:none"
             id="path380" />
        </g>
        <g
           id="g382"
           transform="translate(268.8424,450.3391)">
          <path
             d="M 0,0 V 0 C -0.372,0 -0.674,0.302 -0.674,0.674 V 4.41 c 0,0.372 0.302,0.673 0.674,0.673 0.372,0 0.674,-0.301 0.674,-0.673 V 0.674 C 0.674,0.302 0.372,0 0,0"
             style="fill:#083AA9;fill-opacity:1;fill-rule:nonzero;stroke:none"
             id="path384" />
        </g>
        <g
           id="g386"
           transform="translate(268.8424,450.3391)">
          <path
             d="M 0,0 C -0.005,0.043 0.178,0.046 0.361,0.23 0.447,0.321 0.526,0.46 0.525,0.628 0.514,0.86 0.502,1.093 0.489,1.33 0.472,1.934 0.453,2.552 0.434,3.19 0.429,3.55 0.424,3.915 0.419,4.288 0.453,4.619 0.26,4.808 0,4.823 -0.26,4.809 -0.454,4.619 -0.419,4.289 -0.424,3.915 -0.43,3.55 -0.435,3.19 -0.453,2.552 -0.472,1.934 -0.49,1.33 -0.502,1.093 -0.515,0.86 -0.526,0.627 -0.526,0.46 -0.448,0.321 -0.361,0.23 -0.178,0.046 0.005,0.043 0,0 0.009,-0.023 -0.189,-0.112 -0.489,0.073 -0.629,0.166 -0.78,0.345 -0.816,0.603 -0.83,0.843 -0.844,1.084 -0.858,1.33 -0.876,1.934 -0.895,2.552 -0.914,3.19 -0.919,3.55 -0.924,3.915 -0.93,4.289 -0.948,4.457 -0.903,4.806 -0.724,4.998 -0.554,5.21 -0.28,5.345 0,5.344 0.28,5.345 0.554,5.21 0.724,4.998 0.903,4.806 0.948,4.456 0.929,4.288 0.924,3.915 0.919,3.55 0.914,3.19 0.895,2.552 0.876,1.934 0.857,1.33 0.844,1.084 0.83,0.843 0.815,0.603 0.779,0.346 0.628,0.166 0.489,0.073 0.189,-0.112 -0.01,-0.023 0,0"
             style="fill:#1a2e35;fill-opacity:1;fill-rule:nonzero;stroke:none"
             id="path388" />
        </g>
        <g
           id="g390"
           transform="translate(276.5065,442.9435)">
          <path
             d="m 0,0 c 0,0 -0.938,11.59 -0.66,12.607 0.319,1.164 3.478,4.596 4.596,4.72 1.118,0.124 1.242,-1.118 1.242,-1.118 0,0 1.572,1.08 3.105,1.126 1.631,0.051 1.842,-1.385 1.842,-1.385 0,0 0.911,0.67 2.473,0.389 0.658,-0.118 1.413,-1.287 1.413,-1.287 0,0 1.637,0.707 2.417,-0.024 0.981,-0.92 0.968,-2.563 0.968,-2.563 -1.52,0.113 -2.899,-0.922 -2.899,-0.922 0,0 -0.376,-5.022 -0.997,-7.507 C 12.879,1.552 10.423,-0.5 9.597,-1.786 L 8.944,-10.357 -1.605,-4.77 Z"
             style="fill:#ffc19d;fill-opacity:1;fill-rule:nonzero;stroke:none"
             id="path392" />
        </g>
        <g
           id="g394"
           transform="translate(278.8815,454.6784)">
          <path
             d="M 0,0 C -0.135,-0.02 -0.178,1.522 0.873,3.005 1.907,4.5 3.371,4.987 3.398,4.854 3.471,4.717 2.235,4.07 1.3,2.707 0.339,1.361 0.154,-0.021 0,0"
             style="fill:#ff9c6a;fill-opacity:1;fill-rule:nonzero;stroke:none"
             id="path396" />
        </g>
        <g
           id="g398"
           transform="translate(284.0416,454.8781)">
          <path
             d="M 0,0 C -0.121,-0.046 -0.424,1.333 0.437,2.75 0.857,3.442 1.485,3.898 1.984,4.067 2.485,4.244 2.816,4.203 2.823,4.143 2.862,3.999 1.61,3.742 0.879,2.476 0.123,1.254 0.16,-0.003 0,0"
             style="fill:#ff9c6a;fill-opacity:1;fill-rule:nonzero;stroke:none"
             id="path400" />
        </g>
        <g
           id="g402"
           transform="translate(287.818,455.2648)">
          <path
             d="M 0,0 C -0.135,0.024 0.091,1.126 1.078,2.015 2.057,2.914 3.175,3.035 3.186,2.898 3.225,2.751 2.29,2.429 1.429,1.63 0.552,0.848 0.143,-0.053 0,0"
             style="fill:#ff9c6a;fill-opacity:1;fill-rule:nonzero;stroke:none"
             id="path404" />
        </g>
        <g
           id="g406"
           transform="translate(314.7975,440.0891)">
          <path
             d="m 0,0 c 1.764,2.074 0.419,7.636 0.419,7.636 0,0 2.49,0.83 3.112,3.32 0.622,2.489 -0.622,2.904 -0.622,2.904 -0.415,-0.208 -4.253,-2.697 -6.223,-3.735 -1.971,-1.037 -2.594,-11.6 -2.594,-11.6"
             style="fill:#ffc19d;fill-opacity:1;fill-rule:nonzero;stroke:none"
             id="path408" />
        </g>
        <g
           id="g410"
           transform="translate(308.8893,438.614)">
          <path
             d="m 0,0 c -0.035,0.002 -0.042,0.496 0.002,1.385 0.046,0.89 0.137,2.176 0.332,3.759 0.228,1.576 0.427,3.477 1.235,5.495 0.118,0.247 0.237,0.501 0.424,0.738 0.158,0.239 0.491,0.466 0.71,0.566 0.478,0.262 0.961,0.544 1.45,0.836 0.974,0.598 1.98,1.217 3.011,1.85 0.519,0.319 0.994,0.629 1.537,0.937 l 0.101,0.058 0.097,-0.043 C 9.376,15.371 9.594,14.99 9.73,14.607 9.86,14.222 9.878,13.832 9.857,13.463 9.804,12.729 9.64,12.026 9.31,11.396 8.644,10.141 7.531,9.33 6.396,8.905 L 6.538,9.162 C 7.03,6.814 7.083,4.805 6.822,3.429 6.705,2.738 6.459,2.232 6.278,1.909 6.06,1.603 5.923,1.462 5.908,1.475 5.889,1.491 5.99,1.661 6.163,1.972 6.301,2.304 6.498,2.795 6.576,3.469 6.757,4.804 6.642,6.781 6.117,9.06 L 6.074,9.244 6.259,9.317 c 1.007,0.397 2.046,1.182 2.614,2.302 0.286,0.551 0.434,1.212 0.478,1.871 0.057,0.63 -0.146,1.383 -0.616,1.599 l 0.198,0.014 C 8.465,14.834 7.943,14.499 7.439,14.187 6.41,13.546 5.401,12.923 4.413,12.34 3.919,12.049 3.43,11.769 2.94,11.505 2.662,11.368 2.538,11.278 2.38,11.077 2.229,10.894 2.115,10.663 2.006,10.439 1.22,8.556 0.965,6.641 0.699,5.093 0.458,3.527 0.312,2.25 0.204,1.368 0.099,0.486 0.036,-0.002 0,0"
             style="fill:#ff9c6a;fill-opacity:1;fill-rule:nonzero;stroke:none"
             id="path412" />
        </g>
        <g
           id="g414"
           transform="translate(232.3048,347.4079)">
          <path
             d="m 0,0 c 0,0 1.228,-50.331 0,-56.469 -1.228,-6.138 -3.273,-31.508 -3.273,-50.331 0,-18.822 0.789,-23.112 0.789,-23.112 H 15.79 c 0,0 1.261,35.788 6.902,56.488 5.239,19.228 11.271,48.463 11.271,61.148 V 4.91 H 1.637 Z"
             style="fill:#1a2e35;fill-opacity:1;fill-rule:nonzero;stroke:none"
             id="path416" />
        </g>
        <g
           id="g418"
           transform="translate(276.4977,352.3181)">
          <path
             d="m 0,0 c 0,0 19.17,-53.195 20.397,-68.744 1.228,-15.55 1.29,-66.078 1.29,-66.078 H 2.767 l -2.528,61.03 -14.561,39.542 V 0 Z"
             style="fill:#1a2e35;fill-opacity:1;fill-rule:nonzero;stroke:none"
             id="path420" />
        </g>
        <g
           id="g422"
           transform="translate(266.2672,323.675)">
          <path
             d="m 0,0 c 0.035,-0.009 -0.05,-0.524 -0.234,-1.449 -0.198,-1.021 -0.453,-2.338 -0.759,-3.92 -0.653,-3.406 -1.521,-7.934 -2.479,-12.94 -0.978,-5.054 -1.897,-9.624 -2.63,-12.918 -0.366,-1.648 -0.684,-2.976 -0.922,-3.89 -0.246,-0.912 -0.398,-1.412 -0.432,-1.404 -0.035,0.009 0.05,0.525 0.234,1.449 0.198,1.021 0.453,2.338 0.76,3.92 0.652,3.406 1.52,7.935 2.479,12.942 0.978,5.052 1.896,9.622 2.629,12.916 0.366,1.648 0.684,2.976 0.922,3.89 C -0.187,-0.492 -0.034,0.008 0,0"
             style="fill:#375a64;fill-opacity:1;fill-rule:nonzero;stroke:none"
             id="path424" />
        </g>
        <g
           id="g426"
           transform="translate(283.7574,328.8283)">
          <path
             d="m 0,0 h 4.053 c 0,0 0.928,14.033 -1.414,23.49 -2.344,9.456 -14.297,50.642 -14.297,50.642 L -24.9,96.016 -31.997,99.203 -8.674,21.016 Z"
             style="fill:#375a64;fill-opacity:1;fill-rule:nonzero;stroke:none"
             id="path428" />
        </g>
        <g
           id="g430">
          <g
             id="g432" />
          <g
             id="g444">
            <g
               clip-path="url(#clipPath436)"
               opacity="0.300003"
               id="g442">
              <g
                 transform="translate(269.0094,396.7609)"
                 id="g440">
                <path
                   d="m 0,0 c 0,0 12.262,-36.328 14.291,-45.852 2.03,-9.524 3.084,-22.081 3.084,-22.081 h -2.627 l -9.627,25.36 c 0,0 -10.034,40.327 -9.566,40.227 C -3.977,-2.446 0,0 0,0"
                   style="fill:#000000;fill-opacity:1;fill-rule:nonzero;stroke:none"
                   id="path438" />
              </g>
            </g>
          </g>
        </g>
        <g
           id="g446"
           transform="translate(229.5036,428.8781)">
          <path
             d="m 0,0 1.102,6.961 19.553,-8.777 v 4.264 l 8.639,-14.414 19.009,-54.043 c 0.617,-1.665 1.352,-7.214 0.245,-8.602 L 46.994,-76.56 26.395,-79.224 6.855,-8.688 Z"
             style="fill:#e1e1e1;fill-opacity:1;fill-rule:nonzero;stroke:none"
             id="path448" />
        </g>
        <g
           id="g450">
          <g
             id="g452" />
          <g
             id="g464">
            <g
               clip-path="url(#clipPath456)"
               opacity="0.300003"
               id="g462">
              <g
                 transform="translate(232.7384,323.675)"
                 id="g460">
                <path
                   d="m 0,0 c 0,0 26.162,-2.937 31.522,-0.803 5.361,2.133 5.616,7.603 5.616,7.603 0,0 2.623,18.577 2.441,22.671 -0.208,4.648 -1.699,11.276 -1.699,11.276 L -0.045,3.279 Z"
                   style="fill:#000000;fill-opacity:1;fill-rule:nonzero;stroke:none"
                   id="path458" />
              </g>
            </g>
          </g>
        </g>
        <g
           id="g466"
           transform="translate(252.443,420.8107)">
          <path
             d="m 0,0 c 0,0 8.941,-30.437 8.865,-30.664 -0.075,-0.227 9.916,-31.172 9.916,-31.172 l 1.965,9.303 L 6.85,-6.137 1.26,0.711 Z"
             style="fill:#083AA9;fill-opacity:1;fill-rule:nonzero;stroke:none"
             id="path468" />
        </g>
        <g
           id="g470"
           transform="translate(223.694,426.0383)">
          <path
             d="m 0,0 c -9.173,-5.586 -9.649,-14.263 -5.567,-24.197 0.676,-1.648 1.976,-4.485 2.88,-6.405 C 1.26,-38.99 9.45,-52.68 9.449,-55.883 9.447,-63.417 2.7,-98.389 2.7,-98.389 c 0,0 36.574,-4.441 39.874,-0.987 3.299,3.454 5.841,25.001 4.78,34.642 -1.171,10.638 -6.652,28.631 -8.873,35.293 -1.335,4.006 -5.749,13.987 -11.012,20.528 -3.936,4.892 -8.623,9.127 -13.875,12.568 L 5.81,8.756 4.204,3.355 C 4.204,3.355 2.062,1.255 0,0"
             style="fill:#375a64;fill-opacity:1;fill-rule:nonzero;stroke:none"
             id="path472" />
        </g>
        <g
           id="g474"
           transform="translate(259.2926,423.611)">
          <path
             d="m 0,0 c 0.754,0.041 34.184,-10.925 32.252,-10.117 l 0.893,0.931 12.046,18.161 10.974,-6.507 c 0,0 -10.888,-20.804 -12.686,-24.064 -1.611,-2.92 -4.723,-5.261 -8.87,-5.254 -2.451,0.004 -23.387,3.504 -23.387,3.504 z"
             style="fill:#375a64;fill-opacity:1;fill-rule:nonzero;stroke:none"
             id="path476" />
        </g>
        <g
           id="g478"
           transform="translate(272.7408,436.1076)">
          <path
             d="M 0,0 2.588,4.58 14.231,-2.043 12.416,-7.086 Z"
             style="fill:#e1e1e1;fill-opacity:1;fill-rule:nonzero;stroke:none"
             id="path480" />
        </g>
        <g
           id="g482">
          <g
             id="g484" />
          <g
             id="g496">
            <g
               clip-path="url(#clipPath488)"
               opacity="0.300003"
               id="g494">
              <g
                 transform="translate(221.5265,401.4875)"
                 id="g492">
                <path
                   d="m 0,0 c 0,0 22.495,-12.531 29.624,-14.182 7.128,-1.651 15.118,-3.936 15.118,-3.936 L 41.534,-7.9 22.007,3.973 Z"
                   style="fill:#000000;fill-opacity:1;fill-rule:nonzero;stroke:none"
                   id="path490" />
              </g>
            </g>
          </g>
        </g>
        <g
           id="g498"
           transform="translate(221.5265,401.4875)">
          <path
             d="m 0,0 c -0.278,0.211 33.716,-11.879 40.642,-9.7 6.925,2.18 9.175,9.049 11.651,13.273 4.533,7.734 12.565,23.105 12.565,23.105 L 50.438,34.908 36.113,10.94 c 0,0 -25.306,10.434 -27.639,11.115 C 6.142,22.736 -1.064,23.669 -4.59,15.247 -8.497,5.914 0,0 0,0"
             style="fill:#375a64;fill-opacity:1;fill-rule:nonzero;stroke:none"
             id="path500" />
        </g>
        <g
           id="g502"
           transform="translate(221.5265,401.4875)">
          <path
             d="m 0,0 c 0.014,-0.006 -0.098,0.045 -0.255,0.167 -0.162,0.118 -0.402,0.301 -0.699,0.562 -0.593,0.52 -1.45,1.334 -2.347,2.571 -0.886,1.231 -1.825,2.92 -2.236,5.099 -0.141,0.538 -0.134,1.115 -0.188,1.705 -0.034,0.592 0.054,1.203 0.08,1.834 0.139,0.615 0.215,1.268 0.418,1.904 0.24,0.624 0.387,1.307 0.722,1.931 0.546,1.3 1.37,2.567 2.421,3.717 1.063,1.142 2.459,2.089 4.077,2.628 1.612,0.552 3.427,0.675 5.231,0.404 0.906,-0.118 1.811,-0.423 2.67,-0.763 0.868,-0.334 1.751,-0.674 2.647,-1.018 7.139,-2.812 15.089,-6.06 23.665,-9.575 l -0.302,-0.101 c 4.429,7.421 9.267,15.527 14.31,23.976 l 0.131,0.219 0.222,-0.127 c 1.645,-0.939 3.408,-1.945 5.184,-2.958 3.164,-1.806 6.287,-3.589 9.235,-5.272 l 0.217,-0.124 -0.117,-0.221 C 62.254,21.161 59.464,15.936 56.722,10.938 55.348,8.44 53.988,5.999 52.608,3.637 51.246,1.295 50.166,-1.171 48.719,-3.362 c -1.406,-2.206 -3.216,-4.134 -5.386,-5.385 -1.104,-0.587 -2.203,-1.125 -3.438,-1.334 -1.215,-0.161 -2.398,-0.083 -3.55,0.022 -4.597,0.51 -8.743,1.591 -12.506,2.561 -7.513,2.016 -13.452,3.974 -17.54,5.325 C 2.217,-0.81 0,0 0,0 c -0.003,0.02 0.146,-0.02 0.422,-0.101 0.296,-0.092 0.702,-0.218 1.225,-0.381 1.097,-0.352 2.679,-0.859 4.711,-1.511 4.104,-1.294 10.058,-3.2 17.57,-5.168 3.758,-0.945 7.909,-2.004 12.457,-2.488 1.133,-0.1 2.303,-0.168 3.448,-0.01 1.115,0.187 2.234,0.726 3.28,1.292 2.092,1.216 3.842,3.084 5.219,5.257 1.417,2.157 2.482,4.607 3.86,6.99 1.37,2.358 2.724,4.8 4.093,7.297 2.732,4.999 5.515,10.226 8.343,15.621 l 0.101,-0.344 c -2.949,1.682 -6.072,3.464 -9.236,5.269 -1.776,1.013 -3.538,2.02 -5.184,2.959 l 0.352,0.092 C 45.608,26.332 40.76,18.23 36.323,10.815 l -0.109,-0.18 -0.194,0.08 c -8.567,3.532 -16.509,6.804 -23.63,9.643 -0.892,0.348 -1.771,0.69 -2.637,1.027 C 8.885,21.731 8.047,22.019 7.164,22.14 5.419,22.411 3.662,22.301 2.106,21.776 0.544,21.265 -0.807,20.363 -1.845,19.262 -2.871,18.153 -3.687,16.923 -4.232,15.648 -4.567,15.038 -4.713,14.372 -4.955,13.762 -5.159,13.14 -5.237,12.503 -5.38,11.902 -5.41,11.287 -5.503,10.689 -5.474,10.111 -5.427,9.534 -5.44,8.968 -5.307,8.44 c 0.378,-2.138 1.28,-3.815 2.136,-5.047 0.867,-1.239 1.7,-2.066 2.272,-2.602 0.287,-0.27 0.516,-0.463 0.67,-0.592 C -0.125,0.108 -0.061,0.052 0,0"
             style="fill:#1a2e35;fill-opacity:1;fill-rule:nonzero;stroke:none"
             id="path504" />
        </g>
        <g
           id="g506"
           transform="translate(237.8727,350.2604)">
          <path
             d="M 0,0 3.15,6.377 25.187,5.99 22.738,-0.606 Z"
             style="fill:#375a64;fill-opacity:1;fill-rule:nonzero;stroke:none"
             id="path508" />
        </g>
        <g
           id="g510"
           transform="translate(237.8727,350.2604)">
          <path
             d="M 0,0 C 0.013,0.008 0.177,0.012 0.48,0.012 0.831,0.01 1.263,0.008 1.791,0.004 2.981,-0.01 4.598,-0.03 6.589,-0.055 10.657,-0.11 16.287,-0.192 22.744,-0.353 L 22.5,-0.518 c 0.743,2.008 1.527,4.125 2.333,6.303 0.037,0.1 0.074,0.199 0.11,0.296 L 25.183,5.73 C 16.312,5.887 8.388,6.061 3.147,6.209 L 3.301,6.303 C 2.307,4.386 1.505,2.84 0.919,1.711 0.65,1.202 0.431,0.788 0.255,0.455 0.1,0.165 0.014,0.008 0,0 -0.014,-0.008 0.045,0.131 0.172,0.411 0.324,0.742 0.513,1.153 0.745,1.658 1.299,2.837 2.058,4.451 2.999,6.452 L 3.043,6.547 3.153,6.546 C 8.396,6.509 16.321,6.406 25.191,6.25 L 25.56,6.244 25.432,5.899 C 25.395,5.803 25.358,5.703 25.321,5.603 24.511,3.428 23.723,1.312 22.976,-0.695 l -0.064,-0.17 -0.181,0.005 c -6.586,0.187 -12.325,0.408 -16.366,0.569 -1.958,0.081 -3.548,0.146 -4.719,0.195 -0.5,0.024 -0.91,0.044 -1.242,0.06 C 0.125,-0.02 -0.013,-0.008 0,0"
             style="fill:#1a2e35;fill-opacity:1;fill-rule:nonzero;stroke:none"
             id="path512" />
        </g>
        <g
           id="g514"
           transform="translate(252.5846,415.239)">
          <path
             d="m 0,0 c -0.071,-0.125 -5.656,2.943 -12.472,6.851 -6.819,3.91 -12.286,7.179 -12.215,7.304 0.072,0.125 5.655,-2.943 12.474,-6.852 C -5.397,3.395 0.071,0.125 0,0"
             style="fill:#1a2e35;fill-opacity:1;fill-rule:nonzero;stroke:none"
             id="path516" />
        </g>
        <g
           id="g518"
           transform="translate(260.2047,367.1188)">
          <path
             d="m 0,0 c -0.009,-0.144 -5.318,0.08 -11.856,0.498 -6.541,0.419 -11.834,0.875 -11.825,1.019 0.009,0.143 5.317,-0.08 11.858,-0.499 C -5.285,0.599 0.01,0.143 0,0"
             style="fill:#1a2e35;fill-opacity:1;fill-rule:nonzero;stroke:none"
             id="path520" />
        </g>
        <g
           id="g522"
           transform="translate(305.1725,432.1017)">
          <path
             d="m 0,0 2.214,3.737 8.805,-5.14 -1.713,-4.055 z"
             style="fill:#e1e1e1;fill-opacity:1;fill-rule:nonzero;stroke:none"
             id="path524" />
        </g>
        <g
           id="g526"
           transform="translate(293.8385,405.8068)">
          <path
             d="M 0,0 C -0.09,-0.095 -1.408,1.276 -2.148,3.454 -2.906,5.625 -2.711,7.517 -2.582,7.498 -2.424,7.501 -2.381,5.691 -1.655,3.623 -0.954,1.548 0.127,0.095 0,0"
             style="fill:#1a2e35;fill-opacity:1;fill-rule:nonzero;stroke:none"
             id="path528" />
        </g>
        <g
           id="g530"
           transform="translate(272.3082,402.2409)">
          <path
             d="M 0,0 C 0.138,0.04 1.066,-2.756 2.072,-6.244 3.08,-9.733 3.783,-12.593 3.646,-12.633 3.508,-12.673 2.579,-9.878 1.572,-6.389 0.565,-2.9 -0.139,-0.04 0,0"
             style="fill:#1a2e35;fill-opacity:1;fill-rule:nonzero;stroke:none"
             id="path532" />
        </g>
        <g
           id="g534"
           transform="translate(258.8112,404.8474)">
          <path
             d="M 0,0 C -0.09,-0.096 -1.336,1.379 -1.707,3.656 -2.102,5.93 -1.407,7.731 -1.291,7.67 -1.135,7.636 -1.569,5.879 -1.193,3.743 -0.85,1.602 0.136,0.083 0,0"
             style="fill:#1a2e35;fill-opacity:1;fill-rule:nonzero;stroke:none"
             id="path536" />
        </g>
        <g
           id="g538">
          <g
             id="g540" />
          <g
             id="g552">
            <g
               clip-path="url(#clipPath544)"
               opacity="0.300003"
               id="g550">
              <g
                 transform="translate(239.6393,350.2233)"
                 id="g548">
                <path
                   d="m 0,0 -0.39,-1.931 22.821,-0.644 0.99,8.602 -2.449,-6.596 z"
                   style="fill:#000000;fill-opacity:1;fill-rule:nonzero;stroke:none"
                   id="path546" />
              </g>
            </g>
          </g>
        </g>
        <g
           id="g554"
           transform="translate(249.6764,422.8498)">
          <path
             d="M 0,0 0.24,-0.259 2.767,-2.039 4.026,-1.328 3.203,1.461 0.542,3.456 Z"
             style="fill:#083AA9;fill-opacity:1;fill-rule:nonzero;stroke:none"
             id="path556" />
        </g>
        <g
           id="g558"
           transform="translate(253.0827,426.3058)">
          <path
             d="M 0,0 C 0.067,0.011 0.275,-0.896 0.563,-2.409 L 0.645,-2.835 0.28,-2.58 c -0.882,0.62 -2.019,1.441 -3.294,2.38 l 0.397,0.161 c -0.12,-0.784 -0.247,-1.617 -0.379,-2.481 -0.082,-0.516 -0.163,-1.022 -0.24,-1.509 l -0.056,-0.344 -0.31,0.153 c -1.917,0.94 -3.594,1.787 -4.784,2.415 -1.19,0.627 -1.894,1.034 -1.866,1.091 0.028,0.058 0.783,-0.243 2.013,-0.787 1.23,-0.546 2.934,-1.336 4.861,-2.257 L -3.744,-3.95 c 0.076,0.488 0.154,0.994 0.234,1.511 0.138,0.863 0.272,1.694 0.399,2.478 L -3.045,0.452 -2.714,0.2 c 1.259,-0.96 2.366,-1.822 3.208,-2.494 L 0.212,-2.465 C 0.016,-0.938 -0.068,-0.011 0,0"
             style="fill:#1a2e35;fill-opacity:1;fill-rule:nonzero;stroke:none"
             id="path560" />
        </g>
      </g>
    </g>
  </g>
</svg>
